  0
SECTION
  2
BLOCKS
  0
ENDSEC
  0
SECTION
  2
ENTITIES
  0
LINE
  8
0
 10
21.5
 20
-0.75
 11
20.4733
 21
-0.75
  0
LINE
  8
0
 10
20.4733
 20
-0.75
 11
20.3839
 21
-0.883881
  0
LINE
  8
0
 10
20.3839
 20
-0.883881
 11
19.9783
 21
-1.15485
  0
LINE
  8
0
 10
19.9783
 20
-1.15485
 11
19.5
 21
-1.25
  0
LINE
  8
0
 10
19.5
 20
-1.25
 11
19.0216
 21
-1.15485
  0
LINE
  8
0
 10
19.0216
 20
-1.15485
 11
18.6161
 21
-0.883881
  0
LINE
  8
0
 10
18.6161
 20
-0.883881
 11
18.3451
 21
-0.478348
  0
LINE
  8
0
 10
18.3451
 20
-0.478348
 11
18.25
 21
0
  0
LINE
  8
0
 10
18.25
 20
0
 11
18.3451
 21
0.478348
  0
LINE
  8
0
 10
18.3451
 20
0.478348
 11
18.6161
 21
0.883881
  0
LINE
  8
0
 10
18.6161
 20
0.883881
 11
19.0216
 21
1.15485
  0
LINE
  8
0
 10
19.0216
 20
1.15485
 11
19.5
 21
1.24998
  0
LINE
  8
0
 10
19.5
 20
1.24998
 11
19.9783
 21
1.15485
  0
LINE
  8
0
 10
19.9783
 20
1.15485
 11
20.3839
 21
0.883881
  0
LINE
  8
0
 10
20.3839
 20
0.883881
 11
20.4733
 21
0.749985
  0
LINE
  8
0
 10
20.4733
 20
0.749985
 11
21.5
 21
0.749985
  0
LINE
  8
0
 10
21.5
 20
0.749985
 11
21.5
 21
6.09999
  0
LINE
  8
0
 10
21.5
 20
6.09999
 11
-10.5
 21
6.09999
  0
LINE
  8
0
 10
-10.5
 20
6.09999
 11
-10.5
 21
0.749985
  0
LINE
  8
0
 10
-10.5
 20
0.749985
 11
-9.47333
 21
0.749985
  0
LINE
  8
0
 10
-9.47333
 20
0.749985
 11
-9.38388
 21
0.883881
  0
LINE
  8
0
 10
-9.38388
 20
0.883881
 11
-8.97835
 21
1.15485
  0
LINE
  8
0
 10
-8.97835
 20
1.15485
 11
-8.5
 21
1.24998
  0
LINE
  8
0
 10
-8.5
 20
1.24998
 11
-8.02164
 21
1.15485
  0
LINE
  8
0
 10
-8.02164
 20
1.15485
 11
-7.6161
 21
0.883881
  0
LINE
  8
0
 10
-7.6161
 20
0.883881
 11
-7.34514
 21
0.478348
  0
LINE
  8
0
 10
-7.34514
 20
0.478348
 11
-7.24998
 21
0
  0
LINE
  8
0
 10
-7.24998
 20
0
 11
-7.34514
 21
-0.478348
  0
LINE
  8
0
 10
-7.34514
 20
-0.478348
 11
-7.6161
 21
-0.883881
  0
LINE
  8
0
 10
-7.6161
 20
-0.883881
 11
-8.02164
 21
-1.15485
  0
LINE
  8
0
 10
-8.02164
 20
-1.15485
 11
-8.5
 21
-1.25
  0
LINE
  8
0
 10
-8.5
 20
-1.25
 11
-8.97835
 21
-1.15485
  0
LINE
  8
0
 10
-8.97835
 20
-1.15485
 11
-9.38388
 21
-0.883881
  0
LINE
  8
0
 10
-9.38388
 20
-0.883881
 11
-9.47333
 21
-0.75
  0
LINE
  8
0
 10
-9.47333
 20
-0.75
 11
-10.5
 21
-0.75
  0
LINE
  8
0
 10
-10.5
 20
-0.75
 11
-10.5
 21
-6.09999
  0
LINE
  8
0
 10
-10.5
 20
-6.09999
 11
21.5
 21
-6.09999
  0
LINE
  8
0
 10
21.5
 20
-6.09999
 11
21.5
 21
-0.75
  0
ENDSEC
  0
SECTION
  2
OBJECTS
  0
DICTIONARY
  0
ENDSEC
  0
EOF
