999
dxfrw 0.5.11
0
SECTION
2
HEADER
9
$ACADVER
1
AC1021
9
$HANDSEED
5
20000
9
$DWGCODEPAGE
3
ANSI_1252
9
$INSBASE
10
0
20
0
30
0
9
$EXTMIN
10
-16
20
-42
30
0
9
$EXTMAX
10
5.5
20
10
30
0
9
$LIMMIN
10
0
20
0
9
$LIMMAX
10
420
20
297
9
$ORTHOMODE
70
0
9
$LTSCALE
40
1
9
$TEXTSTYLE
7
STANDARD
9
$CLAYER
8
gear_2
9
$DIMASZ
40
2.5
9
$DIMLFAC
40
1
9
$DIMSCALE
40
1
9
$DIMEXO
40
0.625
9
$DIMEXE
40
1.25
9
$DIMTXT
40
2.5
9
$DIMTSZ
40
0
9
$DIMAUNIT
70
0
9
$DIMADEC
70
2
9
$DIMLUNIT
70
2
9
$DIMSTYLE
2
STANDARD
9
$DIMGAP
40
0.625
9
$DIMTIH
70
0
9
$LUNITS
70
2
9
$LUPREC
70
1
9
$AUNITS
70
0
9
$AUPREC
70
2
9
$SPLINESEGS
70
8
9
$GRIDMODE
70
1
9
$SNAPSTYLE
70
0
9
$GRIDUNIT
10
0
20
0
9
$PINSBASE
10
0
20
0
30
0
9
$PLIMMIN
10
0
20
0
9
$PLIMMAX
10
210
20
297
9
$INSUNITS
70
4
9
$PSVPSCALE
40
1
0
ENDSEC
0
SECTION
2
CLASSES
0
ENDSEC
0
SECTION
2
TABLES
0
TABLE
2
VPORT
5
8
330
0
100
AcDbSymbolTable
70
1
0
VPORT
5
31
330
2
100
AcDbSymbolTableRecord
100
AcDbViewportTableRecord
2
*ACTIVE
70
0
10
0
20
0
11
1
21
1
12
1.93924672817
22
0.743284769009
13
0
23
0
14
10
24
10
15
10
25
10
16
0
26
0
36
1
17
0
27
0
37
0
40
2.36398088189
41
1.84397163121
42
50
43
0
44
0
50
0
51
0
71
0
72
100
73
1
74
3
75
0
76
1
77
0
78
0
281
0
65
1
110
0
120
0
130
0
111
1
121
0
131
0
112
0
122
1
132
0
79
0
146
0
348
10020
60
7
61
5
292
1
282
1
141
0
142
0
63
250
421
3358443
0
ENDTAB
0
TABLE
2
LTYPE
5
5
330
0
100
AcDbSymbolTable
70
4
0
LTYPE
5
14
330
5
100
AcDbSymbolTableRecord
100
AcDbLinetypeTableRecord
2
ByBlock
70
0
3

72
65
73
0
40
0
0
LTYPE
5
15
330
5
100
AcDbSymbolTableRecord
100
AcDbLinetypeTableRecord
2
ByLayer
70
0
3

72
65
73
0
40
0
0
LTYPE
5
16
330
5
100
AcDbSymbolTableRecord
100
AcDbLinetypeTableRecord
2
Continuous
70
0
3
Solid line
72
65
73
0
40
0
0
LTYPE
5
32
330
5
100
AcDbSymbolTableRecord
100
AcDbLinetypeTableRecord
2
DOT
70
0
3
Dot . . . . . . . . . . . . . . . . . . . . . .
72
65
73
2
40
6.35
49
0
74
0
49
-6.35
74
0
0
LTYPE
5
33
330
5
100
AcDbSymbolTableRecord
100
AcDbLinetypeTableRecord
2
DOT2
70
0
3
Dot (.5x) .....................................
72
65
73
2
40
3.175
49
0
74
0
49
-3.175
74
0
0
LTYPE
5
34
330
5
100
AcDbSymbolTableRecord
100
AcDbLinetypeTableRecord
2
DOTX2
70
0
3
Dot (2x) .  .  .  .  .  .  .  .  .  .  .  .  .
72
65
73
2
40
12.7
49
0
74
0
49
-12.7
74
0
0
LTYPE
5
35
330
5
100
AcDbSymbolTableRecord
100
AcDbLinetypeTableRecord
2
DASHED
70
0
3
Dot . . . . . . . . . . . . . . . . . . . . . .
72
65
73
2
40
19.05
49
12.7
74
0
49
-6.35
74
0
0
LTYPE
5
36
330
5
100
AcDbSymbolTableRecord
100
AcDbLinetypeTableRecord
2
DASHED2
70
0
3
Dashed (.5x) _ _ _ _ _ _ _ _ _ _ _ _ _ _ _ _ _
72
65
73
2
40
9.525
49
6.35
74
0
49
-3.175
74
0
0
LTYPE
5
37
330
5
100
AcDbSymbolTableRecord
100
AcDbLinetypeTableRecord
2
DASHEDX2
70
0
3
Dashed (2x) ____  ____  ____  ____  ____  ___
72
65
73
2
40
38.1
49
25.4
74
0
49
-12.7
74
0
0
LTYPE
5
38
330
5
100
AcDbSymbolTableRecord
100
AcDbLinetypeTableRecord
2
DASHDOT
70
0
3
Dash dot __ . __ . __ . __ . __ . __ . __ . __
72
65
73
4
40
25.4
49
12.7
74
0
49
-6.35
74
0
49
0
74
0
49
-6.35
74
0
0
LTYPE
5
39
330
5
100
AcDbSymbolTableRecord
100
AcDbLinetypeTableRecord
2
DASHDOT2
70
0
3
Dash dot (.5x) _._._._._._._._._._._._._._._.
72
65
73
4
40
12.7
49
6.35
74
0
49
-3.175
74
0
49
0
74
0
49
-3.175
74
0
0
LTYPE
5
3A
330
5
100
AcDbSymbolTableRecord
100
AcDbLinetypeTableRecord
2
DASHDOTX2
70
0
3
Dash dot (2x) ____  .  ____  .  ____  .  ___
72
65
73
4
40
50.8
49
25.4
74
0
49
-12.7
74
0
49
0
74
0
49
-12.7
74
0
0
LTYPE
5
3B
330
5
100
AcDbSymbolTableRecord
100
AcDbLinetypeTableRecord
2
DIVIDE
70
0
3
Divide ____ . . ____ . . ____ . . ____ . . ____
72
65
73
6
40
31.75
49
12.7
74
0
49
-6.35
74
0
49
0
74
0
49
-6.35
74
0
49
0
74
0
49
-6.35
74
0
0
LTYPE
5
3C
330
5
100
AcDbSymbolTableRecord
100
AcDbLinetypeTableRecord
2
DIVIDE2
70
0
3
Divide (.5x) __..__..__..__..__..__..__..__.._
72
65
73
6
40
15.875
49
6.35
74
0
49
-3.175
74
0
49
0
74
0
49
-3.175
74
0
49
0
74
0
49
-3.175
74
0
0
LTYPE
5
3D
330
5
100
AcDbSymbolTableRecord
100
AcDbLinetypeTableRecord
2
DIVIDEX2
70
0
3
Divide (2x) ________  .  .  ________  .  .  _
72
65
73
6
40
63.5
49
25.4
74
0
49
-12.7
74
0
49
0
74
0
49
-12.7
74
0
49
0
74
0
49
-12.7
74
0
0
LTYPE
5
3E
330
5
100
AcDbSymbolTableRecord
100
AcDbLinetypeTableRecord
2
BORDER
70
0
3
Border __ __ . __ __ . __ __ . __ __ . __ __ .
72
65
73
6
40
44.45
49
12.7
74
0
49
-6.35
74
0
49
12.7
74
0
49
-6.35
74
0
49
0
74
0
49
-6.35
74
0
0
LTYPE
5
3F
330
5
100
AcDbSymbolTableRecord
100
AcDbLinetypeTableRecord
2
BORDER2
70
0
3
Border (.5x) __.__.__.__.__.__.__.__.__.__.__.
72
65
73
6
40
22.225
49
6.35
74
0
49
-3.175
74
0
49
6.35
74
0
49
-3.175
74
0
49
0
74
0
49
-3.175
74
0
0
LTYPE
5
40
330
5
100
AcDbSymbolTableRecord
100
AcDbLinetypeTableRecord
2
BORDERX2
70
0
3
Border (2x) ____  ____  .  ____  ____  .  ___
72
65
73
6
40
88.9
49
25.4
74
0
49
-12.7
74
0
49
25.4
74
0
49
-12.7
74
0
49
0
74
0
49
-12.7
74
0
0
LTYPE
5
41
330
5
100
AcDbSymbolTableRecord
100
AcDbLinetypeTableRecord
2
CENTER
70
0
3
Center ____ _ ____ _ ____ _ ____ _ ____ _ ____
72
65
73
4
40
50.8
49
31.75
74
0
49
-6.35
74
0
49
6.35
74
0
49
-6.35
74
0
0
LTYPE
5
42
330
5
100
AcDbSymbolTableRecord
100
AcDbLinetypeTableRecord
2
CENTER2
70
0
3
Center (.5x) ___ _ ___ _ ___ _ ___ _ ___ _ ___
72
65
73
4
40
28.575
49
19.05
74
0
49
-3.175
74
0
49
3.175
74
0
49
-3.175
74
0
0
LTYPE
5
43
330
5
100
AcDbSymbolTableRecord
100
AcDbLinetypeTableRecord
2
CENTERX2
70
0
3
Center (2x) ________  __  ________  __  _____
72
65
73
4
40
101.6
49
63.5
74
0
49
-12.7
74
0
49
12.7
74
0
49
-12.7
74
0
0
ENDTAB
0
TABLE
2
LAYER
5
2
330
0
100
AcDbSymbolTable
70
1
0
LAYER
5
10
330
2
100
AcDbSymbolTableRecord
100
AcDbLayerTableRecord
2
0
70
1
62
7
6
CONTINUOUS
370
0
390
F
0
LAYER
5
44
330
2
100
AcDbSymbolTableRecord
100
AcDbLayerTableRecord
2
body_1
70
1
62
7
6
CONTINUOUS
370
0
390
F
0
LAYER
5
45
330
2
100
AcDbSymbolTableRecord
100
AcDbLayerTableRecord
2
body_2
70
1
62
7
6
CONTINUOUS
370
0
390
F
0
LAYER
5
46
330
2
100
AcDbSymbolTableRecord
100
AcDbLayerTableRecord
2
build
70
0
62
2
6
DASHDOT2
370
0
390
F
0
LAYER
5
47
330
2
100
AcDbSymbolTableRecord
100
AcDbLayerTableRecord
2
finger_1
70
1
62
7
6
CONTINUOUS
370
0
390
F
0
LAYER
5
48
330
2
100
AcDbSymbolTableRecord
100
AcDbLayerTableRecord
2
finger_2
70
1
62
7
6
CONTINUOUS
370
0
390
F
0
LAYER
5
49
330
2
100
AcDbSymbolTableRecord
100
AcDbLayerTableRecord
2
finger_3
70
1
62
7
6
CONTINUOUS
370
0
390
F
0
LAYER
5
4A
330
2
100
AcDbSymbolTableRecord
100
AcDbLayerTableRecord
2
finger_4
70
1
62
7
6
CONTINUOUS
370
0
390
F
0
LAYER
5
4B
330
2
100
AcDbSymbolTableRecord
100
AcDbLayerTableRecord
2
gear_1
70
1
62
1
6
CONTINUOUS
370
0
390
F
0
LAYER
5
4C
330
2
100
AcDbSymbolTableRecord
100
AcDbLayerTableRecord
2
gear_2
70
0
62
1
6
CONTINUOUS
370
0
390
F
0
LAYER
5
4D
330
2
100
AcDbSymbolTableRecord
100
AcDbLayerTableRecord
2
lever
70
1
62
7
6
CONTINUOUS
370
0
390
F
0
LAYER
5
4E
330
2
100
AcDbSymbolTableRecord
100
AcDbLayerTableRecord
2
servo
70
1
62
5
6
CONTINUOUS
370
0
390
F
0
ENDTAB
0
TABLE
2
STYLE
5
3
330
0
100
AcDbSymbolTable
70
3
0
STYLE
5
4F
330
2
100
AcDbSymbolTableRecord
100
AcDbTextStyleTableRecord
2
Standard
70
0
40
0
41
1
50
0
71
0
42
1
3
txt
4

0
ENDTAB
0
TABLE
2
VIEW
5
6
330
0
100
AcDbSymbolTable
70
0
0
ENDTAB
0
TABLE
2
UCS
5
7
330
0
100
AcDbSymbolTable
70
0
0
ENDTAB
0
TABLE
2
APPID
5
9
330
0
100
AcDbSymbolTable
70
1
0
APPID
5
12
330
9
100
AcDbSymbolTableRecord
100
AcDbRegAppTableRecord
2
ACAD
70
0
0
ENDTAB
0
TABLE
2
DIMSTYLE
5
A
330
0
100
AcDbSymbolTable
70
1
100
AcDbDimStyleTable
71
1
0
DIMSTYLE
105
50
330
A
100
AcDbSymbolTableRecord
100
AcDbDimStyleTableRecord
2
Standard
70
0
40
1
41
2.5
42
0.625
43
0.38
44
1.25
45
0
46
0
47
0
48
0
140
2.5
141
0.09
142
0
143
25.4
144
1
145
0
146
1
147
0.625
148
0
71
0
72
0
73
0
74
1
75
0
76
0
77
0
78
0
79
0
170
0
171
2
172
0
173
0
174
0
175
0
176
0
177
0
178
0
179
0
271
4
272
4
273
2
274
2
275
0
276
0
277
2
278
46
279
0
280
0
281
0
282
0
283
1
284
0
285
0
286
0
288
0
289
3
340
Standard
341

371
-2
372
-2
0
ENDTAB
0
TABLE
2
BLOCK_RECORD
5
1
330
0
100
AcDbSymbolTable
70
2
0
BLOCK_RECORD
5
1F
330
1
100
AcDbSymbolTableRecord
100
AcDbBlockTableRecord
2
*Model_Space
70
0
280
1
281
0
0
BLOCK_RECORD
5
1E
330
1
100
AcDbSymbolTableRecord
100
AcDbBlockTableRecord
2
*Paper_Space
70
0
280
1
281
0
0
ENDTAB
0
ENDSEC
0
SECTION
2
BLOCKS
0
BLOCK
5
20
330
1F
100
AcDbEntity
8
0
100
AcDbBlockBegin
2
*Model_Space
70
0
10
0
20
0
30
0
3
*Model_Space
1

0
ENDBLK
5
21
330
1F
100
AcDbEntity
8
0
100
AcDbBlockEnd
0
BLOCK
5
1C
330
1B
100
AcDbEntity
8
0
100
AcDbBlockBegin
2
*Paper_Space
70
0
10
0
20
0
30
0
3
*Paper_Space
1

0
ENDBLK
5
1D
330
1F
100
AcDbEntity
8
0
100
AcDbBlockEnd
0
ENDSEC
0
SECTION
2
ENTITIES
0
LINE
5
51
100
AcDbEntity
8
finger_3
6
ByLayer
62
256
370
-1
100
AcDbLine
10
-2
20
20
11
0
21
36
0
LINE
5
52
100
AcDbEntity
8
finger_3
6
ByLayer
62
256
370
-1
100
AcDbLine
10
0
20
36
11
0
21
40
0
CIRCLE
5
53
100
AcDbEntity
8
body_1
6
ByLayer
62
256
370
-1
100
AcDbCircle
10
-22
20
-10
40
2
0
CIRCLE
5
54
100
AcDbEntity
8
body_1
6
ByLayer
62
256
370
-1
100
AcDbCircle
10
-10
20
-10
40
2
0
CIRCLE
5
55
100
AcDbEntity
8
body_1
6
ByLayer
62
256
370
-1
100
AcDbCircle
10
10
20
-10
40
2
0
CIRCLE
5
56
100
AcDbEntity
8
body_1
6
ByLayer
62
256
370
-1
100
AcDbCircle
10
22
20
-10
40
2
0
CIRCLE
5
57
100
AcDbEntity
8
lever
6
ByLayer
62
256
370
-1
100
AcDbCircle
10
-4
20
4
40
2
0
CIRCLE
5
58
100
AcDbEntity
8
lever
6
ByLayer
62
256
370
-1
100
AcDbCircle
10
-10
20
-10
40
2
0
LINE
5
59
100
AcDbEntity
8
lever
6
ByLayer
62
256
370
-1
100
AcDbLine
10
-7.67658012006
20
5.57567719434
11
-13.6765800478
21
-8.42432263709
0
LINE
5
5A
100
AcDbEntity
8
lever
6
ByLayer
62
256
370
-1
100
AcDbLine
10
-6.32341980767
20
-11.5756770257
11
-0.323419905486
21
2.42432274605
0
ARC
5
5B
100
AcDbEntity
8
lever
6
ByLayer
62
256
370
-1
100
AcDbCircle
10
-4
20
4
40
4
100
AcDbArc
50
336.801408557
51
156.801409486
0
ARC
5
5C
100
AcDbEntity
8
lever
6
ByLayer
62
256
370
-1
100
AcDbCircle
10
-10
20
-10
40
4
100
AcDbArc
50
156.801406859
51
336.801412114
0
CIRCLE
5
5D
100
AcDbEntity
8
lever
6
ByLayer
62
256
370
-1
100
AcDbCircle
10
-16
20
4
40
2
0
CIRCLE
5
5E
100
AcDbEntity
8
lever
6
ByLayer
62
256
370
-1
100
AcDbCircle
10
-22
20
-10
40
2
0
LINE
5
5F
100
AcDbEntity
8
lever
6
ByLayer
62
256
370
-1
100
AcDbLine
10
-19.6765801201
20
5.57567719434
11
-25.6765800478
21
-8.42432263709
0
LINE
5
60
100
AcDbEntity
8
lever
6
ByLayer
62
256
370
-1
100
AcDbLine
10
-18.3234198077
20
-11.5756770257
11
-12.3234199055
21
2.42432274605
0
ARC
5
61
100
AcDbEntity
8
lever
6
ByLayer
62
256
370
-1
100
AcDbCircle
10
-16
20
4
40
4
100
AcDbArc
50
336.801408557
51
156.801409486
0
ARC
5
62
100
AcDbEntity
8
lever
6
ByLayer
62
256
370
-1
100
AcDbCircle
10
-22
20
-10
40
4
100
AcDbArc
50
156.801406859
51
336.801412114
0
LINE
5
63
100
AcDbEntity
8
build
6
ByLayer
62
256
370
-1
100
AcDbLine
10
0
20
10
11
0
21
-42
0
LINE
5
64
100
AcDbEntity
8
servo
6
ByLayer
62
256
370
-1
100
AcDbLine
10
17.1
20
-15
11
21.5
21
-15
0
LINE
5
65
100
AcDbEntity
8
servo
6
ByLayer
62
256
370
-1
100
AcDbLine
10
21.5
20
-15
11
21.5
21
-13.00002
0
LINE
5
66
100
AcDbEntity
8
servo
6
ByLayer
62
256
370
-1
100
AcDbLine
10
21.5
20
-13.00002
11
17.1
21
-13.00002
0
LINE
5
67
100
AcDbEntity
8
servo
6
ByLayer
62
256
370
-1
100
AcDbLine
10
17.1
20
-13.00002
11
17.1
21
-10.60001
0
LINE
5
68
100
AcDbEntity
8
servo
6
ByLayer
62
256
370
-1
100
AcDbLine
10
17.1
20
-10.60001
11
9.09999
21
-10.60001
0
LINE
5
69
100
AcDbEntity
8
servo
6
ByLayer
62
256
370
-1
100
AcDbLine
10
9.09999
20
-10.60001
11
9.09999
21
-5.60001
0
LINE
5
6A
100
AcDbEntity
8
servo
6
ByLayer
62
256
370
-1
100
AcDbLine
10
9.09999
20
-5.60001
11
2.39999
21
-5.60001
0
LINE
5
6B
100
AcDbEntity
8
servo
6
ByLayer
62
256
370
-1
100
AcDbLine
10
2.39999
20
-5.60001
11
2.39999
21
-2.2
0
LINE
5
6C
100
AcDbEntity
8
servo
6
ByLayer
62
256
370
-1
100
AcDbLine
10
2.39999
20
-2.2
11
-2.38768
21
-2.2
0
LINE
5
6D
100
AcDbEntity
8
servo
6
ByLayer
62
256
370
-1
100
AcDbLine
10
-2.38768
20
-2.2
11
-2.38768
21
-5.60001
0
LINE
5
6E
100
AcDbEntity
8
servo
6
ByLayer
62
256
370
-1
100
AcDbLine
10
-2.38768
20
-5.60001
11
-6.09491
21
-5.60001
0
LINE
5
6F
100
AcDbEntity
8
servo
6
ByLayer
62
256
370
-1
100
AcDbLine
10
-6.09491
20
-5.60001
11
-6.09491
21
-10.60001
0
LINE
5
70
100
AcDbEntity
8
servo
6
ByLayer
62
256
370
-1
100
AcDbLine
10
-6.09491
20
-10.60001
11
-6.09999
21
-10.60001
0
LINE
5
71
100
AcDbEntity
8
servo
6
ByLayer
62
256
370
-1
100
AcDbLine
10
-6.09999
20
-10.60001
11
-6.09999
21
-13.00002
0
LINE
5
72
100
AcDbEntity
8
servo
6
ByLayer
62
256
370
-1
100
AcDbLine
10
-6.09999
20
-13.00002
11
-10.5
21
-13.00002
0
LINE
5
73
100
AcDbEntity
8
servo
6
ByLayer
62
256
370
-1
100
AcDbLine
10
-10.5
20
-13.00002
11
-10.5
21
-15
0
LINE
5
74
100
AcDbEntity
8
servo
6
ByLayer
62
256
370
-1
100
AcDbLine
10
-10.5
20
-15
11
-6.09999
21
-15
0
LINE
5
75
100
AcDbEntity
8
servo
6
ByLayer
62
256
370
-1
100
AcDbLine
10
-6.09999
20
-15
11
-6.09999
21
-34.3
0
LINE
5
76
100
AcDbEntity
8
servo
6
ByLayer
62
256
370
-1
100
AcDbLine
10
-6.09999
20
-34.3
11
17.1
21
-34.3
0
LINE
5
77
100
AcDbEntity
8
servo
6
ByLayer
62
256
370
-1
100
AcDbLine
10
17.1
20
-34.3
11
17.1
21
-15
0
LINE
5
78
100
AcDbEntity
8
gear_1
6
ByLayer
62
256
370
-1
100
AcDbLine
10
-6
20
0
11
6
21
0
0
LINE
5
79
100
AcDbEntity
8
gear_1
6
ByLayer
62
256
370
-1
100
AcDbLine
10
-6
20
0
11
-6
21
-5
0
LINE
5
7A
100
AcDbEntity
8
gear_1
6
ByLayer
62
256
370
-1
100
AcDbLine
10
-6
20
-5
11
6
21
-5
0
LINE
5
7B
100
AcDbEntity
8
gear_1
6
ByLayer
62
256
370
-1
100
AcDbLine
10
6
20
0
11
6
21
-5
0
LINE
5
7C
100
AcDbEntity
8
gear_1
6
DASHDOT2
62
256
370
-1
100
AcDbLine
10
5
20
0
11
5
21
-5
0
LINE
5
7D
100
AcDbEntity
8
gear_1
6
DASHDOT2
62
256
370
-1
100
AcDbLine
10
-5
20
0
11
-5
21
-5
0
LINE
5
7E
100
AcDbEntity
8
finger_3
6
ByLayer
62
256
370
-1
100
AcDbLine
10
0
20
10
11
-2
21
20
0
CIRCLE
5
7F
100
AcDbEntity
8
finger_1
6
ByLayer
62
256
370
-1
100
AcDbCircle
10
-16
20
4
40
2
0
CIRCLE
5
80
100
AcDbEntity
8
finger_1
6
ByLayer
62
256
370
-1
100
AcDbCircle
10
-4
20
4
40
2
0
CIRCLE
5
81
100
AcDbEntity
8
finger_2
6
ByLayer
62
256
370
-1
100
AcDbCircle
10
-16
20
4
40
2
0
CIRCLE
5
82
100
AcDbEntity
8
finger_2
6
ByLayer
62
256
370
-1
100
AcDbCircle
10
-4
20
4
40
2
0
ARC
5
83
100
AcDbEntity
8
finger_1
6
ByLayer
62
256
370
-1
100
AcDbCircle
10
-18
20
-3
40
2
100
AcDbArc
50
180
51
270
0
LINE
5
84
100
AcDbEntity
8
finger_2
6
ByLayer
62
256
370
-1
100
AcDbLine
10
18
20
0
11
18
21
0
0
ARC
5
85
100
AcDbEntity
8
finger_3
6
ByLayer
62
256
370
-1
100
AcDbCircle
10
-12
20
6.11145618
40
8
100
AcDbArc
50
153.434948823
51
180
0
LINE
5
86
100
AcDbEntity
8
finger_3
6
ByLayer
62
256
370
-1
100
AcDbLine
10
-19.155417528
20
9.689164944
11
-4.5527864045
21
38.894427191
0
LINE
5
87
100
AcDbEntity
8
finger_3
6
ByLayer
62
256
370
-1
100
AcDbLine
10
0
20
40
11
-2.7639320225
21
40
0
ARC
5
88
100
AcDbEntity
8
finger_3
6
ByLayer
62
256
370
-1
100
AcDbCircle
10
-2.7639320225
20
38
40
2
100
AcDbArc
50
90
51
153.434948823
0
CIRCLE
5
89
100
AcDbEntity
8
finger_4
6
ByLayer
62
256
370
-1
100
AcDbCircle
10
-16
20
4
40
2
0
CIRCLE
5
8A
100
AcDbEntity
8
finger_4
6
ByLayer
62
256
370
-1
100
AcDbCircle
10
-4
20
4
40
2
0
ARC
5
8B
100
AcDbEntity
8
body_2
6
ByLayer
62
256
370
-1
100
AcDbCircle
10
-17
20
-13.7513377315
40
10
100
AcDbArc
50
180
51
205.346175942
0
ARC
5
8C
100
AcDbEntity
8
body_2
6
ByLayer
62
256
370
-1
100
AcDbCircle
10
17
20
-13.7513377315
40
10
100
AcDbArc
50
334.653824058
51
0
0
ARC
5
8D
100
AcDbEntity
8
body_1
6
ByLayer
62
256
370
-1
100
AcDbCircle
10
-17
20
-13.7513377315
40
10
100
AcDbArc
50
180
51
205.346175942
0
ARC
5
8E
100
AcDbEntity
8
body_1
6
ByLayer
62
256
370
-1
100
AcDbCircle
10
17
20
-13.7513377315
40
10
100
AcDbArc
50
334.653824058
51
0
0
CIRCLE
5
8F
100
AcDbEntity
8
finger_3
6
ByLayer
62
256
370
-1
100
AcDbCircle
10
-16
20
4
40
2
0
CIRCLE
5
90
100
AcDbEntity
8
finger_3
6
ByLayer
62
256
370
-1
100
AcDbCircle
10
-4
20
4
40
2
0
LINE
5
91
100
AcDbEntity
8
build
6
ByLayer
62
256
370
-1
100
AcDbLine
10
-4
20
4
11
-10
21
-10
0
LINE
5
92
100
AcDbEntity
8
build
6
ByLayer
62
256
370
-1
100
AcDbLine
10
-16
20
4
11
-10
21
-10
0
LINE
5
93
100
AcDbEntity
8
build
6
ByLayer
62
256
370
-1
100
AcDbLine
10
5.5
20
-5.4
11
5.5
21
-34.5
0
ARC
5
94
100
AcDbEntity
8
finger_1
6
ByLayer
62
256
370
-1
100
AcDbCircle
10
-4
20
4
40
4
100
AcDbArc
50
0
51
90
0
LINE
5
95
100
AcDbEntity
8
finger_1
6
ByLayer
62
256
370
-1
100
AcDbLine
10
-20
20
-3
11
-20
21
4
0
LINE
5
96
100
AcDbEntity
8
finger_1
6
ByLayer
62
256
370
-1
100
AcDbLine
10
-16
20
8
11
-4
21
8
0
ARC
5
97
100
AcDbEntity
8
finger_1
6
ByLayer
62
256
370
-1
100
AcDbCircle
10
-16
20
4
40
4
100
AcDbArc
50
90
51
180
0
ARC
5
98
100
AcDbEntity
8
finger_2
6
ByLayer
62
256
370
-1
100
AcDbCircle
10
-16
20
4
40
4
100
AcDbArc
50
90
51
180
0
LINE
5
99
100
AcDbEntity
8
finger_2
6
ByLayer
62
256
370
-1
100
AcDbLine
10
-16
20
8
11
-4
21
8
0
ARC
5
9A
100
AcDbEntity
8
finger_2
6
ByLayer
62
256
370
-1
100
AcDbCircle
10
-4
20
4
40
4
100
AcDbArc
50
0
51
90
0
LINE
5
9B
100
AcDbEntity
8
finger_2
6
ByLayer
62
256
370
-1
100
AcDbLine
10
-20
20
4
11
-20
21
4
0
ARC
5
9C
100
AcDbEntity
8
finger_2
6
ByLayer
62
256
370
-1
100
AcDbCircle
10
-16
20
4
40
4
100
AcDbArc
50
180
51
270
0
LINE
5
9D
100
AcDbEntity
8
finger_3
6
ByLayer
62
256
370
-1
100
AcDbLine
10
-20
20
6.11145618
11
-20
21
4
0
ARC
5
9E
100
AcDbEntity
8
finger_3
6
ByLayer
62
256
370
-1
100
AcDbCircle
10
-16
20
4
40
4
100
AcDbArc
50
180
51
270
0
LINE
5
9F
100
AcDbEntity
8
finger_3
6
ByLayer
62
256
370
-1
100
AcDbLine
10
-16
20
0
11
-4
21
0
0
LINE
5
A0
100
AcDbEntity
8
finger_3
6
ByLayer
62
256
370
-1
100
AcDbLine
10
9.75890418071e-17
20
4
11
0
21
10
0
ARC
5
A1
100
AcDbEntity
8
finger_3
6
ByLayer
62
256
370
-1
100
AcDbCircle
10
-4
20
4
40
4
100
AcDbArc
50
270
51
0
0
LINE
5
A2
100
AcDbEntity
8
finger_4
6
ByLayer
62
256
370
-1
100
AcDbLine
10
-20
20
4
11
-20
21
4
0
ARC
5
A3
100
AcDbEntity
8
finger_4
6
ByLayer
62
256
370
-1
100
AcDbCircle
10
-16
20
4
40
4
100
AcDbArc
50
90
51
180
0
LINE
5
A4
100
AcDbEntity
8
finger_4
6
ByLayer
62
256
370
-1
100
AcDbLine
10
-16
20
8
11
-4
21
8
0
LINE
5
A5
100
AcDbEntity
8
finger_4
6
ByLayer
62
256
370
-1
100
AcDbLine
10
-1.53080849893e-17
20
4
11
-1.53080849893e-17
21
4
0
ARC
5
A6
100
AcDbEntity
8
finger_4
6
ByLayer
62
256
370
-1
100
AcDbCircle
10
-4
20
4
40
4
100
AcDbArc
50
0
51
90
0
LINE
5
A7
100
AcDbEntity
8
finger_1
6
ByLayer
62
256
370
-1
100
AcDbLine
10
-1.53080849893e-17
20
4
11
-1.53080849893e-17
21
4
0
ARC
5
A8
100
AcDbEntity
8
finger_1
6
ByLayer
62
256
370
-1
100
AcDbCircle
10
3
20
4
40
3
100
AcDbArc
50
180
51
270
0
LINE
5
A9
100
AcDbEntity
8
finger_2
6
ByLayer
62
256
370
-1
100
AcDbLine
10
-1.53080849893e-17
20
4
11
-1.53080849893e-17
21
4
0
ARC
5
AA
100
AcDbEntity
8
finger_2
6
ByLayer
62
256
370
-1
100
AcDbCircle
10
3
20
4
40
3
100
AcDbArc
50
180
51
270
0
LINE
5
AB
100
AcDbEntity
8
finger_4
6
ByLayer
62
256
370
-1
100
AcDbLine
10
0
20
4
11
0
21
4
0
ARC
5
AC
100
AcDbEntity
8
finger_4
6
ByLayer
62
256
370
-1
100
AcDbCircle
10
-3
20
4
40
3
100
AcDbArc
50
270
51
0
0
LINE
5
AD
100
AcDbEntity
8
finger_4
6
ByLayer
62
256
370
-1
100
AcDbLine
10
-20
20
4
11
-20
21
4
0
LINE
5
AE
100
AcDbEntity
8
finger_4
6
ByLayer
62
256
370
-1
100
AcDbLine
10
-17
20
1
11
-3
21
1
0
ARC
5
AF
100
AcDbEntity
8
finger_4
6
ByLayer
62
256
370
-1
100
AcDbCircle
10
-17
20
4
40
3
100
AcDbArc
50
180
51
270
0
ARC
5
B0
100
AcDbEntity
8
body_2
6
ByLayer
62
256
370
-1
100
AcDbCircle
10
-23.5
20
-14
40
1
100
AcDbArc
50
180
51
270
0
ARC
5
B1
100
AcDbEntity
8
body_2
6
ByLayer
62
256
370
-1
100
AcDbCircle
10
23.5
20
-14
40
1
100
AcDbArc
50
270
51
0
0
LINE
5
B2
100
AcDbEntity
8
body_2
6
ByLayer
62
256
370
-1
100
AcDbLine
10
27
20
-13.7513377315
11
27
21
-7
0
ARC
5
B3
100
AcDbEntity
8
body_2
6
ByLayer
62
256
370
-1
100
AcDbCircle
10
26
20
-7
40
1
100
AcDbArc
50
0
51
90
0
LINE
5
B4
100
AcDbEntity
8
body_2
6
ByLayer
62
256
370
-1
100
AcDbLine
10
-27
20
-7
11
-27
21
-13.7513377315
0
ARC
5
B5
100
AcDbEntity
8
body_2
6
ByLayer
62
256
370
-1
100
AcDbCircle
10
-26
20
-7
40
1
100
AcDbArc
50
90
51
180
0
LINE
5
B6
100
AcDbEntity
8
body_2
6
ByLayer
62
256
370
-1
100
AcDbLine
10
-7.25
20
-15
11
-23.5
21
-15
0
LINE
5
B7
100
AcDbEntity
8
body_2
6
ByLayer
62
256
370
-1
100
AcDbLine
10
-6.25
20
-16
11
-6.25
21
-35
0
ARC
5
B8
100
AcDbEntity
8
body_2
6
ByLayer
62
256
370
-1
100
AcDbCircle
10
-7.25
20
-16
40
1
100
AcDbArc
50
0
51
90
0
LINE
5
B9
100
AcDbEntity
8
body_2
6
ByLayer
62
256
370
-1
100
AcDbLine
10
18.25
20
-15
11
23.5
21
-15
0
ARC
5
BA
100
AcDbEntity
8
body_2
6
ByLayer
62
256
370
-1
100
AcDbCircle
10
18.25
20
-16
40
1
100
AcDbArc
50
90
51
180
0
LINE
5
BB
100
AcDbEntity
8
body_1
6
ByLayer
62
256
370
-1
100
AcDbLine
10
27
20
-13.7513377315
11
27
21
-7
0
ARC
5
BC
100
AcDbEntity
8
body_1
6
ByLayer
62
256
370
-1
100
AcDbCircle
10
26
20
-7
40
1
100
AcDbArc
50
360
51
90
0
LINE
5
BD
100
AcDbEntity
8
body_1
6
ByLayer
62
256
370
-1
100
AcDbLine
10
-27
20
-7
11
-27
21
-13.7513377315
0
LINE
5
BE
100
AcDbEntity
8
body_1
6
ByLayer
62
256
370
-1
100
AcDbLine
10
-26
20
-6
11
26
21
-6
0
ARC
5
BF
100
AcDbEntity
8
body_1
6
ByLayer
62
256
370
-1
100
AcDbCircle
10
-26
20
-7
40
1
100
AcDbArc
50
90
51
180
0
LINE
5
C0
100
AcDbEntity
8
body_1
6
ByLayer
62
256
370
-1
100
AcDbLine
10
26.0373783889
20
-18.0322011789
11
18.2709064682
21
-34.4280863447
0
ARC
5
C1
100
AcDbEntity
8
body_1
6
ByLayer
62
256
370
-1
100
AcDbCircle
10
17.3671686293
20
-34
40
1
100
AcDbArc
50
270
51
334.653824058
0
ARC
5
C2
100
AcDbEntity
8
body_1
6
ByLayer
62
256
370
-1
100
AcDbCircle
10
-17.3671686293
20
-34
40
1
100
AcDbArc
50
205.346175942
51
270
0
LINE
5
C3
100
AcDbEntity
8
body_2
6
ByLayer
62
256
370
-1
100
AcDbLine
10
-17.3671686293
20
-35
11
-6.25
21
-35
0
LINE
5
C4
100
AcDbEntity
8
body_2
6
ByLayer
62
256
370
-1
100
AcDbLine
10
-18.2709064682
20
-34.4280863447
11
-26.0373783889
21
-18.0322011789
0
ARC
5
C5
100
AcDbEntity
8
body_2
6
ByLayer
62
256
370
-1
100
AcDbCircle
10
-17.3671686293
20
-34
40
1
100
AcDbArc
50
205.346175942
51
270
0
LINE
5
C6
100
AcDbEntity
8
body_2
6
ByLayer
62
256
370
-1
100
AcDbLine
10
24.5
20
-14
11
24.5
21
-6.5
0
LINE
5
C7
100
AcDbEntity
8
body_2
6
ByLayer
62
256
370
-1
100
AcDbLine
10
25
20
-6
11
26
21
-6
0
ARC
5
C8
100
AcDbEntity
8
body_2
6
ByLayer
62
256
370
-1
100
AcDbCircle
10
25
20
-6.5
40
0.5
100
AcDbArc
50
90
51
180
0
LINE
5
C9
100
AcDbEntity
8
body_2
6
ByLayer
62
256
370
-1
100
AcDbLine
10
-24.5
20
-6.5
11
-24.5
21
-14
0
LINE
5
CA
100
AcDbEntity
8
body_2
6
ByLayer
62
256
370
-1
100
AcDbLine
10
-25
20
-6
11
-26
21
-6
0
ARC
5
CB
100
AcDbEntity
8
body_2
6
ByLayer
62
256
370
-1
100
AcDbCircle
10
-25
20
-6.5
40
0.5
100
AcDbArc
50
0
51
90
0
LINE
5
CC
100
AcDbEntity
8
body_2
6
ByLayer
62
256
370
-1
100
AcDbLine
10
26.0373783889
20
-18.0322011789
11
18.2709064683
21
-34.4280863447
0
ARC
5
CD
100
AcDbEntity
8
body_2
6
ByLayer
62
256
370
-1
100
AcDbCircle
10
17.3671686294
20
-34
40
1
100
AcDbArc
50
270
51
334.653824058
0
LINE
5
CE
100
AcDbEntity
8
body_2
6
ByLayer
62
256
370
-1
100
AcDbLine
10
17.25
20
-35
11
17.3671686294
21
-35
0
LINE
5
CF
100
AcDbEntity
8
body_2
6
ByLayer
62
256
370
-1
100
AcDbLine
10
17.25
20
-16
11
17.25
21
-35
0
LINE
5
D0
100
AcDbEntity
8
body_1
6
ByLayer
62
256
370
-1
100
AcDbLine
10
-17.3671682163
20
-35
11
17.3671686293
21
-35
0
LINE
5
D1
100
AcDbEntity
8
body_1
6
ByLayer
62
256
370
-1
100
AcDbLine
10
-18.2709098336
20
-34.42807924
11
-26.0373783889
21
-18.0322011789
0
ARC
5
D2
100
AcDbEntity
8
finger_1
6
ByLayer
62
256
370
-1
100
AcDbCircle
10
22
20
0
40
1
100
AcDbArc
50
0
51
90
0
LINE
5
D3
100
AcDbEntity
8
finger_1
6
ByLayer
62
256
370
-1
100
AcDbLine
10
23
20
-4
11
23
21
0
0
ARC
5
D4
100
AcDbEntity
8
finger_1
6
ByLayer
62
256
370
-1
100
AcDbCircle
10
22
20
-4
40
1
100
AcDbArc
50
270
51
0
0
LINE
5
D5
100
AcDbEntity
8
finger_1
6
ByLayer
62
256
370
-1
100
AcDbLine
10
22
20
1
11
3
21
1
0
LINE
5
D6
100
AcDbEntity
8
finger_1
6
ByLayer
62
256
370
-1
100
AcDbLine
10
-18
20
-5
11
22
21
-5
0
ARC
5
D7
100
AcDbEntity
8
finger_2
6
ByLayer
62
256
370
-1
100
AcDbCircle
10
22
20
0
40
1
100
AcDbArc
50
0
51
90
0
LINE
5
D8
100
AcDbEntity
8
finger_2
6
ByLayer
62
256
370
-1
100
AcDbLine
10
22
20
1
11
3
21
1
0
LINE
5
D9
100
AcDbEntity
8
finger_2
6
ByLayer
62
256
370
-1
100
AcDbLine
10
-16
20
0
11
23
21
0
0
CIRCLE
5
DA
100
AcDbEntity
8
build
6
ByLayer
62
256
370
-1
100
AcDbCircle
10
0
20
0
40
2.45
0
CIRCLE
5
DB
100
AcDbEntity
8
build
6
ByLayer
62
256
370
-1
100
AcDbCircle
10
0
20
0
40
2.175
0
LINE
5
DC
100
AcDbEntity
8
build
6
ByLayer
62
256
370
-1
100
AcDbLine
10
6.38378239159e-16
20
-1.11022302463e-16
11
3
21
-1.11022302463e-16
0
LINE
5
DD
100
AcDbEntity
8
build
6
ByLayer
62
256
370
-1
100
AcDbLine
10
6.38378239159e-16
20
-1.11022302463e-16
11
2.96649247868
21
0.44712679853
0
LINE
5
DE
100
AcDbEntity
8
build
6
ByLayer
62
256
370
-1
100
AcDbLine
10
6.93889390391e-16
20
1.11022302463e-16
11
2.96649247868
21
-0.44712679853
0
LINE
5
DF
100
AcDbEntity
8
build
6
ByLayer
62
256
370
-1
100
AcDbLine
10
2.56621578056e-16
20
-1.11022302463e-16
11
2.99161139154
21
0.22419028076
0
LINE
5
E0
100
AcDbEntity
8
build
6
ByLayer
62
256
370
-1
100
AcDbLine
10
2.2263944887e-15
20
-1.11022302463e-16
11
2.99161139154
21
-0.22419028076
0
LINE
5
E1
100
AcDbEntity
8
build
6
ByLayer
62
256
370
-1
100
AcDbLine
10
4.99368771511e-16
20
-1.11022302463e-16
11
2.99790211437
21
0.112173582829
0
LINE
5
E2
100
AcDbEntity
8
build
6
ByLayer
62
256
370
-1
100
AcDbLine
10
1.97670427872e-15
20
-1.11022302463e-16
11
2.99790211437
21
-0.112173582829
0
LINE
5
E3
100
AcDbEntity
8
gear_2
6
ByLayer
62
256
370
-1
100
AcDbLine
10
2.17347903291
20
0.0813258475512
11
2.17347903291
21
-0.0813258475512
0
LINE
5
E4
100
AcDbEntity
8
gear_2
6
ByLayer
62
256
370
-1
100
AcDbLine
10
2.17347903291
20
-0.0813258475512
11
2.44314930309
21
-0.183088729287
0
LINE
5
E5
100
AcDbEntity
8
gear_2
6
ByLayer
62
256
370
-1
100
AcDbLine
10
2.44314930309
20
-0.183088729287
11
2.42263552425
21
-0.365153552133
0
LINE
5
E6
100
AcDbEntity
8
gear_2
6
ByLayer
62
256
370
-1
100
AcDbLine
10
2.17347903291
20
0.0813258475512
11
2.44314930309
21
0.183088729287
0
LINE
5
E7
100
AcDbEntity
8
gear_2
6
ByLayer
62
256
370
-1
100
AcDbLine
10
2.44314930309
20
0.183088729287
11
2.42263552425
21
0.365153552133
0
LINE
5
E8
100
AcDbEntity
8
gear_2
6
ByLayer
62
256
370
-1
100
AcDbLine
10
2.05294570609
20
0.718358495353
11
2.10088825111
21
0.562932994559
0
LINE
5
E9
100
AcDbEntity
8
gear_2
6
ByLayer
62
256
370
-1
100
AcDbLine
10
2.10088825111
20
0.562932994559
11
2.38857297705
21
0.545178074841
0
LINE
5
EA
100
AcDbEntity
8
gear_2
6
ByLayer
62
256
370
-1
100
AcDbLine
10
2.38857297705
20
0.545178074841
11
2.42263525112
21
0.365155364258
0
LINE
5
EB
100
AcDbEntity
8
gear_2
6
ByLayer
62
256
370
-1
100
AcDbLine
10
2.05294570609
20
0.718358495353
11
2.28064001466
21
0.895087215613
0
LINE
5
EC
100
AcDbEntity
8
gear_2
6
ByLayer
62
256
370
-1
100
AcDbLine
10
2.28064001466
20
0.895087215613
11
2.20737293123
21
1.06301681195
0
LINE
5
ED
100
AcDbEntity
8
gear_2
6
ByLayer
62
256
370
-1
100
AcDbLine
10
1.74999823882
20
1.29156152162
11
1.8416234022
21
1.15717252148
0
LINE
5
EE
100
AcDbEntity
8
gear_2
6
ByLayer
62
256
370
-1
100
AcDbLine
10
1.8416234022
20
1.15717252148
11
2.12176040667
21
1.22500317415
0
LINE
5
EF
100
AcDbEntity
8
gear_2
6
ByLayer
62
256
370
-1
100
AcDbLine
10
2.12176040667
20
1.22500317415
11
2.20737213609
21
1.06301846306
0
LINE
5
F0
100
AcDbEntity
8
gear_2
6
ByLayer
62
256
370
-1
100
AcDbLine
10
1.74999823882
20
1.29156152162
11
1.91548484683
21
1.52755288011
0
LINE
5
F1
100
AcDbEntity
8
gear_2
6
ByLayer
62
256
370
-1
100
AcDbLine
10
1.91548484683
20
1.52755288011
11
1.79597459302
21
1.66642589431
0
LINE
5
F2
100
AcDbEntity
8
gear_2
6
ByLayer
62
256
370
-1
100
AcDbLine
10
1.29155497663
20
1.75000306924
11
1.4187214201
21
1.64859168145
0
LINE
5
F3
100
AcDbEntity
8
gear_2
6
ByLayer
62
256
370
-1
100
AcDbLine
10
1.4187214201
20
1.64859168145
11
1.66641917737
21
1.79598082542
0
LINE
5
F4
100
AcDbEntity
8
gear_2
6
ByLayer
62
256
370
-1
100
AcDbLine
10
1.66641917737
20
1.79598082542
11
1.79597334653
21
1.6664272377
0
LINE
5
F5
100
AcDbEntity
8
gear_2
6
ByLayer
62
256
370
-1
100
AcDbLine
10
1.29155497663
20
1.75000306924
11
1.38012959977
21
2.02428809408
0
LINE
5
F6
100
AcDbEntity
8
gear_2
6
ByLayer
62
256
370
-1
100
AcDbLine
10
1.38012959977
20
2.02428809408
11
1.22499523877
21
2.12176498816
0
LINE
5
F7
100
AcDbEntity
8
gear_2
6
ByLayer
62
256
370
-1
100
AcDbLine
10
0.718350817348
20
2.05294839273
11
0.869759188285
21
1.99352550884
0
LINE
5
F8
100
AcDbEntity
8
gear_2
6
ByLayer
62
256
370
-1
100
AcDbLine
10
0.869759188285
20
1.99352550884
11
1.06300855639
21
2.20737690688
0
LINE
5
F9
100
AcDbEntity
8
gear_2
6
ByLayer
62
256
370
-1
100
AcDbLine
10
1.06300855639
20
2.20737690688
11
1.2249936517
21
2.12176590445
0
LINE
5
FA
100
AcDbEntity
8
gear_2
6
ByLayer
62
256
370
-1
100
AcDbLine
10
0.718350817348
20
2.05294839273
11
0.722143172589
21
2.34115553483
0
LINE
5
FB
100
AcDbEntity
8
gear_2
6
ByLayer
62
256
370
-1
100
AcDbLine
10
0.722143172589
20
2.34115553483
11
0.545169141595
21
2.388575016
0
LINE
5
FC
100
AcDbEntity
8
gear_2
6
ByLayer
62
256
370
-1
100
AcDbLine
10
0.0813177187577
20
2.17347933706
11
0.24351465219
21
2.16132496728
0
LINE
5
FD
100
AcDbEntity
8
gear_2
6
ByLayer
62
256
370
-1
100
AcDbLine
10
0.24351465219
20
2.16132496728
11
0.365144491494
21
2.42263688991
0
LINE
5
FE
100
AcDbEntity
8
gear_2
6
ByLayer
62
256
370
-1
100
AcDbLine
10
0.365144491494
20
2.42263688991
11
0.545167354946
21
2.38857542378
0
LINE
5
FF
100
AcDbEntity
8
gear_2
6
ByLayer
62
256
370
-1
100
AcDbLine
10
0.0813177187577
20
2.17347933706
11
-9.16297902906e-06
21
2.44999999998
0
LINE
5
100
100
AcDbEntity
8
gear_2
6
ByLayer
62
256
370
-1
100
AcDbLine
10
-9.16297902906e-06
20
2.44999999998
11
-0.183097866643
21
2.44314861833
0
LINE
5
101
100
AcDbEntity
8
gear_2
6
ByLayer
62
256
370
-1
100
AcDbLine
10
-0.562940851859
20
2.10088614573
11
-0.404367336777
21
2.13708026451
0
LINE
5
102
100
AcDbEntity
8
gear_2
6
ByLayer
62
256
370
-1
100
AcDbLine
10
-0.404367336777
20
2.13708026451
11
-0.36516442489
21
2.42263388542
0
LINE
5
103
100
AcDbEntity
8
gear_2
6
ByLayer
62
256
370
-1
100
AcDbLine
10
-0.36516442489
20
2.42263388542
11
-0.183099694112
21
2.44314848137
0
LINE
5
104
100
AcDbEntity
8
gear_2
6
ByLayer
62
256
370
-1
100
AcDbLine
10
-0.562940851859
20
2.10088614573
11
-0.722160684372
21
2.34115013315
0
LINE
5
105
100
AcDbEntity
8
gear_2
6
ByLayer
62
256
370
-1
100
AcDbLine
10
-0.722160684372
20
2.34115013315
11
-0.895095745181
21
2.28063666702
0
LINE
5
106
100
AcDbEntity
8
gear_2
6
ByLayer
62
256
370
-1
100
AcDbLine
10
-1.15717940913
20
1.84161907437
11
-1.01631933503
21
1.92294565946
0
LINE
5
107
100
AcDbEntity
8
gear_2
6
ByLayer
62
256
370
-1
100
AcDbLine
10
-1.01631933503
20
1.92294565946
11
-1.0630267186
21
2.2073681604
0
LINE
5
108
100
AcDbEntity
8
gear_2
6
ByLayer
62
256
370
-1
100
AcDbLine
10
-1.0630267186
20
2.2073681604
11
-0.895097451091
21
2.28063599749
0
LINE
5
109
100
AcDbEntity
8
gear_2
6
ByLayer
62
256
370
-1
100
AcDbLine
10
-1.15717940913
20
1.84161907437
11
-1.38014474137
21
2.02427777068
0
LINE
5
10A
100
AcDbEntity
8
gear_2
6
ByLayer
62
256
370
-1
100
AcDbLine
10
-1.38014474137
20
2.02427777068
11
-1.527560044
21
1.91547913379
0
LINE
5
10B
100
AcDbEntity
8
gear_2
6
ByLayer
62
256
370
-1
100
AcDbLine
10
-1.64859698744
20
1.41871525437
11
-1.53796645217
21
1.53794804594
0
LINE
5
10C
100
AcDbEntity
8
gear_2
6
ByLayer
62
256
370
-1
100
AcDbLine
10
-1.53796645217
20
1.53794804594
11
-1.66643395461
21
1.7959671141
0
LINE
5
10D
100
AcDbEntity
8
gear_2
6
ByLayer
62
256
370
-1
100
AcDbLine
10
-1.66643395461
20
1.7959671141
11
-1.52756147677
21
1.91547799118
0
LINE
5
10E
100
AcDbEntity
8
gear_2
6
ByLayer
62
256
370
-1
100
AcDbLine
10
-1.64859698744
20
1.41871525437
11
-1.91549627285
21
1.52753855228
0
LINE
5
10F
100
AcDbEntity
8
gear_2
6
ByLayer
62
256
370
-1
100
AcDbLine
10
-1.91549627285
20
1.52753855228
11
-2.02429325574
21
1.38012202894
0
LINE
5
110
100
AcDbEntity
8
gear_2
6
ByLayer
62
256
370
-1
100
AcDbLine
10
-1.99352876172
20
0.869751732511
11
-1.92295782261
21
1.0162963212
0
LINE
5
111
100
AcDbEntity
8
gear_2
6
ByLayer
62
256
370
-1
100
AcDbLine
10
-1.92295782261
20
1.0162963212
11
-2.1217704859
21
1.2249857163
0
LINE
5
112
100
AcDbEntity
8
gear_2
6
ByLayer
62
256
370
-1
100
AcDbLine
10
-2.1217704859
20
1.2249857163
11
-2.02429428807
21
1.38012051477
0
LINE
5
113
100
AcDbEntity
8
gear_2
6
ByLayer
62
256
370
-1
100
AcDbLine
10
-1.99352876172
20
0.869751732511
11
-2.28064670983
21
0.89507015644
0
LINE
5
114
100
AcDbEntity
8
gear_2
6
ByLayer
62
256
370
-1
100
AcDbLine
10
-2.28064670983
20
0.89507015644
11
-2.34115823563
21
0.722134416682
0
LINE
5
115
100
AcDbEntity
8
gear_2
6
ByLayer
62
256
370
-1
100
AcDbLine
10
-2.161325878
20
0.243506568852
11
-2.13708510381
21
0.404341760232
0
LINE
5
116
100
AcDbEntity
8
gear_2
6
ByLayer
62
256
370
-1
100
AcDbLine
10
-2.13708510381
20
0.404341760232
11
-2.38857746269
21
0.545158421691
0
LINE
5
117
100
AcDbEntity
8
gear_2
6
ByLayer
62
256
370
-1
100
AcDbLine
10
-2.38857746269
20
0.545158421691
11
-2.34115877578
21
0.722132665501
0
LINE
5
118
100
AcDbEntity
8
gear_2
6
ByLayer
62
256
370
-1
100
AcDbLine
10
-2.161325878
20
0.243506568852
11
-2.44315067253
21
0.183070454567
0
LINE
5
119
100
AcDbEntity
8
gear_2
6
ByLayer
62
256
370
-1
100
AcDbLine
10
-2.44315067253
20
0.183070454567
11
-2.44999999993
21
-1.83259580618e-05
0
LINE
5
11A
100
AcDbEntity
8
gear_2
6
ByLayer
62
256
370
-1
100
AcDbLine
10
-2.13707875216
20
-0.404375329436
11
-2.16132205274
21
-0.243540518849
0
LINE
5
11B
100
AcDbEntity
8
gear_2
6
ByLayer
62
256
370
-1
100
AcDbLine
10
-2.16132205274
20
-0.243540518849
11
-2.44314779656
21
-0.183108831466
0
LINE
5
11C
100
AcDbEntity
8
gear_2
6
ByLayer
62
256
370
-1
100
AcDbLine
10
-2.44314779656
20
-0.183108831466
11
-2.44999999992
21
-2.01585519441e-05
0
LINE
5
11D
100
AcDbEntity
8
gear_2
6
ByLayer
62
256
370
-1
100
AcDbLine
10
-2.13707875216
20
-0.404375329436
11
-2.38856889906
21
-0.545195941311
0
LINE
5
11E
100
AcDbEntity
8
gear_2
6
ByLayer
62
256
370
-1
100
AcDbLine
10
-2.38856889906
20
-0.545195941311
11
-2.34114743226
21
-0.722169440248
0
LINE
5
11F
100
AcDbEntity
8
gear_2
6
ByLayer
62
256
370
-1
100
AcDbLine
10
-1.92294185842
20
-1.01632652682
11
-1.99351509944
21
-0.86978304668
0
LINE
5
120
100
AcDbEntity
8
gear_2
6
ByLayer
62
256
370
-1
100
AcDbLine
10
-1.99351509944
20
-0.86978304668
11
-2.28063264982
21
-0.895105980644
0
LINE
5
121
100
AcDbEntity
8
gear_2
6
ByLayer
62
256
370
-1
100
AcDbLine
10
-2.28063264982
20
-0.895105980644
11
-2.34114689208
21
-0.72217119142
0
LINE
5
122
100
AcDbEntity
8
gear_2
6
ByLayer
62
256
370
-1
100
AcDbLine
10
-1.92294185842
20
-1.01632652682
11
-2.12175124361
21
-1.22501904484
0
LINE
5
123
100
AcDbEntity
8
gear_2
6
ByLayer
62
256
370
-1
100
AcDbLine
10
-2.12175124361
20
-1.22501904484
11
-2.02427260894
21
-1.38015231214
0
LINE
5
124
100
AcDbEntity
8
gear_2
6
ByLayer
62
256
370
-1
100
AcDbLine
10
-1.53794229395
20
-1.53797220407
11
-1.64857470211
21
-1.4187411503
0
LINE
5
125
100
AcDbEntity
8
gear_2
6
ByLayer
62
256
370
-1
100
AcDbLine
10
-1.64857470211
20
-1.4187411503
11
-1.91547227809
21
-1.52756864063
0
LINE
5
126
100
AcDbEntity
8
gear_2
6
ByLayer
62
256
370
-1
100
AcDbLine
10
-1.91547227809
20
-1.52756864063
11
-2.02427157659
21
-1.38015382629
0
LINE
5
127
100
AcDbEntity
8
gear_2
6
ByLayer
62
256
370
-1
100
AcDbLine
10
-1.53794229395
20
-1.53797220407
11
-1.66640574342
21
-1.79599329016
0
LINE
5
128
100
AcDbEntity
8
gear_2
6
ByLayer
62
256
370
-1
100
AcDbLine
10
-1.66640574342
20
-1.79599329016
11
-1.52753138833
21
-1.91550198582
0
LINE
5
129
100
AcDbEntity
8
gear_2
6
ByLayer
62
256
370
-1
100
AcDbLine
10
-1.01628912934
20
-1.92296162353
11
-1.1571504809
21
-1.84163725107
0
LINE
5
12A
100
AcDbEntity
8
gear_2
6
ByLayer
62
256
370
-1
100
AcDbLine
10
-1.1571504809
20
-1.84163725107
11
-1.38011294392
21
-2.02429944969
0
LINE
5
12B
100
AcDbEntity
8
gear_2
6
ByLayer
62
256
370
-1
100
AcDbLine
10
-1.38011294392
20
-2.02429944969
11
-1.52752995554
21
-1.91550312841
0
LINE
5
12C
100
AcDbEntity
8
gear_2
6
ByLayer
62
256
370
-1
100
AcDbLine
10
-1.01628912934
20
-1.92296162353
11
-1.06299204522
21
-2.20738485811
0
LINE
5
12D
100
AcDbEntity
8
gear_2
6
ByLayer
62
256
370
-1
100
AcDbLine
10
-1.06299204522
20
-2.20738485811
11
-0.895061626834
21
-2.28065005737
0
LINE
5
12E
100
AcDbEntity
8
gear_2
6
ByLayer
62
256
370
-1
100
AcDbLine
10
-0.404333767549
20
-2.13708661603
11
-0.562907851147
21
-2.10089498812
0
LINE
5
12F
100
AcDbEntity
8
gear_2
6
ByLayer
62
256
370
-1
100
AcDbLine
10
-0.562907851147
20
-2.10089498812
11
-0.722123909582
21
-2.34116147653
0
LINE
5
130
100
AcDbEntity
8
gear_2
6
ByLayer
62
256
370
-1
100
AcDbLine
10
-0.722123909582
20
-2.34116147653
11
-0.895059920914
21
-2.28065072687
0
LINE
5
131
100
AcDbEntity
8
gear_2
6
ByLayer
62
256
370
-1
100
AcDbLine
10
-0.404333767549
20
-2.13708661603
11
-0.365126370201
21
-2.42263962111
0
LINE
5
132
100
AcDbEntity
8
gear_2
6
ByLayer
62
256
370
-1
100
AcDbLine
10
-0.365126370201
20
-2.42263962111
11
-0.183061317203
21
-2.44315135719
0
LINE
5
133
100
AcDbEntity
8
gear_2
6
ByLayer
62
256
370
-1
100
AcDbLine
10
0.243548602173
20
-2.16132114189
11
0.0813518596812
21
-2.17347805945
0
LINE
5
134
100
AcDbEntity
8
gear_2
6
ByLayer
62
256
370
-1
100
AcDbLine
10
0.0813518596812
20
-2.17347805945
11
2.93215309771e-05
21
-2.44999999982
0
LINE
5
135
100
AcDbEntity
8
gear_2
6
ByLayer
62
256
370
-1
100
AcDbLine
10
2.93215309771e-05
20
-2.44999999982
11
-0.183059489732
21
-2.44315149412
0
LINE
5
136
100
AcDbEntity
8
gear_2
6
ByLayer
62
256
370
-1
100
AcDbLine
10
0.243548602173
20
-2.16132114189
11
0.36518254614
21
-2.42263115393
0
LINE
5
137
100
AcDbEntity
8
gear_2
6
ByLayer
62
256
370
-1
100
AcDbLine
10
0.36518254614
20
-2.42263115393
11
0.545204874534
21
-2.38856686002
0
LINE
5
138
100
AcDbEntity
8
gear_2
6
ByLayer
62
256
370
-1
100
AcDbLine
10
0.869790502403
20
-1.99351184645
11
0.718383064898
21
-2.05293710865
0
LINE
5
139
100
AcDbEntity
8
gear_2
6
ByLayer
62
256
370
-1
100
AcDbLine
10
0.718383064898
20
-2.05293710865
11
0.722179947285
21
-2.34114419115
0
LINE
5
13A
100
AcDbEntity
8
gear_2
6
ByLayer
62
256
370
-1
100
AcDbLine
10
0.722179947285
20
-2.34114419115
11
0.545206661176
21
-2.38856645221
0
LINE
5
13B
100
AcDbEntity
8
gear_2
6
ByLayer
62
256
370
-1
100
AcDbLine
10
0.869790502403
20
-1.99351184645
11
1.06304322965
21
-2.20736020891
0
LINE
5
13C
100
AcDbEntity
8
gear_2
6
ByLayer
62
256
370
-1
100
AcDbLine
10
1.06304322965
20
-2.20736020891
11
1.22502698017
21
-2.12174666204
0
LINE
5
13D
100
AcDbEntity
8
gear_2
6
ByLayer
62
256
370
-1
100
AcDbLine
10
1.41874731595
20
-1.64856939602
11
1.29158246545
21
-1.74998278133
0
LINE
5
13E
100
AcDbEntity
8
gear_2
6
ByLayer
62
256
370
-1
100
AcDbLine
10
1.29158246545
20
-1.74998278133
11
1.38016139704
21
-2.02426641481
0
LINE
5
13F
100
AcDbEntity
8
gear_2
6
ByLayer
62
256
370
-1
100
AcDbLine
10
1.38016139704
20
-2.02426641481
11
1.22502856723
21
-2.12174574572
0
LINE
5
140
100
AcDbEntity
8
gear_2
6
ByLayer
62
256
370
-1
100
AcDbLine
10
1.41874731595
20
-1.64856939602
11
1.66644738837
21
-1.79595464915
0
LINE
5
141
100
AcDbEntity
8
gear_2
6
ByLayer
62
256
370
-1
100
AcDbLine
10
1.66644738837
20
-1.79595464915
11
1.79599952249
21
-1.66639902641
0
LINE
5
142
100
AcDbEntity
8
gear_2
6
ByLayer
62
256
370
-1
100
AcDbLine
10
1.84164157879
20
-1.15714359319
11
1.75001852641
21
-1.29153403255
0
LINE
5
143
100
AcDbEntity
8
gear_2
6
ByLayer
62
256
370
-1
100
AcDbLine
10
1.75001852641
20
-1.29153403255
11
1.91550884134
21
-1.52752279156
0
LINE
5
144
100
AcDbEntity
8
gear_2
6
ByLayer
62
256
370
-1
100
AcDbLine
10
1.91550884134
20
-1.52752279156
11
1.79600076895
21
-1.666397683
0
LINE
5
145
100
AcDbEntity
8
gear_2
6
ByLayer
62
256
370
-1
100
AcDbLine
10
1.84164157879
20
-1.15714359319
11
2.12177964872
21
-1.22496984546
0
LINE
5
146
100
AcDbEntity
8
gear_2
6
ByLayer
62
256
370
-1
100
AcDbLine
10
2.12177964872
20
-1.22496984546
11
2.20738883367
21
-1.06298378961
0
LINE
5
147
100
AcDbEntity
8
gear_2
6
ByLayer
62
256
370
-1
100
AcDbLine
10
2.10089709338
20
-0.562899993814
11
2.05295698979
21
-0.718326247668
0
LINE
5
148
100
AcDbEntity
8
gear_2
6
ByLayer
62
256
370
-1
100
AcDbLine
10
2.05295698979
20
-0.718326247668
11
2.28065407437
21
-0.895051391293
0
LINE
5
149
100
AcDbEntity
8
gear_2
6
ByLayer
62
256
370
-1
100
AcDbLine
10
2.28065407437
20
-0.895051391293
11
2.20738962878
21
-1.06298213849
0
LINE
5
14A
100
AcDbEntity
8
gear_2
6
ByLayer
62
256
370
-1
100
AcDbLine
10
2.10089709338
20
-0.562899993814
11
2.3885815404
21
-0.545140555157
0
LINE
5
14B
100
AcDbEntity
8
gear_2
6
ByLayer
62
256
370
-1
100
AcDbLine
10
2.3885815404
20
-0.545140555157
11
2.42264098666
21
-0.365117309547
0
ENDSEC
0
SECTION
2
OBJECTS
0
DICTIONARY
5
C
330
0
100
AcDbDictionary
281
1
3
ACAD_GROUP
350
D
0
DICTIONARY
5
D
330
C
100
AcDbDictionary
281
1
0
ENDSEC
0
EOF
