solid OpenSCAD_Model
  facet normal -0.992709 0 -0.120537
    outer loop
      vertex 2 -12 -6
      vertex 1.94188 12 -5.52137
      vertex 2 12 -6
    endloop
  endfacet
  facet normal -0.992709 -0 -0.120537
    outer loop
      vertex 1.94188 12 -5.52137
      vertex 2 -12 -6
      vertex 1.94188 -12 -5.52137
    endloop
  endfacet
  facet normal -0.935016 0 -0.354605
    outer loop
      vertex 1.94188 -12 -5.52137
      vertex 1.77091 12 -5.07055
      vertex 1.94188 12 -5.52137
    endloop
  endfacet
  facet normal -0.935016 -0 -0.354605
    outer loop
      vertex 1.77091 12 -5.07055
      vertex 1.94188 -12 -5.52137
      vertex 1.77091 -12 -5.07055
    endloop
  endfacet
  facet normal 0.239316 0 -0.970942
    outer loop
      vertex -0.70921 -12 -4.12997
      vertex -0.241073 12 -4.01458
      vertex -0.241073 -12 -4.01458
    endloop
  endfacet
  facet normal 0.239316 0 -0.970942
    outer loop
      vertex -0.241073 12 -4.01458
      vertex -0.70921 -12 -4.12997
      vertex -0.70921 12 -4.12997
    endloop
  endfacet
  facet normal 0.822984 0 -0.568065
    outer loop
      vertex -1.49702 -12 -4.67375
      vertex -1.77091 12 -5.07055
      vertex -1.49702 12 -4.67375
    endloop
  endfacet
  facet normal 0.822984 0 -0.568065
    outer loop
      vertex -1.77091 12 -5.07055
      vertex -1.49702 -12 -4.67375
      vertex -1.77091 -12 -5.07055
    endloop
  endfacet
  facet normal 0.464723 0 -0.885456
    outer loop
      vertex -1.13613 -12 -4.35403
      vertex -0.70921 12 -4.12997
      vertex -0.70921 -12 -4.12997
    endloop
  endfacet
  facet normal 0.464723 0 -0.885456
    outer loop
      vertex -0.70921 12 -4.12997
      vertex -1.13613 -12 -4.35403
      vertex -1.13613 12 -4.35403
    endloop
  endfacet
  facet normal -0.822984 0 0.568065
    outer loop
      vertex 1.49702 -12 -7.32625
      vertex 1.77091 12 -6.92945
      vertex 1.49702 12 -7.32625
    endloop
  endfacet
  facet normal -0.822984 0 0.568065
    outer loop
      vertex 1.77091 12 -6.92945
      vertex 1.49702 -12 -7.32625
      vertex 1.77091 -12 -6.92945
    endloop
  endfacet
  facet normal -0.663123 0 -0.748511
    outer loop
      vertex 1.13613 -12 -4.35403
      vertex 1.49702 12 -4.67375
      vertex 1.49702 -12 -4.67375
    endloop
  endfacet
  facet normal -0.663123 0 -0.748511
    outer loop
      vertex 1.49702 12 -4.67375
      vertex 1.13613 -12 -4.35403
      vertex 1.13613 12 -4.35403
    endloop
  endfacet
  facet normal -0.239316 0 -0.970942
    outer loop
      vertex 0.241073 -12 -4.01458
      vertex 0.70921 12 -4.12997
      vertex 0.70921 -12 -4.12997
    endloop
  endfacet
  facet normal -0.239316 0 -0.970942
    outer loop
      vertex 0.70921 12 -4.12997
      vertex 0.241073 -12 -4.01458
      vertex 0.241073 12 -4.01458
    endloop
  endfacet
  facet normal -0.464723 0 -0.885456
    outer loop
      vertex 0.70921 -12 -4.12997
      vertex 1.13613 12 -4.35403
      vertex 1.13613 -12 -4.35403
    endloop
  endfacet
  facet normal -0.464723 0 -0.885456
    outer loop
      vertex 1.13613 12 -4.35403
      vertex 0.70921 -12 -4.12997
      vertex 0.70921 12 -4.12997
    endloop
  endfacet
  facet normal 0.935016 0 -0.354605
    outer loop
      vertex -1.77091 -12 -5.07055
      vertex -1.94188 12 -5.52137
      vertex -1.77091 12 -5.07055
    endloop
  endfacet
  facet normal 0.935016 0 -0.354605
    outer loop
      vertex -1.94188 12 -5.52137
      vertex -1.77091 -12 -5.07055
      vertex -1.94188 -12 -5.52137
    endloop
  endfacet
  facet normal 0.663123 0 0.748511
    outer loop
      vertex -1.49702 12 -7.32625
      vertex -1.13613 -12 -7.64597
      vertex -1.13613 12 -7.64597
    endloop
  endfacet
  facet normal 0.663123 0 0.748511
    outer loop
      vertex -1.13613 -12 -7.64597
      vertex -1.49702 12 -7.32625
      vertex -1.49702 -12 -7.32625
    endloop
  endfacet
  facet normal -0.239316 0 0.970942
    outer loop
      vertex 0.241073 12 -7.98542
      vertex 0.70921 -12 -7.87003
      vertex 0.70921 12 -7.87003
    endloop
  endfacet
  facet normal -0.239316 0 0.970942
    outer loop
      vertex 0.70921 -12 -7.87003
      vertex 0.241073 12 -7.98542
      vertex 0.241073 -12 -7.98542
    endloop
  endfacet
  facet normal -0.663123 0 0.748511
    outer loop
      vertex 1.13613 12 -7.64597
      vertex 1.49702 -12 -7.32625
      vertex 1.49702 12 -7.32625
    endloop
  endfacet
  facet normal -0.663123 0 0.748511
    outer loop
      vertex 1.49702 -12 -7.32625
      vertex 1.13613 12 -7.64597
      vertex 1.13613 -12 -7.64597
    endloop
  endfacet
  facet normal 0 0 -1
    outer loop
      vertex -0.241073 -12 -4.01458
      vertex 0.241073 12 -4.01458
      vertex 0.241073 -12 -4.01458
    endloop
  endfacet
  facet normal -0 0 -1
    outer loop
      vertex 0.241073 12 -4.01458
      vertex -0.241073 -12 -4.01458
      vertex -0.241073 12 -4.01458
    endloop
  endfacet
  facet normal 0.992709 0 -0.120537
    outer loop
      vertex -1.94188 -12 -5.52137
      vertex -2 12 -6
      vertex -1.94188 12 -5.52137
    endloop
  endfacet
  facet normal 0.992709 0 -0.120537
    outer loop
      vertex -2 12 -6
      vertex -1.94188 -12 -5.52137
      vertex -2 -12 -6
    endloop
  endfacet
  facet normal 0.992709 -0 0.120537
    outer loop
      vertex -2 -12 -6
      vertex -1.94188 12 -6.47863
      vertex -2 12 -6
    endloop
  endfacet
  facet normal 0.992709 0 0.120537
    outer loop
      vertex -1.94188 12 -6.47863
      vertex -2 -12 -6
      vertex -1.94188 -12 -6.47863
    endloop
  endfacet
  facet normal 0.663123 0 -0.748511
    outer loop
      vertex -1.49702 -12 -4.67375
      vertex -1.13613 12 -4.35403
      vertex -1.13613 -12 -4.35403
    endloop
  endfacet
  facet normal 0.663123 0 -0.748511
    outer loop
      vertex -1.13613 12 -4.35403
      vertex -1.49702 -12 -4.67375
      vertex -1.49702 12 -4.67375
    endloop
  endfacet
  facet normal 0.822984 -0 0.568065
    outer loop
      vertex -1.77091 -12 -6.92945
      vertex -1.49702 12 -7.32625
      vertex -1.77091 12 -6.92945
    endloop
  endfacet
  facet normal 0.822984 0 0.568065
    outer loop
      vertex -1.49702 12 -7.32625
      vertex -1.77091 -12 -6.92945
      vertex -1.49702 -12 -7.32625
    endloop
  endfacet
  facet normal 0.935016 -0 0.354605
    outer loop
      vertex -1.94188 -12 -6.47863
      vertex -1.77091 12 -6.92945
      vertex -1.94188 12 -6.47863
    endloop
  endfacet
  facet normal 0.935016 0 0.354605
    outer loop
      vertex -1.77091 12 -6.92945
      vertex -1.94188 -12 -6.47863
      vertex -1.77091 -12 -6.92945
    endloop
  endfacet
  facet normal -0.464723 0 0.885456
    outer loop
      vertex 0.70921 12 -7.87003
      vertex 1.13613 -12 -7.64597
      vertex 1.13613 12 -7.64597
    endloop
  endfacet
  facet normal -0.464723 0 0.885456
    outer loop
      vertex 1.13613 -12 -7.64597
      vertex 0.70921 12 -7.87003
      vertex 0.70921 -12 -7.87003
    endloop
  endfacet
  facet normal -0.935016 0 0.354605
    outer loop
      vertex 1.77091 -12 -6.92945
      vertex 1.94188 12 -6.47863
      vertex 1.77091 12 -6.92945
    endloop
  endfacet
  facet normal -0.935016 0 0.354605
    outer loop
      vertex 1.94188 12 -6.47863
      vertex 1.77091 -12 -6.92945
      vertex 1.94188 -12 -6.47863
    endloop
  endfacet
  facet normal -0.992709 0 0.120537
    outer loop
      vertex 1.94188 -12 -6.47863
      vertex 2 12 -6
      vertex 1.94188 12 -6.47863
    endloop
  endfacet
  facet normal -0.992709 0 0.120537
    outer loop
      vertex 2 12 -6
      vertex 1.94188 -12 -6.47863
      vertex 2 -12 -6
    endloop
  endfacet
  facet normal -0.822984 0 -0.568065
    outer loop
      vertex 1.77091 -12 -5.07055
      vertex 1.49702 12 -4.67375
      vertex 1.77091 12 -5.07055
    endloop
  endfacet
  facet normal -0.822984 -0 -0.568065
    outer loop
      vertex 1.49702 12 -4.67375
      vertex 1.77091 -12 -5.07055
      vertex 1.49702 -12 -4.67375
    endloop
  endfacet
  facet normal -0 0 1
    outer loop
      vertex -0.241073 12 -7.98542
      vertex 0.241073 -12 -7.98542
      vertex 0.241073 12 -7.98542
    endloop
  endfacet
  facet normal 0 0 1
    outer loop
      vertex 0.241073 -12 -7.98542
      vertex -0.241073 12 -7.98542
      vertex -0.241073 -12 -7.98542
    endloop
  endfacet
  facet normal 0.464723 0 0.885456
    outer loop
      vertex -1.13613 12 -7.64597
      vertex -0.70921 -12 -7.87003
      vertex -0.70921 12 -7.87003
    endloop
  endfacet
  facet normal 0.464723 0 0.885456
    outer loop
      vertex -0.70921 -12 -7.87003
      vertex -1.13613 12 -7.64597
      vertex -1.13613 -12 -7.64597
    endloop
  endfacet
  facet normal 0.239316 0 0.970942
    outer loop
      vertex -0.70921 12 -7.87003
      vertex -0.241073 -12 -7.98542
      vertex -0.241073 12 -7.98542
    endloop
  endfacet
  facet normal 0.239316 0 0.970942
    outer loop
      vertex -0.241073 -12 -7.98542
      vertex -0.70921 12 -7.87003
      vertex -0.70921 -12 -7.87003
    endloop
  endfacet
  facet normal -0.992709 0 -0.120537
    outer loop
      vertex 2 -12 6
      vertex 1.94188 12 6.47863
      vertex 2 12 6
    endloop
  endfacet
  facet normal -0.992709 -0 -0.120537
    outer loop
      vertex 1.94188 12 6.47863
      vertex 2 -12 6
      vertex 1.94188 -12 6.47863
    endloop
  endfacet
  facet normal -0.935016 0 -0.354605
    outer loop
      vertex 1.94188 -12 6.47863
      vertex 1.77091 12 6.92945
      vertex 1.94188 12 6.47863
    endloop
  endfacet
  facet normal -0.935016 -0 -0.354605
    outer loop
      vertex 1.77091 12 6.92945
      vertex 1.94188 -12 6.47863
      vertex 1.77091 -12 6.92945
    endloop
  endfacet
  facet normal -0.822984 0 -0.568065
    outer loop
      vertex 1.77091 -12 6.92945
      vertex 1.49702 12 7.32625
      vertex 1.77091 12 6.92945
    endloop
  endfacet
  facet normal -0.822984 -0 -0.568065
    outer loop
      vertex 1.49702 12 7.32625
      vertex 1.77091 -12 6.92945
      vertex 1.49702 -12 7.32625
    endloop
  endfacet
  facet normal -0.239316 0 -0.970942
    outer loop
      vertex 0.241073 -12 7.98542
      vertex 0.70921 12 7.87003
      vertex 0.70921 -12 7.87003
    endloop
  endfacet
  facet normal -0.239316 0 -0.970942
    outer loop
      vertex 0.70921 12 7.87003
      vertex 0.241073 -12 7.98542
      vertex 0.241073 12 7.98542
    endloop
  endfacet
  facet normal -0.464723 0 0.885456
    outer loop
      vertex 0.70921 12 4.12997
      vertex 1.13613 -12 4.35403
      vertex 1.13613 12 4.35403
    endloop
  endfacet
  facet normal -0.464723 0 0.885456
    outer loop
      vertex 1.13613 -12 4.35403
      vertex 0.70921 12 4.12997
      vertex 0.70921 -12 4.12997
    endloop
  endfacet
  facet normal -0.822984 0 0.568065
    outer loop
      vertex 1.49702 -12 4.67375
      vertex 1.77091 12 5.07055
      vertex 1.49702 12 4.67375
    endloop
  endfacet
  facet normal -0.822984 0 0.568065
    outer loop
      vertex 1.77091 12 5.07055
      vertex 1.49702 -12 4.67375
      vertex 1.77091 -12 5.07055
    endloop
  endfacet
  facet normal 0.239316 0 -0.970942
    outer loop
      vertex -0.70921 -12 7.87003
      vertex -0.241073 12 7.98542
      vertex -0.241073 -12 7.98542
    endloop
  endfacet
  facet normal 0.239316 0 -0.970942
    outer loop
      vertex -0.241073 12 7.98542
      vertex -0.70921 -12 7.87003
      vertex -0.70921 12 7.87003
    endloop
  endfacet
  facet normal 0.992709 -0 0.120537
    outer loop
      vertex -2 -12 6
      vertex -1.94188 12 5.52137
      vertex -2 12 6
    endloop
  endfacet
  facet normal 0.992709 0 0.120537
    outer loop
      vertex -1.94188 12 5.52137
      vertex -2 -12 6
      vertex -1.94188 -12 5.52137
    endloop
  endfacet
  facet normal 0.935016 0 -0.354605
    outer loop
      vertex -1.77091 -12 6.92945
      vertex -1.94188 12 6.47863
      vertex -1.77091 12 6.92945
    endloop
  endfacet
  facet normal 0.935016 0 -0.354605
    outer loop
      vertex -1.94188 12 6.47863
      vertex -1.77091 -12 6.92945
      vertex -1.94188 -12 6.47863
    endloop
  endfacet
  facet normal 0.464723 0 -0.885456
    outer loop
      vertex -1.13613 -12 7.64597
      vertex -0.70921 12 7.87003
      vertex -0.70921 -12 7.87003
    endloop
  endfacet
  facet normal 0.464723 0 -0.885456
    outer loop
      vertex -0.70921 12 7.87003
      vertex -1.13613 -12 7.64597
      vertex -1.13613 12 7.64597
    endloop
  endfacet
  facet normal 0.822984 0 -0.568065
    outer loop
      vertex -1.49702 -12 7.32625
      vertex -1.77091 12 6.92945
      vertex -1.49702 12 7.32625
    endloop
  endfacet
  facet normal 0.822984 0 -0.568065
    outer loop
      vertex -1.77091 12 6.92945
      vertex -1.49702 -12 7.32625
      vertex -1.77091 -12 6.92945
    endloop
  endfacet
  facet normal -0.935016 0 0.354605
    outer loop
      vertex 1.77091 -12 5.07055
      vertex 1.94188 12 5.52137
      vertex 1.77091 12 5.07055
    endloop
  endfacet
  facet normal -0.935016 0 0.354605
    outer loop
      vertex 1.94188 12 5.52137
      vertex 1.77091 -12 5.07055
      vertex 1.94188 -12 5.52137
    endloop
  endfacet
  facet normal 0.663123 0 0.748511
    outer loop
      vertex -1.49702 12 4.67375
      vertex -1.13613 -12 4.35403
      vertex -1.13613 12 4.35403
    endloop
  endfacet
  facet normal 0.663123 0 0.748511
    outer loop
      vertex -1.13613 -12 4.35403
      vertex -1.49702 12 4.67375
      vertex -1.49702 -12 4.67375
    endloop
  endfacet
  facet normal -0.239316 0 0.970942
    outer loop
      vertex 0.241073 12 4.01458
      vertex 0.70921 -12 4.12997
      vertex 0.70921 12 4.12997
    endloop
  endfacet
  facet normal -0.239316 0 0.970942
    outer loop
      vertex 0.70921 -12 4.12997
      vertex 0.241073 12 4.01458
      vertex 0.241073 -12 4.01458
    endloop
  endfacet
  facet normal -0.992709 0 0.120537
    outer loop
      vertex 1.94188 -12 5.52137
      vertex 2 12 6
      vertex 1.94188 12 5.52137
    endloop
  endfacet
  facet normal -0.992709 0 0.120537
    outer loop
      vertex 2 12 6
      vertex 1.94188 -12 5.52137
      vertex 2 -12 6
    endloop
  endfacet
  facet normal -0.663123 0 -0.748511
    outer loop
      vertex 1.13613 -12 7.64597
      vertex 1.49702 12 7.32625
      vertex 1.49702 -12 7.32625
    endloop
  endfacet
  facet normal -0.663123 0 -0.748511
    outer loop
      vertex 1.49702 12 7.32625
      vertex 1.13613 -12 7.64597
      vertex 1.13613 12 7.64597
    endloop
  endfacet
  facet normal 0 0 -1
    outer loop
      vertex -0.241073 -12 7.98542
      vertex 0.241073 12 7.98542
      vertex 0.241073 -12 7.98542
    endloop
  endfacet
  facet normal -0 0 -1
    outer loop
      vertex 0.241073 12 7.98542
      vertex -0.241073 -12 7.98542
      vertex -0.241073 12 7.98542
    endloop
  endfacet
  facet normal -0.464723 0 -0.885456
    outer loop
      vertex 0.70921 -12 7.87003
      vertex 1.13613 12 7.64597
      vertex 1.13613 -12 7.64597
    endloop
  endfacet
  facet normal -0.464723 0 -0.885456
    outer loop
      vertex 1.13613 12 7.64597
      vertex 0.70921 -12 7.87003
      vertex 0.70921 12 7.87003
    endloop
  endfacet
  facet normal 0.992709 0 -0.120537
    outer loop
      vertex -1.94188 -12 6.47863
      vertex -2 12 6
      vertex -1.94188 12 6.47863
    endloop
  endfacet
  facet normal 0.992709 0 -0.120537
    outer loop
      vertex -2 12 6
      vertex -1.94188 -12 6.47863
      vertex -2 -12 6
    endloop
  endfacet
  facet normal 0.663123 0 -0.748511
    outer loop
      vertex -1.49702 -12 7.32625
      vertex -1.13613 12 7.64597
      vertex -1.13613 -12 7.64597
    endloop
  endfacet
  facet normal 0.663123 0 -0.748511
    outer loop
      vertex -1.13613 12 7.64597
      vertex -1.49702 -12 7.32625
      vertex -1.49702 12 7.32625
    endloop
  endfacet
  facet normal 0.464723 0 0.885456
    outer loop
      vertex -1.13613 12 4.35403
      vertex -0.70921 -12 4.12997
      vertex -0.70921 12 4.12997
    endloop
  endfacet
  facet normal 0.464723 0 0.885456
    outer loop
      vertex -0.70921 -12 4.12997
      vertex -1.13613 12 4.35403
      vertex -1.13613 -12 4.35403
    endloop
  endfacet
  facet normal 0.935016 -0 0.354605
    outer loop
      vertex -1.94188 -12 5.52137
      vertex -1.77091 12 5.07055
      vertex -1.94188 12 5.52137
    endloop
  endfacet
  facet normal 0.935016 0 0.354605
    outer loop
      vertex -1.77091 12 5.07055
      vertex -1.94188 -12 5.52137
      vertex -1.77091 -12 5.07055
    endloop
  endfacet
  facet normal 0.822984 -0 0.568065
    outer loop
      vertex -1.77091 -12 5.07055
      vertex -1.49702 12 4.67375
      vertex -1.77091 12 5.07055
    endloop
  endfacet
  facet normal 0.822984 0 0.568065
    outer loop
      vertex -1.49702 12 4.67375
      vertex -1.77091 -12 5.07055
      vertex -1.49702 -12 4.67375
    endloop
  endfacet
  facet normal -0.663123 0 0.748511
    outer loop
      vertex 1.13613 12 4.35403
      vertex 1.49702 -12 4.67375
      vertex 1.49702 12 4.67375
    endloop
  endfacet
  facet normal -0.663123 0 0.748511
    outer loop
      vertex 1.49702 -12 4.67375
      vertex 1.13613 12 4.35403
      vertex 1.13613 -12 4.35403
    endloop
  endfacet
  facet normal -0 0 1
    outer loop
      vertex -0.241073 12 4.01458
      vertex 0.241073 -12 4.01458
      vertex 0.241073 12 4.01458
    endloop
  endfacet
  facet normal 0 0 1
    outer loop
      vertex 0.241073 -12 4.01458
      vertex -0.241073 12 4.01458
      vertex -0.241073 -12 4.01458
    endloop
  endfacet
  facet normal 0.239316 0 0.970942
    outer loop
      vertex -0.70921 12 4.12997
      vertex -0.241073 -12 4.01458
      vertex -0.241073 12 4.01458
    endloop
  endfacet
  facet normal 0.239316 0 0.970942
    outer loop
      vertex -0.241073 -12 4.01458
      vertex -0.70921 12 4.12997
      vertex -0.70921 -12 4.12997
    endloop
  endfacet
  facet normal 0.998103 -0 0.061561
    outer loop
      vertex 3.96968 -12 6.49155
      vertex 4 12 6
      vertex 3.96968 12 6.49155
    endloop
  endfacet
  facet normal 0.998103 0 0.061561
    outer loop
      vertex 4 12 6
      vertex 3.96968 -12 6.49155
      vertex 4 -12 6
    endloop
  endfacet
  facet normal -1 0 0
    outer loop
      vertex -3.99241 12 -6.24624
      vertex -3.99241 2.5 -1.03957e-15
      vertex -3.99241 12 6.24624
    endloop
  endfacet
  facet normal -1 0 0
    outer loop
      vertex -3.99241 12 -6.24624
      vertex -3.99241 2.49966 -0.00346747
      vertex -3.99241 2.5 -1.03957e-15
    endloop
  endfacet
  facet normal -1 0 0
    outer loop
      vertex -3.99241 12 -6.24624
      vertex -3.99241 2.45196 -0.487726
      vertex -3.99241 2.49966 -0.00346747
    endloop
  endfacet
  facet normal -1 0 0
    outer loop
      vertex -3.99241 12 -6.24624
      vertex -3.99241 2.3097 -0.956709
      vertex -3.99241 2.45196 -0.487726
    endloop
  endfacet
  facet normal -1 0 0
    outer loop
      vertex -3.99241 12 -6.24624
      vertex -3.99241 2.07867 -1.38893
      vertex -3.99241 2.3097 -0.956709
    endloop
  endfacet
  facet normal -1 0 0
    outer loop
      vertex -3.99241 12 -6.24624
      vertex -3.99241 1.76777 -1.76777
      vertex -3.99241 2.07867 -1.38893
    endloop
  endfacet
  facet normal -1 0 0
    outer loop
      vertex -3.99241 12 -6.24624
      vertex -3.99241 1.38893 -2.07867
      vertex -3.99241 1.76777 -1.76777
    endloop
  endfacet
  facet normal -1 0 0
    outer loop
      vertex -3.99241 12 -6.24624
      vertex -3.99241 0.956709 -2.3097
      vertex -3.99241 1.38893 -2.07867
    endloop
  endfacet
  facet normal -1 0 0
    outer loop
      vertex -3.99241 12 -6.24624
      vertex -3.99241 0.487726 -2.45196
      vertex -3.99241 0.956709 -2.3097
    endloop
  endfacet
  facet normal -1 0 0
    outer loop
      vertex -3.99241 12 -6.24624
      vertex -3.99241 0 -2.5
      vertex -3.99241 0.487726 -2.45196
    endloop
  endfacet
  facet normal -1 0 0
    outer loop
      vertex -3.99241 -12 -6.24624
      vertex -3.99241 0 -2.5
      vertex -3.99241 12 -6.24624
    endloop
  endfacet
  facet normal -1 -0 0
    outer loop
      vertex -3.99241 0 -2.5
      vertex -3.99241 -12 -6.24624
      vertex -3.99241 -0.487726 -2.45196
    endloop
  endfacet
  facet normal -1 -0 0
    outer loop
      vertex -3.99241 -2.49966 -0.00346747
      vertex -3.99241 -12 -6.24624
      vertex -3.99241 -2.5 -4.27251e-16
    endloop
  endfacet
  facet normal -1 -0 0
    outer loop
      vertex -3.99241 -2.45196 -0.487726
      vertex -3.99241 -12 -6.24624
      vertex -3.99241 -2.49966 -0.00346747
    endloop
  endfacet
  facet normal -1 -0 0
    outer loop
      vertex -3.99241 -2.3097 -0.956709
      vertex -3.99241 -12 -6.24624
      vertex -3.99241 -2.45196 -0.487726
    endloop
  endfacet
  facet normal -1 -0 0
    outer loop
      vertex -3.99241 -2.07867 -1.38893
      vertex -3.99241 -12 -6.24624
      vertex -3.99241 -2.3097 -0.956709
    endloop
  endfacet
  facet normal -1 -0 0
    outer loop
      vertex -3.99241 -1.76777 -1.76777
      vertex -3.99241 -12 -6.24624
      vertex -3.99241 -2.07867 -1.38893
    endloop
  endfacet
  facet normal -1 -0 0
    outer loop
      vertex -3.99241 -1.38893 -2.07867
      vertex -3.99241 -12 -6.24624
      vertex -3.99241 -1.76777 -1.76777
    endloop
  endfacet
  facet normal -1 -0 0
    outer loop
      vertex -3.99241 -0.956709 -2.3097
      vertex -3.99241 -12 -6.24624
      vertex -3.99241 -1.38893 -2.07867
    endloop
  endfacet
  facet normal -1 -0 0
    outer loop
      vertex -3.99241 -0.487726 -2.45196
      vertex -3.99241 -12 -6.24624
      vertex -3.99241 -0.956709 -2.3097
    endloop
  endfacet
  facet normal -1 0 0
    outer loop
      vertex -3.99241 2.4523 0.484258
      vertex -3.99241 12 6.24624
      vertex -3.99241 2.5 -1.03957e-15
    endloop
  endfacet
  facet normal -1 0 0
    outer loop
      vertex -3.99241 2.45196 0.487726
      vertex -3.99241 12 6.24624
      vertex -3.99241 2.4523 0.484258
    endloop
  endfacet
  facet normal -1 0 0
    outer loop
      vertex -3.99241 2.3097 0.956709
      vertex -3.99241 12 6.24624
      vertex -3.99241 2.45196 0.487726
    endloop
  endfacet
  facet normal -1 0 0
    outer loop
      vertex -3.99241 2.07867 1.38893
      vertex -3.99241 12 6.24624
      vertex -3.99241 2.3097 0.956709
    endloop
  endfacet
  facet normal -1 0 0
    outer loop
      vertex -3.99241 1.76777 1.76777
      vertex -3.99241 12 6.24624
      vertex -3.99241 2.07867 1.38893
    endloop
  endfacet
  facet normal -1 0 0
    outer loop
      vertex -3.99241 1.38893 2.07867
      vertex -3.99241 12 6.24624
      vertex -3.99241 1.76777 1.76777
    endloop
  endfacet
  facet normal -1 0 0
    outer loop
      vertex -3.99241 0.956709 2.3097
      vertex -3.99241 12 6.24624
      vertex -3.99241 1.38893 2.07867
    endloop
  endfacet
  facet normal -1 0 0
    outer loop
      vertex -3.99241 0.487726 2.45196
      vertex -3.99241 12 6.24624
      vertex -3.99241 0.956709 2.3097
    endloop
  endfacet
  facet normal -1 0 0
    outer loop
      vertex -3.99241 3.06162e-16 2.5
      vertex -3.99241 12 6.24624
      vertex -3.99241 0.487726 2.45196
    endloop
  endfacet
  facet normal -1 0 0
    outer loop
      vertex -3.99241 -12 6.24624
      vertex -3.99241 3.06162e-16 2.5
      vertex -3.99241 -0.487726 2.45196
    endloop
  endfacet
  facet normal -1 0 0
    outer loop
      vertex -3.99241 -12 6.24624
      vertex -3.99241 -0.487726 2.45196
      vertex -3.99241 -0.956709 2.3097
    endloop
  endfacet
  facet normal -1 0 0
    outer loop
      vertex -3.99241 -12 6.24624
      vertex -3.99241 -2.4523 0.484258
      vertex -3.99241 -2.5 -4.27251e-16
    endloop
  endfacet
  facet normal -1 0 0
    outer loop
      vertex -3.99241 -12 6.24624
      vertex -3.99241 -2.5 -4.27251e-16
      vertex -3.99241 -12 -6.24624
    endloop
  endfacet
  facet normal -1 0 0
    outer loop
      vertex -3.99241 -2.4523 0.484258
      vertex -3.99241 -12 6.24624
      vertex -3.99241 -2.45196 0.487726
    endloop
  endfacet
  facet normal -1 0 0
    outer loop
      vertex -3.99241 -2.45196 0.487726
      vertex -3.99241 -12 6.24624
      vertex -3.99241 -2.3097 0.956709
    endloop
  endfacet
  facet normal -1 0 0
    outer loop
      vertex -3.99241 -2.3097 0.956709
      vertex -3.99241 -12 6.24624
      vertex -3.99241 -2.07867 1.38893
    endloop
  endfacet
  facet normal -1 0 0
    outer loop
      vertex -3.99241 -2.07867 1.38893
      vertex -3.99241 -12 6.24624
      vertex -3.99241 -1.76777 1.76777
    endloop
  endfacet
  facet normal -1 0 0
    outer loop
      vertex -3.99241 3.06162e-16 2.5
      vertex -3.99241 -12 6.24624
      vertex -3.99241 12 6.24624
    endloop
  endfacet
  facet normal -1 0 0
    outer loop
      vertex -3.99241 -1.38893 2.07867
      vertex -3.99241 -12 6.24624
      vertex -3.99241 -0.956709 2.3097
    endloop
  endfacet
  facet normal -1 0 0
    outer loop
      vertex -3.99241 -1.76777 1.76777
      vertex -3.99241 -12 6.24624
      vertex -3.99241 -1.38893 2.07867
    endloop
  endfacet
  facet normal 0 -1 0
    outer loop
      vertex -1.09465 -12 9.8473
      vertex -0.70921 -12 7.87003
      vertex -0.241073 -12 7.98542
    endloop
  endfacet
  facet normal 0 -1 0
    outer loop
      vertex -1.77091 -12 6.92945
      vertex -3.40087 -12 8.10573
      vertex -3.63386 -12 7.67184
    endloop
  endfacet
  facet normal 0 -1 0
    outer loop
      vertex -3.11632 -12 8.5077
      vertex -1.13613 -12 7.64597
      vertex -0.70921 -12 7.87003
    endloop
  endfacet
  facet normal 0 -1 0
    outer loop
      vertex -3.11632 -12 8.5077
      vertex -1.49702 -12 7.32625
      vertex -1.13613 -12 7.64597
    endloop
  endfacet
  facet normal 0 -1 0
    outer loop
      vertex -1.77091 -12 6.92945
      vertex -3.63386 -12 7.67184
      vertex -3.81177 -12 7.21261
    endloop
  endfacet
  facet normal 0 -1 0
    outer loop
      vertex -3.40087 -12 8.10573
      vertex -1.77091 -12 6.92945
      vertex -1.49702 -12 7.32625
    endloop
  endfacet
  facet normal 0 -1 0
    outer loop
      vertex -1.94188 -12 6.47863
      vertex -3.81177 -12 7.21261
      vertex -3.93189 -12 6.735
    endloop
  endfacet
  facet normal 0 -1 0
    outer loop
      vertex -3.81177 -12 7.21261
      vertex -1.94188 -12 6.47863
      vertex -1.77091 -12 6.92945
    endloop
  endfacet
  facet normal 0 -1 0
    outer loop
      vertex -3.99241 -12 6.24624
      vertex -1.94188 -12 6.47863
      vertex -3.93189 -12 6.735
    endloop
  endfacet
  facet normal 0 -1 0
    outer loop
      vertex -3.99241 -12 6.24624
      vertex -2 -12 6
      vertex -1.94188 -12 6.47863
    endloop
  endfacet
  facet normal 0 -1 0
    outer loop
      vertex -3.99241 -12 6.24624
      vertex -1.94188 -12 5.52137
      vertex -2 -12 6
    endloop
  endfacet
  facet normal 0 -1 0
    outer loop
      vertex -3.99241 -12 6.24624
      vertex -1.77091 -12 5.07055
      vertex -1.94188 -12 5.52137
    endloop
  endfacet
  facet normal 0 -1 0
    outer loop
      vertex -3.99241 -12 6.24624
      vertex -1.49702 -12 4.67375
      vertex -1.77091 -12 5.07055
    endloop
  endfacet
  facet normal 0 -1 0
    outer loop
      vertex -1.49702 -12 -4.67375
      vertex -1.49702 -12 4.67375
      vertex -3.99241 -12 6.24624
    endloop
  endfacet
  facet normal 0 -1 0
    outer loop
      vertex -0.241073 -12 4.01458
      vertex -0.241073 -12 -4.01458
      vertex 0.241073 -12 4.01458
    endloop
  endfacet
  facet normal 0 -1 0
    outer loop
      vertex -0.70921 -12 4.12997
      vertex -0.241073 -12 -4.01458
      vertex -0.241073 -12 4.01458
    endloop
  endfacet
  facet normal 0 -1 0
    outer loop
      vertex -0.70921 -12 -4.12997
      vertex -0.70921 -12 4.12997
      vertex -1.13613 -12 4.35403
    endloop
  endfacet
  facet normal 0 -1 0
    outer loop
      vertex -1.49702 -12 4.67375
      vertex -1.49702 -12 -4.67375
      vertex -1.13613 -12 4.35403
    endloop
  endfacet
  facet normal 0 -1 0
    outer loop
      vertex -0.70921 -12 4.12997
      vertex -0.70921 -12 -4.12997
      vertex -0.241073 -12 -4.01458
    endloop
  endfacet
  facet normal 0 -1 0
    outer loop
      vertex -1.13613 -12 4.35403
      vertex -1.13613 -12 -4.35403
      vertex -0.70921 -12 -4.12997
    endloop
  endfacet
  facet normal 0 -1 -0
    outer loop
      vertex -1.13613 -12 4.35403
      vertex -1.49702 -12 -4.67375
      vertex -1.13613 -12 -4.35403
    endloop
  endfacet
  facet normal 0 -1 0
    outer loop
      vertex -3.99241 -12 -6.24624
      vertex -1.49702 -12 -4.67375
      vertex -3.99241 -12 6.24624
    endloop
  endfacet
  facet normal 0 -1 0
    outer loop
      vertex -1.49702 -12 -4.67375
      vertex -3.99241 -12 -6.24624
      vertex -1.77091 -12 -5.07055
    endloop
  endfacet
  facet normal 0 -1 0
    outer loop
      vertex -1.77091 -12 -5.07055
      vertex -3.99241 -12 -6.24624
      vertex -1.94188 -12 -5.52137
    endloop
  endfacet
  facet normal 0 -1 0
    outer loop
      vertex -1.94188 -12 -5.52137
      vertex -3.99241 -12 -6.24624
      vertex -2 -12 -6
    endloop
  endfacet
  facet normal 0 -1 0
    outer loop
      vertex -3.99241 -12 -6.24624
      vertex -1.94188 -12 -6.47863
      vertex -2 -12 -6
    endloop
  endfacet
  facet normal 0 -1 0
    outer loop
      vertex -3.93189 -12 -6.735
      vertex -1.94188 -12 -6.47863
      vertex -3.99241 -12 -6.24624
    endloop
  endfacet
  facet normal 0 -1 0
    outer loop
      vertex -3.81177 -12 -7.21261
      vertex -1.94188 -12 -6.47863
      vertex -3.93189 -12 -6.735
    endloop
  endfacet
  facet normal 0 -1 -0
    outer loop
      vertex -1.94188 -12 -6.47863
      vertex -3.81177 -12 -7.21261
      vertex -1.77091 -12 -6.92945
    endloop
  endfacet
  facet normal 0 -1 0
    outer loop
      vertex -3.63386 -12 -7.67184
      vertex -1.77091 -12 -6.92945
      vertex -3.81177 -12 -7.21261
    endloop
  endfacet
  facet normal 0 -1 0
    outer loop
      vertex -3.40087 -12 -8.10573
      vertex -1.77091 -12 -6.92945
      vertex -3.63386 -12 -7.67184
    endloop
  endfacet
  facet normal 0 -1 -0
    outer loop
      vertex -1.77091 -12 -6.92945
      vertex -3.40087 -12 -8.10573
      vertex -1.49702 -12 -7.32625
    endloop
  endfacet
  facet normal 0 -1 0
    outer loop
      vertex -3.11632 -12 -8.5077
      vertex -1.49702 -12 -7.32625
      vertex -3.40087 -12 -8.10573
    endloop
  endfacet
  facet normal 0 -1 0
    outer loop
      vertex -2.78454 -12 -8.87165
      vertex -1.49702 -12 -7.32625
      vertex -3.11632 -12 -8.5077
    endloop
  endfacet
  facet normal 0 -1 0
    outer loop
      vertex -2.41054 -12 -9.19207
      vertex -1.13613 -12 -7.64597
      vertex -2.78454 -12 -8.87165
    endloop
  endfacet
  facet normal 0 -1 -0
    outer loop
      vertex -1.49702 -12 -7.32625
      vertex -2.78454 -12 -8.87165
      vertex -1.13613 -12 -7.64597
    endloop
  endfacet
  facet normal 0 -1 0
    outer loop
      vertex -0.241073 -12 7.98542
      vertex -0.12318 -12 9.9981
      vertex -0.613567 -12 9.95266
    endloop
  endfacet
  facet normal 0 -1 0
    outer loop
      vertex 0.241073 -12 7.98542
      vertex -0.12318 -12 9.9981
      vertex -0.241073 -12 7.98542
    endloop
  endfacet
  facet normal 0 -1 0
    outer loop
      vertex -0.241073 -12 7.98542
      vertex -0.613567 -12 9.95266
      vertex -1.09465 -12 9.8473
    endloop
  endfacet
  facet normal 0 -1 0
    outer loop
      vertex -0.12318 -12 9.9981
      vertex 0.241073 -12 7.98542
      vertex 0.369073 -12 9.98294
    endloop
  endfacet
  facet normal 0 -1 0
    outer loop
      vertex -0.70921 -12 7.87003
      vertex -1.09465 -12 9.8473
      vertex -1.55914 -12 9.68362
    endloop
  endfacet
  facet normal 0 -1 -0
    outer loop
      vertex 0.369073 -12 9.98294
      vertex 0.241073 -12 7.98542
      vertex 0.855732 -12 9.90739
    endloop
  endfacet
  facet normal 0 -1 0
    outer loop
      vertex -0.70921 -12 7.87003
      vertex -1.55914 -12 9.68362
      vertex -2 -12 9.4641
    endloop
  endfacet
  facet normal 0 -1 0
    outer loop
      vertex 0.70921 -12 7.87003
      vertex 0.855732 -12 9.90739
      vertex 0.241073 -12 7.98542
    endloop
  endfacet
  facet normal 0 -1 0
    outer loop
      vertex -0.70921 -12 7.87003
      vertex -2 -12 9.4641
      vertex -2.41054 -12 9.19207
    endloop
  endfacet
  facet normal 0 -1 -0
    outer loop
      vertex 0.855732 -12 9.90739
      vertex 0.70921 -12 7.87003
      vertex 1.32942 -12 9.77262
    endloop
  endfacet
  facet normal 0 -1 0
    outer loop
      vertex -0.70921 -12 7.87003
      vertex -2.41054 -12 9.19207
      vertex -2.78454 -12 8.87165
    endloop
  endfacet
  facet normal 0 -1 -0
    outer loop
      vertex 1.32942 -12 9.77262
      vertex 0.70921 -12 7.87003
      vertex 1.78295 -12 9.58065
    endloop
  endfacet
  facet normal 0 -1 0
    outer loop
      vertex -0.70921 -12 7.87003
      vertex -2.78454 -12 8.87165
      vertex -3.11632 -12 8.5077
    endloop
  endfacet
  facet normal 0 -1 0
    outer loop
      vertex 1.13613 -12 7.64597
      vertex 1.78295 -12 9.58065
      vertex 0.70921 -12 7.87003
    endloop
  endfacet
  facet normal 0 -1 0
    outer loop
      vertex -1.49702 -12 7.32625
      vertex -3.11632 -12 8.5077
      vertex -3.40087 -12 8.10573
    endloop
  endfacet
  facet normal 0 -1 -0
    outer loop
      vertex 1.78295 -12 9.58065
      vertex 1.13613 -12 7.64597
      vertex 2.20946 -12 9.33441
    endloop
  endfacet
  facet normal 0 -1 -0
    outer loop
      vertex 2.20946 -12 9.33441
      vertex 1.13613 -12 7.64597
      vertex 2.60247 -12 9.03762
    endloop
  endfacet
  facet normal 0 -1 0
    outer loop
      vertex 1.49702 -12 7.32625
      vertex 2.60247 -12 9.03762
      vertex 1.13613 -12 7.64597
    endloop
  endfacet
  facet normal 0 -1 -0
    outer loop
      vertex 2.60247 -12 9.03762
      vertex 1.49702 -12 7.32625
      vertex 2.95604 -12 8.69478
    endloop
  endfacet
  facet normal 0 -1 -0
    outer loop
      vertex 2.95604 -12 8.69478
      vertex 1.49702 -12 7.32625
      vertex 3.26479 -12 8.3111
    endloop
  endfacet
  facet normal 0 -1 0
    outer loop
      vertex 1.77091 -12 6.92945
      vertex 3.26479 -12 8.3111
      vertex 1.49702 -12 7.32625
    endloop
  endfacet
  facet normal 0 -1 -0
    outer loop
      vertex 3.26479 -12 8.3111
      vertex 1.77091 -12 6.92945
      vertex 3.52405 -12 7.89237
    endloop
  endfacet
  facet normal 0 -1 -0
    outer loop
      vertex 3.52405 -12 7.89237
      vertex 1.77091 -12 6.92945
      vertex 3.72989 -12 7.44497
    endloop
  endfacet
  facet normal 0 -1 0
    outer loop
      vertex 1.94188 -12 6.47863
      vertex 3.72989 -12 7.44497
      vertex 1.77091 -12 6.92945
    endloop
  endfacet
  facet normal 0 -1 -0
    outer loop
      vertex 3.72989 -12 7.44497
      vertex 1.94188 -12 6.47863
      vertex 3.87919 -12 6.97566
    endloop
  endfacet
  facet normal 0 -1 -0
    outer loop
      vertex 3.87919 -12 6.97566
      vertex 1.94188 -12 6.47863
      vertex 3.96968 -12 6.49155
    endloop
  endfacet
  facet normal 0 -1 0
    outer loop
      vertex 2 -12 6
      vertex 3.96968 -12 6.49155
      vertex 1.94188 -12 6.47863
    endloop
  endfacet
  facet normal 0 -1 0
    outer loop
      vertex 2 -12 6
      vertex 4 -12 6
      vertex 3.96968 -12 6.49155
    endloop
  endfacet
  facet normal 0 -1 0
    outer loop
      vertex 1.94188 -12 5.52137
      vertex 4 -12 6
      vertex 2 -12 6
    endloop
  endfacet
  facet normal 0 -1 0
    outer loop
      vertex 1.77091 -12 5.07055
      vertex 4 -12 6
      vertex 1.94188 -12 5.52137
    endloop
  endfacet
  facet normal 0 -1 0
    outer loop
      vertex 1.49702 -12 4.67375
      vertex 4 -12 6
      vertex 1.77091 -12 5.07055
    endloop
  endfacet
  facet normal 0 -1 0
    outer loop
      vertex 1.49702 -12 -4.67375
      vertex 1.49702 -12 4.67375
      vertex 1.13613 -12 4.35403
    endloop
  endfacet
  facet normal 0 -1 0
    outer loop
      vertex 0.241073 -12 -4.01458
      vertex 0.241073 -12 4.01458
      vertex -0.241073 -12 -4.01458
    endloop
  endfacet
  facet normal 0 -1 0
    outer loop
      vertex 0.241073 -12 4.01458
      vertex 0.241073 -12 -4.01458
      vertex 0.70921 -12 4.12997
    endloop
  endfacet
  facet normal 0 -1 0
    outer loop
      vertex 0.70921 -12 -4.12997
      vertex 0.70921 -12 4.12997
      vertex 0.241073 -12 -4.01458
    endloop
  endfacet
  facet normal 0 -1 0
    outer loop
      vertex 0.70921 -12 4.12997
      vertex 0.70921 -12 -4.12997
      vertex 1.13613 -12 4.35403
    endloop
  endfacet
  facet normal 0 -1 0
    outer loop
      vertex 1.13613 -12 -4.35403
      vertex 1.13613 -12 4.35403
      vertex 0.70921 -12 -4.12997
    endloop
  endfacet
  facet normal 0 -1 0
    outer loop
      vertex 1.49702 -12 -4.67375
      vertex 1.13613 -12 4.35403
      vertex 1.13613 -12 -4.35403
    endloop
  endfacet
  facet normal 0 -1 0
    outer loop
      vertex 1.49702 -12 4.67375
      vertex 1.49702 -12 -4.67375
      vertex 4 -12 6
    endloop
  endfacet
  facet normal 0 -1 0
    outer loop
      vertex 4 -12 -6
      vertex 1.49702 -12 -4.67375
      vertex 1.77091 -12 -5.07055
    endloop
  endfacet
  facet normal 0 -1 0
    outer loop
      vertex 4 -12 -6
      vertex 1.77091 -12 -5.07055
      vertex 1.94188 -12 -5.52137
    endloop
  endfacet
  facet normal 0 -1 0
    outer loop
      vertex 4 -12 -6
      vertex 1.94188 -12 -5.52137
      vertex 2 -12 -6
    endloop
  endfacet
  facet normal 0 -1 0
    outer loop
      vertex 1.49702 -12 -4.67375
      vertex 4 -12 -6
      vertex 4 -12 6
    endloop
  endfacet
  facet normal 0 -1 0
    outer loop
      vertex 3.96968 -12 -6.49155
      vertex 2 -12 -6
      vertex 1.94188 -12 -6.47863
    endloop
  endfacet
  facet normal 0 -1 0
    outer loop
      vertex 2 -12 -6
      vertex 3.96968 -12 -6.49155
      vertex 4 -12 -6
    endloop
  endfacet
  facet normal 0 -1 0
    outer loop
      vertex 3.72989 -12 -7.44497
      vertex 1.94188 -12 -6.47863
      vertex 1.77091 -12 -6.92945
    endloop
  endfacet
  facet normal 0 -1 0
    outer loop
      vertex 1.94188 -12 -6.47863
      vertex 3.87919 -12 -6.97566
      vertex 3.96968 -12 -6.49155
    endloop
  endfacet
  facet normal 0 -1 0
    outer loop
      vertex 3.26479 -12 -8.3111
      vertex 1.77091 -12 -6.92945
      vertex 1.49702 -12 -7.32625
    endloop
  endfacet
  facet normal 0 -1 0
    outer loop
      vertex 1.94188 -12 -6.47863
      vertex 3.72989 -12 -7.44497
      vertex 3.87919 -12 -6.97566
    endloop
  endfacet
  facet normal 0 -1 0
    outer loop
      vertex 2.60247 -12 -9.03762
      vertex 1.49702 -12 -7.32625
      vertex 1.13613 -12 -7.64597
    endloop
  endfacet
  facet normal 0 -1 0
    outer loop
      vertex 1.78295 -12 -9.58065
      vertex 1.13613 -12 -7.64597
      vertex 0.70921 -12 -7.87003
    endloop
  endfacet
  facet normal 0 -1 0
    outer loop
      vertex 1.77091 -12 -6.92945
      vertex 3.52405 -12 -7.89237
      vertex 3.72989 -12 -7.44497
    endloop
  endfacet
  facet normal 0 -1 0
    outer loop
      vertex 0.855732 -12 -9.90739
      vertex 0.70921 -12 -7.87003
      vertex 0.241073 -12 -7.98542
    endloop
  endfacet
  facet normal 0 -1 0
    outer loop
      vertex -2 -12 -9.4641
      vertex -1.13613 -12 -7.64597
      vertex -2.41054 -12 -9.19207
    endloop
  endfacet
  facet normal 0 -1 0
    outer loop
      vertex 1.77091 -12 -6.92945
      vertex 3.26479 -12 -8.3111
      vertex 3.52405 -12 -7.89237
    endloop
  endfacet
  facet normal 0 -1 -0
    outer loop
      vertex -1.13613 -12 -7.64597
      vertex -2 -12 -9.4641
      vertex -0.70921 -12 -7.87003
    endloop
  endfacet
  facet normal 0 -1 0
    outer loop
      vertex 1.49702 -12 -7.32625
      vertex 2.95604 -12 -8.69478
      vertex 3.26479 -12 -8.3111
    endloop
  endfacet
  facet normal 0 -1 0
    outer loop
      vertex -1.55914 -12 -9.68362
      vertex -0.70921 -12 -7.87003
      vertex -2 -12 -9.4641
    endloop
  endfacet
  facet normal 0 -1 0
    outer loop
      vertex 1.49702 -12 -7.32625
      vertex 2.60247 -12 -9.03762
      vertex 2.95604 -12 -8.69478
    endloop
  endfacet
  facet normal 0 -1 0
    outer loop
      vertex -1.09465 -12 -9.8473
      vertex -0.70921 -12 -7.87003
      vertex -1.55914 -12 -9.68362
    endloop
  endfacet
  facet normal 0 -1 0
    outer loop
      vertex 1.13613 -12 -7.64597
      vertex 2.20946 -12 -9.33441
      vertex 2.60247 -12 -9.03762
    endloop
  endfacet
  facet normal 0 -1 -0
    outer loop
      vertex -0.70921 -12 -7.87003
      vertex -1.09465 -12 -9.8473
      vertex -0.241073 -12 -7.98542
    endloop
  endfacet
  facet normal 0 -1 0
    outer loop
      vertex 1.13613 -12 -7.64597
      vertex 1.78295 -12 -9.58065
      vertex 2.20946 -12 -9.33441
    endloop
  endfacet
  facet normal 0 -1 0
    outer loop
      vertex -0.613567 -12 -9.95266
      vertex -0.241073 -12 -7.98542
      vertex -1.09465 -12 -9.8473
    endloop
  endfacet
  facet normal 0 -1 0
    outer loop
      vertex 0.70921 -12 -7.87003
      vertex 1.32942 -12 -9.77262
      vertex 1.78295 -12 -9.58065
    endloop
  endfacet
  facet normal 0 -1 0
    outer loop
      vertex -0.12318 -12 -9.9981
      vertex -0.241073 -12 -7.98542
      vertex -0.613567 -12 -9.95266
    endloop
  endfacet
  facet normal 0 -1 0
    outer loop
      vertex 0.70921 -12 -7.87003
      vertex 0.855732 -12 -9.90739
      vertex 1.32942 -12 -9.77262
    endloop
  endfacet
  facet normal 0 -1 0
    outer loop
      vertex -0.241073 -12 -7.98542
      vertex -0.12318 -12 -9.9981
      vertex 0.241073 -12 -7.98542
    endloop
  endfacet
  facet normal 0 -1 0
    outer loop
      vertex 0.241073 -12 -7.98542
      vertex 0.369073 -12 -9.98294
      vertex 0.855732 -12 -9.90739
    endloop
  endfacet
  facet normal 0 -1 -0
    outer loop
      vertex 0.241073 -12 -7.98542
      vertex -0.12318 -12 -9.9981
      vertex 0.369073 -12 -9.98294
    endloop
  endfacet
  facet normal -0.932472 0 0.361242
    outer loop
      vertex -3.81177 -12 7.21261
      vertex -3.63386 12 7.67184
      vertex -3.81177 12 7.21261
    endloop
  endfacet
  facet normal -0.932472 0 0.361242
    outer loop
      vertex -3.63386 12 7.67184
      vertex -3.81177 -12 7.21261
      vertex -3.63386 -12 7.67184
    endloop
  endfacet
  facet normal 1 0 0
    outer loop
      vertex 4 12 6
      vertex 4 2.5 7.35098e-16
      vertex 4 12 -6
    endloop
  endfacet
  facet normal 1 0 0
    outer loop
      vertex 4 12 6
      vertex 4 2.4997 0.00301065
      vertex 4 2.5 7.35098e-16
    endloop
  endfacet
  facet normal 1 0 0
    outer loop
      vertex 4 12 6
      vertex 4 2.45196 0.487726
      vertex 4 2.4997 0.00301065
    endloop
  endfacet
  facet normal 1 0 0
    outer loop
      vertex 4 12 6
      vertex 4 2.3097 0.956709
      vertex 4 2.45196 0.487726
    endloop
  endfacet
  facet normal 1 0 0
    outer loop
      vertex 4 12 6
      vertex 4 2.07867 1.38893
      vertex 4 2.3097 0.956709
    endloop
  endfacet
  facet normal 1 0 0
    outer loop
      vertex 4 12 6
      vertex 4 1.76777 1.76777
      vertex 4 2.07867 1.38893
    endloop
  endfacet
  facet normal 1 0 0
    outer loop
      vertex 4 12 6
      vertex 4 1.38893 2.07867
      vertex 4 1.76777 1.76777
    endloop
  endfacet
  facet normal 1 0 0
    outer loop
      vertex 4 12 6
      vertex 4 0.956709 2.3097
      vertex 4 1.38893 2.07867
    endloop
  endfacet
  facet normal 1 0 0
    outer loop
      vertex 4 12 6
      vertex 4 0.487726 2.45196
      vertex 4 0.956709 2.3097
    endloop
  endfacet
  facet normal 1 0 0
    outer loop
      vertex 4 12 6
      vertex 4 3.06162e-16 2.5
      vertex 4 0.487726 2.45196
    endloop
  endfacet
  facet normal 1 -0 0
    outer loop
      vertex 4 -12 6
      vertex 4 3.06162e-16 2.5
      vertex 4 12 6
    endloop
  endfacet
  facet normal 1 0 0
    outer loop
      vertex 4 -12 6
      vertex 4 -2.4997 0.00301065
      vertex 4 -2.45196 0.487726
    endloop
  endfacet
  facet normal 1 0 0
    outer loop
      vertex 4 -2.4997 0.00301065
      vertex 4 -12 6
      vertex 4 -2.5 1.34742e-15
    endloop
  endfacet
  facet normal 1 0 0
    outer loop
      vertex 4 -2.3097 0.956709
      vertex 4 -12 6
      vertex 4 -2.45196 0.487726
    endloop
  endfacet
  facet normal 1 0 0
    outer loop
      vertex 4 -2.07867 1.38893
      vertex 4 -12 6
      vertex 4 -2.3097 0.956709
    endloop
  endfacet
  facet normal 1 0 0
    outer loop
      vertex 4 -1.76777 1.76777
      vertex 4 -12 6
      vertex 4 -2.07867 1.38893
    endloop
  endfacet
  facet normal 1 0 0
    outer loop
      vertex 4 -1.38893 2.07867
      vertex 4 -12 6
      vertex 4 -1.76777 1.76777
    endloop
  endfacet
  facet normal 1 0 0
    outer loop
      vertex 4 -0.956709 2.3097
      vertex 4 -12 6
      vertex 4 -1.38893 2.07867
    endloop
  endfacet
  facet normal 1 0 0
    outer loop
      vertex 4 -0.487726 2.45196
      vertex 4 -12 6
      vertex 4 -0.956709 2.3097
    endloop
  endfacet
  facet normal 1 0 0
    outer loop
      vertex 4 3.06162e-16 2.5
      vertex 4 -12 6
      vertex 4 -0.487726 2.45196
    endloop
  endfacet
  facet normal 1 -0 0
    outer loop
      vertex 4 2.45226 -0.484715
      vertex 4 12 -6
      vertex 4 2.5 7.35098e-16
    endloop
  endfacet
  facet normal 1 -0 0
    outer loop
      vertex 4 2.45196 -0.487726
      vertex 4 12 -6
      vertex 4 2.45226 -0.484715
    endloop
  endfacet
  facet normal 1 -0 0
    outer loop
      vertex 4 2.3097 -0.956709
      vertex 4 12 -6
      vertex 4 2.45196 -0.487726
    endloop
  endfacet
  facet normal 1 -0 0
    outer loop
      vertex 4 2.07867 -1.38893
      vertex 4 12 -6
      vertex 4 2.3097 -0.956709
    endloop
  endfacet
  facet normal 1 -0 0
    outer loop
      vertex 4 1.76777 -1.76777
      vertex 4 12 -6
      vertex 4 2.07867 -1.38893
    endloop
  endfacet
  facet normal 1 -0 0
    outer loop
      vertex 4 1.38893 -2.07867
      vertex 4 12 -6
      vertex 4 1.76777 -1.76777
    endloop
  endfacet
  facet normal 1 -0 0
    outer loop
      vertex 4 0.956709 -2.3097
      vertex 4 12 -6
      vertex 4 1.38893 -2.07867
    endloop
  endfacet
  facet normal 1 -0 0
    outer loop
      vertex 4 0.487726 -2.45196
      vertex 4 12 -6
      vertex 4 0.956709 -2.3097
    endloop
  endfacet
  facet normal 1 -0 0
    outer loop
      vertex 4 0 -2.5
      vertex 4 12 -6
      vertex 4 0.487726 -2.45196
    endloop
  endfacet
  facet normal 1 0 0
    outer loop
      vertex 4 -12 -6
      vertex 4 0 -2.5
      vertex 4 -0.487726 -2.45196
    endloop
  endfacet
  facet normal 1 0 0
    outer loop
      vertex 4 -12 -6
      vertex 4 -2.5 1.34742e-15
      vertex 4 -12 6
    endloop
  endfacet
  facet normal 1 0 0
    outer loop
      vertex 4 -2.5 1.34742e-15
      vertex 4 -12 -6
      vertex 4 -2.45226 -0.484715
    endloop
  endfacet
  facet normal 1 0 0
    outer loop
      vertex 4 -2.45226 -0.484715
      vertex 4 -12 -6
      vertex 4 -2.45196 -0.487726
    endloop
  endfacet
  facet normal 1 0 0
    outer loop
      vertex 4 -2.45196 -0.487726
      vertex 4 -12 -6
      vertex 4 -2.3097 -0.956709
    endloop
  endfacet
  facet normal 1 0 0
    outer loop
      vertex 4 -2.3097 -0.956709
      vertex 4 -12 -6
      vertex 4 -2.07867 -1.38893
    endloop
  endfacet
  facet normal 1 0 0
    outer loop
      vertex 4 -2.07867 -1.38893
      vertex 4 -12 -6
      vertex 4 -1.76777 -1.76777
    endloop
  endfacet
  facet normal 1 0 0
    outer loop
      vertex 4 0 -2.5
      vertex 4 -12 -6
      vertex 4 12 -6
    endloop
  endfacet
  facet normal 1 0 0
    outer loop
      vertex 4 -0.956709 -2.3097
      vertex 4 -12 -6
      vertex 4 -0.487726 -2.45196
    endloop
  endfacet
  facet normal 1 0 0
    outer loop
      vertex 4 -1.38893 -2.07867
      vertex 4 -12 -6
      vertex 4 -0.956709 -2.3097
    endloop
  endfacet
  facet normal 1 0 0
    outer loop
      vertex 4 -1.76777 -1.76777
      vertex 4 -12 -6
      vertex 4 -1.38893 -2.07867
    endloop
  endfacet
  facet normal 0.77908 -0 0.626924
    outer loop
      vertex 2.95604 -12 8.69478
      vertex 3.26479 12 8.3111
      vertex 2.95604 12 8.69478
    endloop
  endfacet
  facet normal 0.77908 0 0.626924
    outer loop
      vertex 3.26479 12 8.3111
      vertex 2.95604 -12 8.69478
      vertex 3.26479 -12 8.3111
    endloop
  endfacet
  facet normal -0.213933 0 0.976848
    outer loop
      vertex -0.613567 12 9.95266
      vertex -1.09465 -12 9.8473
      vertex -0.613567 -12 9.95266
    endloop
  endfacet
  facet normal -0.445739 0 0.895163
    outer loop
      vertex -2 12 9.4641
      vertex -1.55914 -12 9.68362
      vertex -1.55914 12 9.68362
    endloop
  endfacet
  facet normal -0.445739 0 0.895163
    outer loop
      vertex -1.55914 -12 9.68362
      vertex -2 12 9.4641
      vertex -2 -12 9.4641
    endloop
  endfacet
  facet normal -0.992421 0 0.122888
    outer loop
      vertex -3.99241 -12 6.24624
      vertex -3.93189 12 6.735
      vertex -3.99241 12 6.24624
    endloop
  endfacet
  facet normal -0.992421 0 0.122888
    outer loop
      vertex -3.93189 12 6.735
      vertex -3.99241 -12 6.24624
      vertex -3.93189 -12 6.735
    endloop
  endfacet
  facet normal 0.850217 0 -0.526432
    outer loop
      vertex 3.52405 -12 -7.89237
      vertex 3.26479 12 -8.3111
      vertex 3.52405 12 -7.89237
    endloop
  endfacet
  facet normal 0.850217 0 -0.526432
    outer loop
      vertex 3.26479 12 -8.3111
      vertex 3.52405 -12 -7.89237
      vertex 3.26479 -12 -8.3111
    endloop
  endfacet
  facet normal 0.696134 0 -0.717912
    outer loop
      vertex 2.60247 -12 -9.03762
      vertex 2.95604 12 -8.69478
      vertex 2.95604 -12 -8.69478
    endloop
  endfacet
  facet normal 0.696134 0 -0.717912
    outer loop
      vertex 2.95604 12 -8.69478
      vertex 2.60247 -12 -9.03762
      vertex 2.60247 12 -9.03762
    endloop
  endfacet
  facet normal 0.153392 0 -0.988165
    outer loop
      vertex 0.369073 -12 -9.98294
      vertex 0.855732 12 -9.90739
      vertex 0.855732 -12 -9.90739
    endloop
  endfacet
  facet normal 0.153392 0 -0.988165
    outer loop
      vertex 0.855732 12 -9.90739
      vertex 0.369073 -12 -9.98294
      vertex 0.369073 12 -9.98294
    endloop
  endfacet
  facet normal -0.552365 0 -0.833602
    outer loop
      vertex -2 -12 -9.4641
      vertex -2.41054 -12 -9.19207
      vertex -2.41054 12 -9.19207
    endloop
  endfacet
  facet normal 0.952942 -0 0.303153
    outer loop
      vertex 3.72989 -12 7.44497
      vertex 3.87919 12 6.97566
      vertex 3.72989 12 7.44497
    endloop
  endfacet
  facet normal 0.952942 0 0.303153
    outer loop
      vertex 3.87919 12 6.97566
      vertex 3.72989 -12 7.44497
      vertex 3.87919 -12 6.97566
    endloop
  endfacet
  facet normal 0.602635 0 0.798017
    outer loop
      vertex 2.20946 12 9.33441
      vertex 2.60247 -12 9.03762
      vertex 2.60247 12 9.03762
    endloop
  endfacet
  facet normal 0.602635 0 0.798017
    outer loop
      vertex 2.60247 -12 9.03762
      vertex 2.20946 12 9.33441
      vertex 2.20946 -12 9.33441
    endloop
  endfacet
  facet normal 0.273664 0 0.961825
    outer loop
      vertex 0.855732 12 9.90739
      vertex 0.855732 -12 9.90739
      vertex 1.32942 -12 9.77262
    endloop
  endfacet
  facet normal -0.816196 0 0.577774
    outer loop
      vertex -3.40087 -12 8.10573
      vertex -3.11632 12 8.5077
      vertex -3.40087 12 8.10573
    endloop
  endfacet
  facet normal -0.816196 0 0.577774
    outer loop
      vertex -3.11632 12 8.5077
      vertex -3.40087 -12 8.10573
      vertex -3.11632 -12 8.5077
    endloop
  endfacet
  facet normal -0.0922696 0 0.995734
    outer loop
      vertex -0.613567 12 9.95266
      vertex -0.613567 -12 9.95266
      vertex -0.12318 -12 9.9981
    endloop
  endfacet
  facet normal -0.332354 0 0.943155
    outer loop
      vertex -1.09465 12 9.8473
      vertex -1.55914 12 9.68362
      vertex -1.09465 -12 9.8473
    endloop
  endfacet
  facet normal -0.213933 0 0.976848
    outer loop
      vertex -1.09465 12 9.8473
      vertex -1.09465 -12 9.8473
      vertex -0.613567 12 9.95266
    endloop
  endfacet
  facet normal -0.881013 0 0.473093
    outer loop
      vertex -3.63386 -12 7.67184
      vertex -3.40087 12 8.10573
      vertex -3.63386 12 7.67184
    endloop
  endfacet
  facet normal -0.881013 0 0.473093
    outer loop
      vertex -3.40087 12 8.10573
      vertex -3.63386 -12 7.67184
      vertex -3.40087 -12 8.10573
    endloop
  endfacet
  facet normal -0.969797 0 0.243914
    outer loop
      vertex -3.93189 -12 6.735
      vertex -3.81177 12 7.21261
      vertex -3.93189 12 6.735
    endloop
  endfacet
  facet normal -0.969797 0 0.243914
    outer loop
      vertex -3.81177 12 7.21261
      vertex -3.93189 -12 6.735
      vertex -3.81177 -12 7.21261
    endloop
  endfacet
  facet normal 0.982973 0 -0.183749
    outer loop
      vertex 3.96968 -12 -6.49155
      vertex 3.87919 12 -6.97566
      vertex 3.96968 12 -6.49155
    endloop
  endfacet
  facet normal 0.982973 0 -0.183749
    outer loop
      vertex 3.87919 12 -6.97566
      vertex 3.96968 -12 -6.49155
      vertex 3.87919 -12 -6.97566
    endloop
  endfacet
  facet normal 0.998103 0 -0.061561
    outer loop
      vertex 4 -12 -6
      vertex 3.96968 12 -6.49155
      vertex 4 12 -6
    endloop
  endfacet
  facet normal 0.998103 0 -0.061561
    outer loop
      vertex 3.96968 12 -6.49155
      vertex 4 -12 -6
      vertex 3.96968 -12 -6.49155
    endloop
  endfacet
  facet normal 0.908465 0 -0.417961
    outer loop
      vertex 3.72989 -12 -7.44497
      vertex 3.52405 12 -7.89237
      vertex 3.72989 12 -7.44497
    endloop
  endfacet
  facet normal 0.908465 0 -0.417961
    outer loop
      vertex 3.52405 12 -7.89237
      vertex 3.72989 -12 -7.44497
      vertex 3.52405 -12 -7.89237
    endloop
  endfacet
  facet normal 0.5 0 -0.866025
    outer loop
      vertex 1.78295 -12 -9.58065
      vertex 2.20946 12 -9.33441
      vertex 2.20946 -12 -9.33441
    endloop
  endfacet
  facet normal 0.5 0 -0.866025
    outer loop
      vertex 2.20946 12 -9.33441
      vertex 1.78295 -12 -9.58065
      vertex 1.78295 12 -9.58065
    endloop
  endfacet
  facet normal 0.389785 0 -0.920906
    outer loop
      vertex 1.32942 -12 -9.77262
      vertex 1.78295 12 -9.58065
      vertex 1.78295 -12 -9.58065
    endloop
  endfacet
  facet normal 0.389785 0 -0.920906
    outer loop
      vertex 1.78295 12 -9.58065
      vertex 1.32942 -12 -9.77262
      vertex 1.32942 12 -9.77262
    endloop
  endfacet
  facet normal 0.602635 0 -0.798017
    outer loop
      vertex 2.20946 -12 -9.33441
      vertex 2.60247 12 -9.03762
      vertex 2.60247 -12 -9.03762
    endloop
  endfacet
  facet normal 0.602635 0 -0.798017
    outer loop
      vertex 2.60247 12 -9.03762
      vertex 2.20946 -12 -9.33441
      vertex 2.20946 12 -9.33441
    endloop
  endfacet
  facet normal 0.0307953 0 -0.999526
    outer loop
      vertex -0.12318 -12 -9.9981
      vertex 0.369073 12 -9.98294
      vertex 0.369073 -12 -9.98294
    endloop
  endfacet
  facet normal 0.0307953 0 -0.999526
    outer loop
      vertex 0.369073 12 -9.98294
      vertex -0.12318 -12 -9.9981
      vertex -0.12318 12 -9.9981
    endloop
  endfacet
  facet normal 0.982973 -0 0.183749
    outer loop
      vertex 3.87919 -12 6.97566
      vertex 3.96968 12 6.49155
      vertex 3.87919 12 6.97566
    endloop
  endfacet
  facet normal 0.982973 0 0.183749
    outer loop
      vertex 3.96968 12 6.49155
      vertex 3.87919 -12 6.97566
      vertex 3.96968 -12 6.49155
    endloop
  endfacet
  facet normal 0.696134 0 0.717912
    outer loop
      vertex 2.60247 12 9.03762
      vertex 2.95604 -12 8.69478
      vertex 2.95604 12 8.69478
    endloop
  endfacet
  facet normal 0.696134 0 0.717912
    outer loop
      vertex 2.95604 -12 8.69478
      vertex 2.60247 12 9.03762
      vertex 2.60247 -12 9.03762
    endloop
  endfacet
  facet normal 0.389785 0 0.920906
    outer loop
      vertex 1.78295 12 9.58065
      vertex 1.32942 -12 9.77262
      vertex 1.78295 -12 9.58065
    endloop
  endfacet
  facet normal -0.739009 0 0.673695
    outer loop
      vertex -3.11632 -12 8.5077
      vertex -2.78454 12 8.87165
      vertex -3.11632 12 8.5077
    endloop
  endfacet
  facet normal -0.739009 0 0.673695
    outer loop
      vertex -2.78454 12 8.87165
      vertex -3.11632 -12 8.5077
      vertex -2.78454 -12 8.87165
    endloop
  endfacet
  facet normal -0.332354 0 0.943155
    outer loop
      vertex -1.55914 12 9.68362
      vertex -1.55914 -12 9.68362
      vertex -1.09465 -12 9.8473
    endloop
  endfacet
  facet normal 0.952942 0 -0.303153
    outer loop
      vertex 3.87919 -12 -6.97566
      vertex 3.72989 12 -7.44497
      vertex 3.87919 12 -6.97566
    endloop
  endfacet
  facet normal 0.952942 0 -0.303153
    outer loop
      vertex 3.72989 12 -7.44497
      vertex 3.87919 -12 -6.97566
      vertex 3.72989 -12 -7.44497
    endloop
  endfacet
  facet normal 0.77908 0 -0.626924
    outer loop
      vertex 3.26479 -12 -8.3111
      vertex 2.95604 12 -8.69478
      vertex 3.26479 12 -8.3111
    endloop
  endfacet
  facet normal 0.77908 0 -0.626924
    outer loop
      vertex 2.95604 12 -8.69478
      vertex 3.26479 -12 -8.3111
      vertex 2.95604 -12 -8.69478
    endloop
  endfacet
  facet normal 0.273664 0 -0.961825
    outer loop
      vertex 0.855732 -12 -9.90739
      vertex 1.32942 12 -9.77262
      vertex 1.32942 -12 -9.77262
    endloop
  endfacet
  facet normal 0.273664 0 -0.961825
    outer loop
      vertex 1.32942 12 -9.77262
      vertex 0.855732 -12 -9.90739
      vertex 0.855732 12 -9.90739
    endloop
  endfacet
  facet normal -0.213933 0 -0.976848
    outer loop
      vertex -1.09465 -12 -9.8473
      vertex -0.613567 12 -9.95266
      vertex -0.613567 -12 -9.95266
    endloop
  endfacet
  facet normal -0.213933 0 -0.976848
    outer loop
      vertex -0.613567 12 -9.95266
      vertex -1.09465 -12 -9.8473
      vertex -1.09465 12 -9.8473
    endloop
  endfacet
  facet normal -0.0922696 0 -0.995734
    outer loop
      vertex -0.613567 -12 -9.95266
      vertex -0.12318 12 -9.9981
      vertex -0.12318 -12 -9.9981
    endloop
  endfacet
  facet normal -0.0922696 0 -0.995734
    outer loop
      vertex -0.12318 12 -9.9981
      vertex -0.613567 -12 -9.95266
      vertex -0.613567 12 -9.95266
    endloop
  endfacet
  facet normal -0.816196 0 -0.577774
    outer loop
      vertex -3.11632 -12 -8.5077
      vertex -3.40087 12 -8.10573
      vertex -3.11632 12 -8.5077
    endloop
  endfacet
  facet normal -0.932472 0 -0.361242
    outer loop
      vertex -3.63386 -12 -7.67184
      vertex -3.81177 12 -7.21261
      vertex -3.63386 12 -7.67184
    endloop
  endfacet
  facet normal -0.932472 -0 -0.361242
    outer loop
      vertex -3.81177 12 -7.21261
      vertex -3.63386 -12 -7.67184
      vertex -3.81177 -12 -7.21261
    endloop
  endfacet
  facet normal -0.969797 0 -0.243914
    outer loop
      vertex -3.81177 -12 -7.21261
      vertex -3.93189 12 -6.735
      vertex -3.81177 12 -7.21261
    endloop
  endfacet
  facet normal -0.969797 -0 -0.243914
    outer loop
      vertex -3.93189 12 -6.735
      vertex -3.81177 -12 -7.21261
      vertex -3.93189 -12 -6.735
    endloop
  endfacet
  facet normal -0.739009 0 -0.673695
    outer loop
      vertex -2.78454 12 -8.87165
      vertex -3.11632 -12 -8.5077
      vertex -3.11632 12 -8.5077
    endloop
  endfacet
  facet normal 0.908465 -0 0.417961
    outer loop
      vertex 3.52405 -12 7.89237
      vertex 3.72989 12 7.44497
      vertex 3.52405 12 7.89237
    endloop
  endfacet
  facet normal 0.908465 0 0.417961
    outer loop
      vertex 3.72989 12 7.44497
      vertex 3.52405 -12 7.89237
      vertex 3.72989 -12 7.44497
    endloop
  endfacet
  facet normal 0.850217 -0 0.526432
    outer loop
      vertex 3.26479 -12 8.3111
      vertex 3.52405 12 7.89237
      vertex 3.26479 12 8.3111
    endloop
  endfacet
  facet normal 0.850217 0 0.526432
    outer loop
      vertex 3.52405 12 7.89237
      vertex 3.26479 -12 8.3111
      vertex 3.52405 -12 7.89237
    endloop
  endfacet
  facet normal 0.273664 0 0.961825
    outer loop
      vertex 1.32942 12 9.77262
      vertex 0.855732 12 9.90739
      vertex 1.32942 -12 9.77262
    endloop
  endfacet
  facet normal 0.389785 0 0.920906
    outer loop
      vertex 1.32942 12 9.77262
      vertex 1.32942 -12 9.77262
      vertex 1.78295 12 9.58065
    endloop
  endfacet
  facet normal 0.5 0 0.866025
    outer loop
      vertex 1.78295 12 9.58065
      vertex 2.20946 -12 9.33441
      vertex 2.20946 12 9.33441
    endloop
  endfacet
  facet normal 0.5 0 0.866025
    outer loop
      vertex 2.20946 -12 9.33441
      vertex 1.78295 12 9.58065
      vertex 1.78295 -12 9.58065
    endloop
  endfacet
  facet normal -0.0922696 0 0.995734
    outer loop
      vertex -0.12318 12 9.9981
      vertex -0.613567 12 9.95266
      vertex -0.12318 -12 9.9981
    endloop
  endfacet
  facet normal 0.0307953 0 0.999526
    outer loop
      vertex -0.12318 12 9.9981
      vertex 0.369073 -12 9.98294
      vertex 0.369073 12 9.98294
    endloop
  endfacet
  facet normal 0.0307953 0 0.999526
    outer loop
      vertex 0.369073 -12 9.98294
      vertex -0.12318 12 9.9981
      vertex -0.12318 -12 9.9981
    endloop
  endfacet
  facet normal 0.153392 0 0.988165
    outer loop
      vertex 0.369073 12 9.98294
      vertex 0.855732 -12 9.90739
      vertex 0.855732 12 9.90739
    endloop
  endfacet
  facet normal 0.153392 0 0.988165
    outer loop
      vertex 0.855732 -12 9.90739
      vertex 0.369073 12 9.98294
      vertex 0.369073 -12 9.98294
    endloop
  endfacet
  facet normal -0.650618 0 0.759405
    outer loop
      vertex -2.78454 12 8.87165
      vertex -2.41054 -12 9.19207
      vertex -2.41054 12 9.19207
    endloop
  endfacet
  facet normal -0.650618 0 0.759405
    outer loop
      vertex -2.41054 -12 9.19207
      vertex -2.78454 12 8.87165
      vertex -2.78454 -12 8.87165
    endloop
  endfacet
  facet normal -0.552365 0 0.833602
    outer loop
      vertex -2.41054 12 9.19207
      vertex -2 -12 9.4641
      vertex -2 12 9.4641
    endloop
  endfacet
  facet normal -0.552365 0 0.833602
    outer loop
      vertex -2 -12 9.4641
      vertex -2.41054 12 9.19207
      vertex -2.41054 -12 9.19207
    endloop
  endfacet
  facet normal -0.816196 0 -0.577774
    outer loop
      vertex -3.11632 -12 -8.5077
      vertex -3.40087 -12 -8.10573
      vertex -3.40087 12 -8.10573
    endloop
  endfacet
  facet normal -0.992421 0 -0.122888
    outer loop
      vertex -3.93189 -12 -6.735
      vertex -3.99241 12 -6.24624
      vertex -3.93189 12 -6.735
    endloop
  endfacet
  facet normal -0.992421 -0 -0.122888
    outer loop
      vertex -3.99241 12 -6.24624
      vertex -3.93189 -12 -6.735
      vertex -3.99241 -12 -6.24624
    endloop
  endfacet
  facet normal 0 1 -0
    outer loop
      vertex 0.241073 12 7.98542
      vertex -0.12318 12 9.9981
      vertex 0.369073 12 9.98294
    endloop
  endfacet
  facet normal 0 1 0
    outer loop
      vertex 0.241073 12 7.98542
      vertex 0.369073 12 9.98294
      vertex 0.855732 12 9.90739
    endloop
  endfacet
  facet normal 0 1 0
    outer loop
      vertex -0.12318 12 9.9981
      vertex 0.241073 12 7.98542
      vertex -0.241073 12 7.98542
    endloop
  endfacet
  facet normal 0 1 0
    outer loop
      vertex 0.70921 12 7.87003
      vertex 0.855732 12 9.90739
      vertex 1.32942 12 9.77262
    endloop
  endfacet
  facet normal 0 1 0
    outer loop
      vertex -0.12318 12 9.9981
      vertex -0.241073 12 7.98542
      vertex -0.613567 12 9.95266
    endloop
  endfacet
  facet normal 0 1 0
    outer loop
      vertex 0.70921 12 7.87003
      vertex 1.32942 12 9.77262
      vertex 1.78295 12 9.58065
    endloop
  endfacet
  facet normal 0 1 0
    outer loop
      vertex -0.613567 12 9.95266
      vertex -0.241073 12 7.98542
      vertex -1.09465 12 9.8473
    endloop
  endfacet
  facet normal 0 1 0
    outer loop
      vertex 1.13613 12 7.64597
      vertex 1.78295 12 9.58065
      vertex 2.20946 12 9.33441
    endloop
  endfacet
  facet normal 0 1 -0
    outer loop
      vertex -0.70921 12 7.87003
      vertex -1.09465 12 9.8473
      vertex -0.241073 12 7.98542
    endloop
  endfacet
  facet normal 0 1 0
    outer loop
      vertex 1.13613 12 7.64597
      vertex 2.20946 12 9.33441
      vertex 2.60247 12 9.03762
    endloop
  endfacet
  facet normal 0 1 0
    outer loop
      vertex -1.09465 12 9.8473
      vertex -0.70921 12 7.87003
      vertex -1.55914 12 9.68362
    endloop
  endfacet
  facet normal 0 1 0
    outer loop
      vertex 1.49702 12 7.32625
      vertex 2.60247 12 9.03762
      vertex 2.95604 12 8.69478
    endloop
  endfacet
  facet normal 0 1 0
    outer loop
      vertex -1.55914 12 9.68362
      vertex -0.70921 12 7.87003
      vertex -2 12 9.4641
    endloop
  endfacet
  facet normal 0 1 0
    outer loop
      vertex 1.49702 12 7.32625
      vertex 2.95604 12 8.69478
      vertex 3.26479 12 8.3111
    endloop
  endfacet
  facet normal 0 1 -0
    outer loop
      vertex -1.13613 12 7.64597
      vertex -2 12 9.4641
      vertex -0.70921 12 7.87003
    endloop
  endfacet
  facet normal 0 1 0
    outer loop
      vertex -2 12 9.4641
      vertex -1.13613 12 7.64597
      vertex -2.41054 12 9.19207
    endloop
  endfacet
  facet normal 0 1 0
    outer loop
      vertex 1.77091 12 6.92945
      vertex 3.26479 12 8.3111
      vertex 3.52405 12 7.89237
    endloop
  endfacet
  facet normal 0 1 0
    outer loop
      vertex 0.855732 12 9.90739
      vertex 0.70921 12 7.87003
      vertex 0.241073 12 7.98542
    endloop
  endfacet
  facet normal 0 1 0
    outer loop
      vertex 1.78295 12 9.58065
      vertex 1.13613 12 7.64597
      vertex 0.70921 12 7.87003
    endloop
  endfacet
  facet normal 0 1 0
    outer loop
      vertex 1.77091 12 6.92945
      vertex 3.52405 12 7.89237
      vertex 3.72989 12 7.44497
    endloop
  endfacet
  facet normal 0 1 0
    outer loop
      vertex 2.60247 12 9.03762
      vertex 1.49702 12 7.32625
      vertex 1.13613 12 7.64597
    endloop
  endfacet
  facet normal 0 1 0
    outer loop
      vertex 1.94188 12 6.47863
      vertex 3.72989 12 7.44497
      vertex 3.87919 12 6.97566
    endloop
  endfacet
  facet normal 0 1 0
    outer loop
      vertex 3.26479 12 8.3111
      vertex 1.77091 12 6.92945
      vertex 1.49702 12 7.32625
    endloop
  endfacet
  facet normal 0 1 0
    outer loop
      vertex 1.94188 12 6.47863
      vertex 3.87919 12 6.97566
      vertex 3.96968 12 6.49155
    endloop
  endfacet
  facet normal 0 1 0
    outer loop
      vertex 3.72989 12 7.44497
      vertex 1.94188 12 6.47863
      vertex 1.77091 12 6.92945
    endloop
  endfacet
  facet normal 0 1 0
    outer loop
      vertex 2 12 6
      vertex 3.96968 12 6.49155
      vertex 4 12 6
    endloop
  endfacet
  facet normal 0 1 0
    outer loop
      vertex 3.96968 12 6.49155
      vertex 2 12 6
      vertex 1.94188 12 6.47863
    endloop
  endfacet
  facet normal 0 1 0
    outer loop
      vertex 4 12 6
      vertex 1.94188 12 5.52137
      vertex 2 12 6
    endloop
  endfacet
  facet normal 0 1 0
    outer loop
      vertex 4 12 6
      vertex 1.77091 12 5.07055
      vertex 1.94188 12 5.52137
    endloop
  endfacet
  facet normal 0 1 0
    outer loop
      vertex 4 12 6
      vertex 1.49702 12 4.67375
      vertex 1.77091 12 5.07055
    endloop
  endfacet
  facet normal 0 1 0
    outer loop
      vertex 1.49702 12 -4.67375
      vertex 1.49702 12 4.67375
      vertex 4 12 6
    endloop
  endfacet
  facet normal 0 1 0
    outer loop
      vertex 0.241073 12 4.01458
      vertex 0.241073 12 -4.01458
      vertex -0.241073 12 4.01458
    endloop
  endfacet
  facet normal 0 1 0
    outer loop
      vertex 0.70921 12 4.12997
      vertex 0.241073 12 -4.01458
      vertex 0.241073 12 4.01458
    endloop
  endfacet
  facet normal 0 1 0
    outer loop
      vertex 0.70921 12 -4.12997
      vertex 0.70921 12 4.12997
      vertex 1.13613 12 4.35403
    endloop
  endfacet
  facet normal 0 1 0
    outer loop
      vertex 1.49702 12 4.67375
      vertex 1.49702 12 -4.67375
      vertex 1.13613 12 4.35403
    endloop
  endfacet
  facet normal 0 1 0
    outer loop
      vertex 0.70921 12 4.12997
      vertex 0.70921 12 -4.12997
      vertex 0.241073 12 -4.01458
    endloop
  endfacet
  facet normal 0 1 0
    outer loop
      vertex 1.13613 12 4.35403
      vertex 1.13613 12 -4.35403
      vertex 0.70921 12 -4.12997
    endloop
  endfacet
  facet normal 0 1 0
    outer loop
      vertex 1.13613 12 4.35403
      vertex 1.49702 12 -4.67375
      vertex 1.13613 12 -4.35403
    endloop
  endfacet
  facet normal 0 1 -0
    outer loop
      vertex 4 12 -6
      vertex 1.49702 12 -4.67375
      vertex 4 12 6
    endloop
  endfacet
  facet normal 0 1 0
    outer loop
      vertex 1.49702 12 -4.67375
      vertex 4 12 -6
      vertex 1.77091 12 -5.07055
    endloop
  endfacet
  facet normal 0 1 0
    outer loop
      vertex 1.77091 12 -5.07055
      vertex 4 12 -6
      vertex 1.94188 12 -5.52137
    endloop
  endfacet
  facet normal 0 1 0
    outer loop
      vertex 4 12 -6
      vertex 2 12 -6
      vertex 1.94188 12 -5.52137
    endloop
  endfacet
  facet normal 0 1 -0
    outer loop
      vertex 3.96968 12 -6.49155
      vertex 2 12 -6
      vertex 4 12 -6
    endloop
  endfacet
  facet normal 0 1 0
    outer loop
      vertex 2 12 -6
      vertex 3.96968 12 -6.49155
      vertex 1.94188 12 -6.47863
    endloop
  endfacet
  facet normal 0 1 -0
    outer loop
      vertex 3.87919 12 -6.97566
      vertex 1.94188 12 -6.47863
      vertex 3.96968 12 -6.49155
    endloop
  endfacet
  facet normal 0 1 -0
    outer loop
      vertex 3.72989 12 -7.44497
      vertex 1.94188 12 -6.47863
      vertex 3.87919 12 -6.97566
    endloop
  endfacet
  facet normal 0 1 0
    outer loop
      vertex 1.94188 12 -6.47863
      vertex 3.72989 12 -7.44497
      vertex 1.77091 12 -6.92945
    endloop
  endfacet
  facet normal 0 1 -0
    outer loop
      vertex 3.52405 12 -7.89237
      vertex 1.77091 12 -6.92945
      vertex 3.72989 12 -7.44497
    endloop
  endfacet
  facet normal 0 1 -0
    outer loop
      vertex 3.26479 12 -8.3111
      vertex 1.77091 12 -6.92945
      vertex 3.52405 12 -7.89237
    endloop
  endfacet
  facet normal 0 1 0
    outer loop
      vertex 1.77091 12 -6.92945
      vertex 3.26479 12 -8.3111
      vertex 1.49702 12 -7.32625
    endloop
  endfacet
  facet normal 0 1 -0
    outer loop
      vertex 2.95604 12 -8.69478
      vertex 1.49702 12 -7.32625
      vertex 3.26479 12 -8.3111
    endloop
  endfacet
  facet normal 0 1 -0
    outer loop
      vertex 2.60247 12 -9.03762
      vertex 1.49702 12 -7.32625
      vertex 2.95604 12 -8.69478
    endloop
  endfacet
  facet normal 0 1 -0
    outer loop
      vertex -0.12318 12 -9.9981
      vertex -0.241073 12 -7.98542
      vertex 0.241073 12 -7.98542
    endloop
  endfacet
  facet normal 0 1 0
    outer loop
      vertex 1.49702 12 -7.32625
      vertex 2.60247 12 -9.03762
      vertex 1.13613 12 -7.64597
    endloop
  endfacet
  facet normal 0 1 -0
    outer loop
      vertex 2.20946 12 -9.33441
      vertex 1.13613 12 -7.64597
      vertex 2.60247 12 -9.03762
    endloop
  endfacet
  facet normal 0 1 0
    outer loop
      vertex -0.241073 12 -7.98542
      vertex -3.11632 12 -8.5077
      vertex -3.40087 12 -8.10573
    endloop
  endfacet
  facet normal 0 1 -0
    outer loop
      vertex 1.78295 12 -9.58065
      vertex 1.13613 12 -7.64597
      vertex 2.20946 12 -9.33441
    endloop
  endfacet
  facet normal 0 1 0
    outer loop
      vertex -0.241073 12 -7.98542
      vertex -2.78454 12 -8.87165
      vertex -3.11632 12 -8.5077
    endloop
  endfacet
  facet normal 0 1 0
    outer loop
      vertex 1.13613 12 -7.64597
      vertex 1.78295 12 -9.58065
      vertex 0.70921 12 -7.87003
    endloop
  endfacet
  facet normal 0 1 0
    outer loop
      vertex -0.241073 12 -7.98542
      vertex -2.41054 12 -9.19207
      vertex -2.78454 12 -8.87165
    endloop
  endfacet
  facet normal 0 1 -0
    outer loop
      vertex 1.32942 12 -9.77262
      vertex 0.70921 12 -7.87003
      vertex 1.78295 12 -9.58065
    endloop
  endfacet
  facet normal 0 1 0
    outer loop
      vertex -0.241073 12 -7.98542
      vertex -2 12 -9.4641
      vertex -2.41054 12 -9.19207
    endloop
  endfacet
  facet normal 0 1 -0
    outer loop
      vertex 0.855732 12 -9.90739
      vertex 0.70921 12 -7.87003
      vertex 1.32942 12 -9.77262
    endloop
  endfacet
  facet normal 0 1 0
    outer loop
      vertex -0.241073 12 -7.98542
      vertex -1.55914 12 -9.68362
      vertex -2 12 -9.4641
    endloop
  endfacet
  facet normal 0 1 0
    outer loop
      vertex 0.70921 12 -7.87003
      vertex 0.855732 12 -9.90739
      vertex 0.241073 12 -7.98542
    endloop
  endfacet
  facet normal 0 1 0
    outer loop
      vertex -0.241073 12 -7.98542
      vertex -1.09465 12 -9.8473
      vertex -1.55914 12 -9.68362
    endloop
  endfacet
  facet normal 0 1 -0
    outer loop
      vertex 0.369073 12 -9.98294
      vertex 0.241073 12 -7.98542
      vertex 0.855732 12 -9.90739
    endloop
  endfacet
  facet normal 0 1 0
    outer loop
      vertex -0.241073 12 -7.98542
      vertex -0.613567 12 -9.95266
      vertex -1.09465 12 -9.8473
    endloop
  endfacet
  facet normal 0 1 0
    outer loop
      vertex -0.12318 12 -9.9981
      vertex 0.241073 12 -7.98542
      vertex 0.369073 12 -9.98294
    endloop
  endfacet
  facet normal 0 1 0
    outer loop
      vertex -0.241073 12 -7.98542
      vertex -0.12318 12 -9.9981
      vertex -0.613567 12 -9.95266
    endloop
  endfacet
  facet normal 0 1 0
    outer loop
      vertex -2.41054 12 9.19207
      vertex -1.13613 12 7.64597
      vertex -2.78454 12 8.87165
    endloop
  endfacet
  facet normal 0 1 -0
    outer loop
      vertex -1.49702 12 7.32625
      vertex -2.78454 12 8.87165
      vertex -1.13613 12 7.64597
    endloop
  endfacet
  facet normal 0 1 0
    outer loop
      vertex -2.78454 12 8.87165
      vertex -1.49702 12 7.32625
      vertex -3.11632 12 8.5077
    endloop
  endfacet
  facet normal 0 1 0
    outer loop
      vertex -3.11632 12 8.5077
      vertex -1.49702 12 7.32625
      vertex -3.40087 12 8.10573
    endloop
  endfacet
  facet normal 0 1 -0
    outer loop
      vertex -1.77091 12 6.92945
      vertex -3.40087 12 8.10573
      vertex -1.49702 12 7.32625
    endloop
  endfacet
  facet normal 0 1 0
    outer loop
      vertex -3.40087 12 8.10573
      vertex -1.77091 12 6.92945
      vertex -3.63386 12 7.67184
    endloop
  endfacet
  facet normal 0 1 0
    outer loop
      vertex -3.63386 12 7.67184
      vertex -1.77091 12 6.92945
      vertex -3.81177 12 7.21261
    endloop
  endfacet
  facet normal 0 1 -0
    outer loop
      vertex -1.94188 12 6.47863
      vertex -3.81177 12 7.21261
      vertex -1.77091 12 6.92945
    endloop
  endfacet
  facet normal 0 1 0
    outer loop
      vertex -3.81177 12 7.21261
      vertex -1.94188 12 6.47863
      vertex -3.93189 12 6.735
    endloop
  endfacet
  facet normal 0 1 0
    outer loop
      vertex -1.94188 12 6.47863
      vertex -3.99241 12 6.24624
      vertex -3.93189 12 6.735
    endloop
  endfacet
  facet normal 0 1 -0
    outer loop
      vertex -2 12 6
      vertex -3.99241 12 6.24624
      vertex -1.94188 12 6.47863
    endloop
  endfacet
  facet normal 0 1 0
    outer loop
      vertex -1.94188 12 5.52137
      vertex -3.99241 12 6.24624
      vertex -2 12 6
    endloop
  endfacet
  facet normal 0 1 0
    outer loop
      vertex -1.77091 12 5.07055
      vertex -3.99241 12 6.24624
      vertex -1.94188 12 5.52137
    endloop
  endfacet
  facet normal 0 1 0
    outer loop
      vertex -1.49702 12 4.67375
      vertex -3.99241 12 6.24624
      vertex -1.77091 12 5.07055
    endloop
  endfacet
  facet normal 0 1 0
    outer loop
      vertex -1.49702 12 -4.67375
      vertex -1.49702 12 4.67375
      vertex -1.13613 12 4.35403
    endloop
  endfacet
  facet normal 0 1 0
    outer loop
      vertex -0.241073 12 -4.01458
      vertex -0.241073 12 4.01458
      vertex 0.241073 12 -4.01458
    endloop
  endfacet
  facet normal 0 1 0
    outer loop
      vertex -0.241073 12 4.01458
      vertex -0.241073 12 -4.01458
      vertex -0.70921 12 4.12997
    endloop
  endfacet
  facet normal 0 1 0
    outer loop
      vertex -0.70921 12 -4.12997
      vertex -0.70921 12 4.12997
      vertex -0.241073 12 -4.01458
    endloop
  endfacet
  facet normal 0 1 0
    outer loop
      vertex -0.70921 12 4.12997
      vertex -0.70921 12 -4.12997
      vertex -1.13613 12 4.35403
    endloop
  endfacet
  facet normal 0 1 0
    outer loop
      vertex -1.13613 12 -4.35403
      vertex -1.13613 12 4.35403
      vertex -0.70921 12 -4.12997
    endloop
  endfacet
  facet normal 0 1 0
    outer loop
      vertex -1.49702 12 -4.67375
      vertex -1.13613 12 4.35403
      vertex -1.13613 12 -4.35403
    endloop
  endfacet
  facet normal 0 1 0
    outer loop
      vertex -1.49702 12 4.67375
      vertex -1.49702 12 -4.67375
      vertex -3.99241 12 6.24624
    endloop
  endfacet
  facet normal 0 1 0
    outer loop
      vertex -3.99241 12 -6.24624
      vertex -1.49702 12 -4.67375
      vertex -1.77091 12 -5.07055
    endloop
  endfacet
  facet normal 0 1 0
    outer loop
      vertex -3.99241 12 -6.24624
      vertex -1.77091 12 -5.07055
      vertex -1.94188 12 -5.52137
    endloop
  endfacet
  facet normal 0 1 0
    outer loop
      vertex -3.99241 12 -6.24624
      vertex -1.94188 12 -5.52137
      vertex -2 12 -6
    endloop
  endfacet
  facet normal 0 1 0
    outer loop
      vertex -1.49702 12 -4.67375
      vertex -3.99241 12 -6.24624
      vertex -3.99241 12 6.24624
    endloop
  endfacet
  facet normal 0 1 0
    outer loop
      vertex -1.94188 12 -6.47863
      vertex -3.99241 12 -6.24624
      vertex -2 12 -6
    endloop
  endfacet
  facet normal 0 1 0
    outer loop
      vertex -1.94188 12 -6.47863
      vertex -3.93189 12 -6.735
      vertex -3.99241 12 -6.24624
    endloop
  endfacet
  facet normal 0 1 0
    outer loop
      vertex -3.81177 12 -7.21261
      vertex -1.94188 12 -6.47863
      vertex -1.77091 12 -6.92945
    endloop
  endfacet
  facet normal 0 1 0
    outer loop
      vertex -1.94188 12 -6.47863
      vertex -3.81177 12 -7.21261
      vertex -3.93189 12 -6.735
    endloop
  endfacet
  facet normal 0 1 0
    outer loop
      vertex -3.40087 12 -8.10573
      vertex -1.77091 12 -6.92945
      vertex -1.49702 12 -7.32625
    endloop
  endfacet
  facet normal 0 1 0
    outer loop
      vertex -3.40087 12 -8.10573
      vertex -1.49702 12 -7.32625
      vertex -1.13613 12 -7.64597
    endloop
  endfacet
  facet normal 0 1 0
    outer loop
      vertex -1.77091 12 -6.92945
      vertex -3.63386 12 -7.67184
      vertex -3.81177 12 -7.21261
    endloop
  endfacet
  facet normal 0 1 0
    outer loop
      vertex -3.40087 12 -8.10573
      vertex -1.13613 12 -7.64597
      vertex -0.70921 12 -7.87003
    endloop
  endfacet
  facet normal 0 1 0
    outer loop
      vertex -3.40087 12 -8.10573
      vertex -0.70921 12 -7.87003
      vertex -0.241073 12 -7.98542
    endloop
  endfacet
  facet normal 0 1 0
    outer loop
      vertex -1.77091 12 -6.92945
      vertex -3.40087 12 -8.10573
      vertex -3.63386 12 -7.67184
    endloop
  endfacet
  facet normal -0.445739 0 -0.895163
    outer loop
      vertex -1.55914 -12 -9.68362
      vertex -2 -12 -9.4641
      vertex -1.55914 12 -9.68362
    endloop
  endfacet
  facet normal -0.650618 0 -0.759405
    outer loop
      vertex -2.41054 -12 -9.19207
      vertex -2.78454 -12 -8.87165
      vertex -2.78454 12 -8.87165
    endloop
  endfacet
  facet normal -0.650618 0 -0.759405
    outer loop
      vertex -2.41054 -12 -9.19207
      vertex -2.78454 12 -8.87165
      vertex -2.41054 12 -9.19207
    endloop
  endfacet
  facet normal -0.881013 0 -0.473093
    outer loop
      vertex -3.40087 -12 -8.10573
      vertex -3.63386 12 -7.67184
      vertex -3.40087 12 -8.10573
    endloop
  endfacet
  facet normal -0.881013 -0 -0.473093
    outer loop
      vertex -3.63386 12 -7.67184
      vertex -3.40087 -12 -8.10573
      vertex -3.63386 -12 -7.67184
    endloop
  endfacet
  facet normal -0.332354 0 -0.943155
    outer loop
      vertex -1.55914 -12 -9.68362
      vertex -1.09465 12 -9.8473
      vertex -1.09465 -12 -9.8473
    endloop
  endfacet
  facet normal -0.332354 0 -0.943155
    outer loop
      vertex -1.09465 12 -9.8473
      vertex -1.55914 -12 -9.68362
      vertex -1.55914 12 -9.68362
    endloop
  endfacet
  facet normal -0.445739 0 -0.895163
    outer loop
      vertex -1.55914 12 -9.68362
      vertex -2 -12 -9.4641
      vertex -2 12 -9.4641
    endloop
  endfacet
  facet normal -0.552365 0 -0.833602
    outer loop
      vertex -2 -12 -9.4641
      vertex -2.41054 12 -9.19207
      vertex -2 12 -9.4641
    endloop
  endfacet
  facet normal -0.739009 0 -0.673695
    outer loop
      vertex -2.78454 -12 -8.87165
      vertex -3.11632 -12 -8.5077
      vertex -2.78454 12 -8.87165
    endloop
  endfacet
  facet normal 0 -0.471397 0.881921
    outer loop
      vertex -3.99241 1.38893 -2.07867
      vertex 4 0.956709 -2.3097
      vertex 4 1.38893 -2.07867
    endloop
  endfacet
  facet normal 0 -0.471397 0.881921
    outer loop
      vertex 4 0.956709 -2.3097
      vertex -3.99241 1.38893 -2.07867
      vertex -3.99241 0.956709 -2.3097
    endloop
  endfacet
  facet normal 0 -0.0980172 0.995185
    outer loop
      vertex -3.99241 0.487726 -2.45196
      vertex 4 0 -2.5
      vertex 4 0.487726 -2.45196
    endloop
  endfacet
  facet normal 0 -0.0980172 0.995185
    outer loop
      vertex 4 0 -2.5
      vertex -3.99241 0.487726 -2.45196
      vertex -3.99241 0 -2.5
    endloop
  endfacet
  facet normal 0 0.0980172 -0.995185
    outer loop
      vertex -3.99241 -0.487726 2.45196
      vertex 4 3.06162e-16 2.5
      vertex 4 -0.487726 2.45196
    endloop
  endfacet
  facet normal 0 0.0980172 -0.995185
    outer loop
      vertex 4 3.06162e-16 2.5
      vertex -3.99241 -0.487726 2.45196
      vertex -3.99241 3.06162e-16 2.5
    endloop
  endfacet
  facet normal 8.81013e-09 -0.995185 0.0980174
    outer loop
      vertex -3.99241 2.45196 -0.487726
      vertex 4 2.45226 -0.484715
      vertex -3.99241 2.49966 -0.00346747
    endloop
  endfacet
  facet normal 0 -0.995182 0.0980405
    outer loop
      vertex 4 2.45226 -0.484715
      vertex -3.99241 2.45196 -0.487726
      vertex 4 2.45196 -0.487726
    endloop
  endfacet
  facet normal 0 -0.77301 -0.634393
    outer loop
      vertex -3.99241 2.07867 1.38893
      vertex 4 1.76777 1.76777
      vertex -3.99241 1.76777 1.76777
    endloop
  endfacet
  facet normal 0 -0.77301 -0.634393
    outer loop
      vertex 4 1.76777 1.76777
      vertex -3.99241 2.07867 1.38893
      vertex 4 2.07867 1.38893
    endloop
  endfacet
  facet normal 0 0.634393 -0.77301
    outer loop
      vertex -3.99241 -1.76777 1.76777
      vertex 4 -1.38893 2.07867
      vertex 4 -1.76777 1.76777
    endloop
  endfacet
  facet normal 0 0.634393 -0.77301
    outer loop
      vertex 4 -1.38893 2.07867
      vertex -3.99241 -1.76777 1.76777
      vertex -3.99241 -1.38893 2.07867
    endloop
  endfacet
  facet normal 0 0.95694 -0.290285
    outer loop
      vertex 4 -2.45196 0.487726
      vertex -3.99241 -2.3097 0.956709
      vertex 4 -2.3097 0.956709
    endloop
  endfacet
  facet normal 0 0.95694 -0.290285
    outer loop
      vertex -3.99241 -2.3097 0.956709
      vertex 4 -2.45196 0.487726
      vertex -3.99241 -2.45196 0.487726
    endloop
  endfacet
  facet normal 0 -0.634393 -0.77301
    outer loop
      vertex -3.99241 1.38893 2.07867
      vertex 4 1.76777 1.76777
      vertex 4 1.38893 2.07867
    endloop
  endfacet
  facet normal -0 -0.634393 -0.77301
    outer loop
      vertex 4 1.76777 1.76777
      vertex -3.99241 1.38893 2.07867
      vertex -3.99241 1.76777 1.76777
    endloop
  endfacet
  facet normal -2.17557e-17 -0.995188 0.0979885
    outer loop
      vertex -3.99241 2.49966 -0.00346747
      vertex 4 2.5 7.35098e-16
      vertex -3.99241 2.5 -1.03957e-15
    endloop
  endfacet
  facet normal -1.24822e-08 -0.995185 0.098017
    outer loop
      vertex 4 2.5 7.35098e-16
      vertex -3.99241 2.49966 -0.00346747
      vertex 4 2.45226 -0.484715
    endloop
  endfacet
  facet normal 0 -0.634393 0.77301
    outer loop
      vertex -3.99241 1.76777 -1.76777
      vertex 4 1.38893 -2.07867
      vertex 4 1.76777 -1.76777
    endloop
  endfacet
  facet normal 0 -0.634393 0.77301
    outer loop
      vertex 4 1.38893 -2.07867
      vertex -3.99241 1.76777 -1.76777
      vertex -3.99241 1.38893 -2.07867
    endloop
  endfacet
  facet normal 0 -0.290285 0.95694
    outer loop
      vertex -3.99241 0.956709 -2.3097
      vertex 4 0.487726 -2.45196
      vertex 4 0.956709 -2.3097
    endloop
  endfacet
  facet normal 0 -0.290285 0.95694
    outer loop
      vertex 4 0.487726 -2.45196
      vertex -3.99241 0.956709 -2.3097
      vertex -3.99241 0.487726 -2.45196
    endloop
  endfacet
  facet normal 0 -0.881921 -0.471397
    outer loop
      vertex -3.99241 2.3097 0.956709
      vertex 4 2.07867 1.38893
      vertex -3.99241 2.07867 1.38893
    endloop
  endfacet
  facet normal 0 -0.881921 -0.471397
    outer loop
      vertex 4 2.07867 1.38893
      vertex -3.99241 2.3097 0.956709
      vertex 4 2.3097 0.956709
    endloop
  endfacet
  facet normal 0 -0.95694 -0.290285
    outer loop
      vertex -3.99241 2.45196 0.487726
      vertex 4 2.3097 0.956709
      vertex -3.99241 2.3097 0.956709
    endloop
  endfacet
  facet normal 0 -0.95694 -0.290285
    outer loop
      vertex 4 2.3097 0.956709
      vertex -3.99241 2.45196 0.487726
      vertex 4 2.45196 0.487726
    endloop
  endfacet
  facet normal -0 0.0980172 0.995185
    outer loop
      vertex -3.99241 0 -2.5
      vertex 4 -0.487726 -2.45196
      vertex 4 0 -2.5
    endloop
  endfacet
  facet normal 0 0.0980172 0.995185
    outer loop
      vertex 4 -0.487726 -2.45196
      vertex -3.99241 0 -2.5
      vertex -3.99241 -0.487726 -2.45196
    endloop
  endfacet
  facet normal -0 0.634393 0.77301
    outer loop
      vertex -3.99241 -1.38893 -2.07867
      vertex 4 -1.76777 -1.76777
      vertex 4 -1.38893 -2.07867
    endloop
  endfacet
  facet normal 0 0.634393 0.77301
    outer loop
      vertex 4 -1.76777 -1.76777
      vertex -3.99241 -1.38893 -2.07867
      vertex -3.99241 -1.76777 -1.76777
    endloop
  endfacet
  facet normal 0 -0.95694 0.290285
    outer loop
      vertex -3.99241 2.3097 -0.956709
      vertex 4 2.45196 -0.487726
      vertex -3.99241 2.45196 -0.487726
    endloop
  endfacet
  facet normal 0 -0.95694 0.290285
    outer loop
      vertex 4 2.45196 -0.487726
      vertex -3.99241 2.3097 -0.956709
      vertex 4 2.3097 -0.956709
    endloop
  endfacet
  facet normal 0 -0.995188 -0.0979885
    outer loop
      vertex -3.99241 2.4523 0.484258
      vertex 4 2.45196 0.487726
      vertex -3.99241 2.45196 0.487726
    endloop
  endfacet
  facet normal 1.24814e-08 -0.995185 -0.098017
    outer loop
      vertex 4 2.45196 0.487726
      vertex -3.99241 2.4523 0.484258
      vertex 4 2.4997 0.00301065
    endloop
  endfacet
  facet normal -0 0.995182 0.0980405
    outer loop
      vertex -3.99241 -2.45196 -0.487726
      vertex 4 -2.45226 -0.484715
      vertex 4 -2.45196 -0.487726
    endloop
  endfacet
  facet normal 8.81013e-09 0.995185 0.0980174
    outer loop
      vertex 4 -2.45226 -0.484715
      vertex -3.99241 -2.45196 -0.487726
      vertex -3.99241 -2.49966 -0.00346747
    endloop
  endfacet
  facet normal 0 0.77301 0.634393
    outer loop
      vertex 4 -1.76777 -1.76777
      vertex -3.99241 -2.07867 -1.38893
      vertex 4 -2.07867 -1.38893
    endloop
  endfacet
  facet normal 0 0.77301 0.634393
    outer loop
      vertex -3.99241 -2.07867 -1.38893
      vertex 4 -1.76777 -1.76777
      vertex -3.99241 -1.76777 -1.76777
    endloop
  endfacet
  facet normal -0 0.290285 0.95694
    outer loop
      vertex -3.99241 -0.487726 -2.45196
      vertex 4 -0.956709 -2.3097
      vertex 4 -0.487726 -2.45196
    endloop
  endfacet
  facet normal 0 0.290285 0.95694
    outer loop
      vertex 4 -0.956709 -2.3097
      vertex -3.99241 -0.487726 -2.45196
      vertex -3.99241 -0.956709 -2.3097
    endloop
  endfacet
  facet normal -0 0.471397 0.881921
    outer loop
      vertex -3.99241 -0.956709 -2.3097
      vertex 4 -1.38893 -2.07867
      vertex 4 -0.956709 -2.3097
    endloop
  endfacet
  facet normal 0 0.471397 0.881921
    outer loop
      vertex 4 -1.38893 -2.07867
      vertex -3.99241 -0.956709 -2.3097
      vertex -3.99241 -1.38893 -2.07867
    endloop
  endfacet
  facet normal 0 0.881921 -0.471397
    outer loop
      vertex 4 -2.3097 0.956709
      vertex -3.99241 -2.07867 1.38893
      vertex 4 -2.07867 1.38893
    endloop
  endfacet
  facet normal 0 0.881921 -0.471397
    outer loop
      vertex -3.99241 -2.07867 1.38893
      vertex 4 -2.3097 0.956709
      vertex -3.99241 -2.3097 0.956709
    endloop
  endfacet
  facet normal 0 0.995188 -0.0979885
    outer loop
      vertex 4 -2.45196 0.487726
      vertex -3.99241 -2.4523 0.484258
      vertex -3.99241 -2.45196 0.487726
    endloop
  endfacet
  facet normal 1.24814e-08 0.995185 -0.098017
    outer loop
      vertex -3.99241 -2.4523 0.484258
      vertex 4 -2.45196 0.487726
      vertex 4 -2.4997 0.00301065
    endloop
  endfacet
  facet normal 0 0.95694 0.290285
    outer loop
      vertex 4 -2.3097 -0.956709
      vertex -3.99241 -2.45196 -0.487726
      vertex 4 -2.45196 -0.487726
    endloop
  endfacet
  facet normal 0 0.95694 0.290285
    outer loop
      vertex -3.99241 -2.45196 -0.487726
      vertex 4 -2.3097 -0.956709
      vertex -3.99241 -2.3097 -0.956709
    endloop
  endfacet
  facet normal 0 -0.0980172 -0.995185
    outer loop
      vertex -3.99241 3.06162e-16 2.5
      vertex 4 0.487726 2.45196
      vertex 4 3.06162e-16 2.5
    endloop
  endfacet
  facet normal -0 -0.0980172 -0.995185
    outer loop
      vertex 4 0.487726 2.45196
      vertex -3.99241 3.06162e-16 2.5
      vertex -3.99241 0.487726 2.45196
    endloop
  endfacet
  facet normal 0 -0.881921 0.471397
    outer loop
      vertex -3.99241 2.07867 -1.38893
      vertex 4 2.3097 -0.956709
      vertex -3.99241 2.3097 -0.956709
    endloop
  endfacet
  facet normal 0 -0.881921 0.471397
    outer loop
      vertex 4 2.3097 -0.956709
      vertex -3.99241 2.07867 -1.38893
      vertex 4 2.07867 -1.38893
    endloop
  endfacet
  facet normal 0 -0.77301 0.634393
    outer loop
      vertex -3.99241 1.76777 -1.76777
      vertex 4 2.07867 -1.38893
      vertex -3.99241 2.07867 -1.38893
    endloop
  endfacet
  facet normal 0 -0.77301 0.634393
    outer loop
      vertex 4 2.07867 -1.38893
      vertex -3.99241 1.76777 -1.76777
      vertex 4 1.76777 -1.76777
    endloop
  endfacet
  facet normal 0 -0.290285 -0.95694
    outer loop
      vertex -3.99241 0.487726 2.45196
      vertex 4 0.956709 2.3097
      vertex 4 0.487726 2.45196
    endloop
  endfacet
  facet normal -0 -0.290285 -0.95694
    outer loop
      vertex 4 0.956709 2.3097
      vertex -3.99241 0.487726 2.45196
      vertex -3.99241 0.956709 2.3097
    endloop
  endfacet
  facet normal 0 -0.471397 -0.881921
    outer loop
      vertex -3.99241 0.956709 2.3097
      vertex 4 1.38893 2.07867
      vertex 4 0.956709 2.3097
    endloop
  endfacet
  facet normal -0 -0.471397 -0.881921
    outer loop
      vertex 4 1.38893 2.07867
      vertex -3.99241 0.956709 2.3097
      vertex -3.99241 1.38893 2.07867
    endloop
  endfacet
  facet normal 0 0.77301 -0.634393
    outer loop
      vertex 4 -2.07867 1.38893
      vertex -3.99241 -1.76777 1.76777
      vertex 4 -1.76777 1.76777
    endloop
  endfacet
  facet normal 0 0.77301 -0.634393
    outer loop
      vertex -3.99241 -1.76777 1.76777
      vertex 4 -2.07867 1.38893
      vertex -3.99241 -2.07867 1.38893
    endloop
  endfacet
  facet normal 0 0.471397 -0.881921
    outer loop
      vertex -3.99241 -1.38893 2.07867
      vertex 4 -0.956709 2.3097
      vertex 4 -1.38893 2.07867
    endloop
  endfacet
  facet normal 0 0.471397 -0.881921
    outer loop
      vertex 4 -0.956709 2.3097
      vertex -3.99241 -1.38893 2.07867
      vertex -3.99241 -0.956709 2.3097
    endloop
  endfacet
  facet normal 0 0.290285 -0.95694
    outer loop
      vertex -3.99241 -0.956709 2.3097
      vertex 4 -0.487726 2.45196
      vertex 4 -0.956709 2.3097
    endloop
  endfacet
  facet normal 0 0.290285 -0.95694
    outer loop
      vertex 4 -0.487726 2.45196
      vertex -3.99241 -0.956709 2.3097
      vertex -3.99241 -0.487726 2.45196
    endloop
  endfacet
  facet normal 0 0.881921 0.471397
    outer loop
      vertex 4 -2.07867 -1.38893
      vertex -3.99241 -2.3097 -0.956709
      vertex 4 -2.3097 -0.956709
    endloop
  endfacet
  facet normal 0 0.881921 0.471397
    outer loop
      vertex -3.99241 -2.3097 -0.956709
      vertex 4 -2.07867 -1.38893
      vertex -3.99241 -2.07867 -1.38893
    endloop
  endfacet
  facet normal -8.53318e-09 -0.995185 -0.0980174
    outer loop
      vertex -3.99241 2.5 -1.03957e-15
      vertex 4 2.4997 0.00301065
      vertex -3.99241 2.4523 0.484258
    endloop
  endfacet
  facet normal 2.1768e-17 -0.995182 -0.0980398
    outer loop
      vertex 4 2.4997 0.00301065
      vertex -3.99241 2.5 -1.03957e-15
      vertex 4 2.5 7.35098e-16
    endloop
  endfacet
  facet normal -2.17578e-17 0.995188 0.0979885
    outer loop
      vertex 4 -2.5 1.34742e-15
      vertex -3.99241 -2.49966 -0.00346747
      vertex -3.99241 -2.5 -4.27251e-16
    endloop
  endfacet
  facet normal -1.24822e-08 0.995185 0.098017
    outer loop
      vertex -3.99241 -2.49966 -0.00346747
      vertex 4 -2.5 1.34742e-15
      vertex 4 -2.45226 -0.484715
    endloop
  endfacet
  facet normal 2.17692e-17 0.995182 -0.0980398
    outer loop
      vertex -3.99241 -2.5 -4.27251e-16
      vertex 4 -2.4997 0.00301065
      vertex 4 -2.5 1.34742e-15
    endloop
  endfacet
  facet normal -8.53318e-09 0.995185 -0.0980174
    outer loop
      vertex 4 -2.4997 0.00301065
      vertex -3.99241 -2.5 -4.27251e-16
      vertex -3.99241 -2.4523 0.484258
    endloop
  endfacet
endsolid OpenSCAD_Model
