  0
SECTION
  2
BLOCKS
  0
ENDSEC
  0
SECTION
  2
ENTITIES
  0
LINE
  8
0
 10
-11
 11
-10.987
 20
0
 21
0.54
  0
LINE
  8
0
 10
-10.987
 11
-10.977
 20
0.54
 21
0.676
  0
LINE
  8
0
 10
-10.977
 11
-10.689
 20
0.676
 21
0.679
  0
LINE
  8
0
 10
-10.689
 11
-10.27
 20
0.679
 21
0.739
  0
LINE
  8
0
 10
-10.27
 11
-9.843
 20
0.739
 21
0.846
  0
LINE
  8
0
 10
-9.843
 11
-9.411
 20
0.846
 21
0.997
  0
LINE
  8
0
 10
-9.411
 11
-8.976
 20
0.997
 21
1.19
  0
LINE
  8
0
 10
-8.976
 11
-8.905
 20
1.19
 21
1.642
  0
LINE
  8
0
 10
-8.905
 11
-9.258
 20
1.642
 21
1.959
  0
LINE
  8
0
 10
-9.258
 11
-9.623
 20
1.959
 21
2.237
  0
LINE
  8
0
 10
-9.623
 11
-9.996
 20
2.237
 21
2.471
  0
LINE
  8
0
 10
-9.996
 11
-10.376
 20
2.471
 21
2.658
  0
LINE
  8
0
 10
-10.376
 11
-10.649
 20
2.658
 21
2.749
  0
LINE
  8
0
 10
-10.649
 11
-10.526
 20
2.749
 21
3.193
  0
LINE
  8
0
 10
-10.526
 11
-10.357
 20
3.193
 21
3.706
  0
LINE
  8
0
 10
-10.357
 11
-10.23
 20
3.706
 21
4.035
  0
LINE
  8
0
 10
-10.23
 11
-9.957
 20
4.035
 21
3.949
  0
LINE
  8
0
 10
-9.957
 11
-9.539
 20
3.949
 21
3.876
  0
LINE
  8
0
 10
-9.539
 11
-9.1
 20
3.876
 21
3.846
  0
LINE
  8
0
 10
-9.1
 11
-8.642
 20
3.846
 21
3.857
  0
LINE
  8
0
 10
-8.642
 11
-8.169
 20
3.857
 21
3.905
  0
LINE
  8
0
 10
-8.169
 11
-7.961
 20
3.905
 21
4.314
  0
LINE
  8
0
 10
-7.961
 11
-8.2
 20
4.314
 21
4.725
  0
LINE
  8
0
 10
-8.2
 11
-8.46
 20
4.725
 21
5.101
  0
LINE
  8
0
 10
-8.46
 11
-8.743
 20
5.101
 21
5.439
  0
LINE
  8
0
 10
-8.743
 11
-9.047
 20
5.439
 21
5.734
  0
LINE
  8
0
 10
-9.047
 11
-9.277
 20
5.734
 21
5.905
  0
LINE
  8
0
 10
-9.277
 11
-9.146
 20
5.905
 21
6.111
  0
LINE
  8
0
 10
-9.146
 11
-8.835
 20
6.111
 21
6.553
  0
LINE
  8
0
 10
-8.835
 11
-8.503
 20
6.553
 21
6.978
  0
LINE
  8
0
 10
-8.503
 11
-8.484
 20
6.978
 21
7
  0
LINE
  8
0
 10
-8.484
 11
-8.249
 20
7
 21
6.832
  0
LINE
  8
0
 10
-8.249
 11
-7.874
 20
6.832
 21
6.634
  0
LINE
  8
0
 10
-7.874
 11
-7.466
 20
6.634
 21
6.47
  0
LINE
  8
0
 10
-7.466
 11
-7.027
 20
6.47
 21
6.339
  0
LINE
  8
0
 10
-7.027
 11
-6.563
 20
6.339
 21
6.239
  0
LINE
  8
0
 10
-6.563
 11
-6.239
 20
6.239
 21
6.563
  0
LINE
  8
0
 10
-6.239
 11
-6.339
 20
6.563
 21
7.027
  0
LINE
  8
0
 10
-6.339
 11
-6.47
 20
7.027
 21
7.466
  0
LINE
  8
0
 10
-6.47
 11
-6.634
 20
7.466
 21
7.874
  0
LINE
  8
0
 10
-6.634
 11
-6.832
 20
7.874
 21
8.249
  0
LINE
  8
0
 10
-6.832
 11
-7
 20
8.249
 21
8.484
  0
LINE
  8
0
 10
-7
 11
-6.978
 20
8.484
 21
8.503
  0
LINE
  8
0
 10
-6.978
 11
-6.553
 20
8.503
 21
8.835
  0
LINE
  8
0
 10
-6.553
 11
-6.111
 20
8.835
 21
9.146
  0
LINE
  8
0
 10
-6.111
 11
-5.905
 20
9.146
 21
9.277
  0
LINE
  8
0
 10
-5.905
 11
-5.734
 20
9.277
 21
9.047
  0
LINE
  8
0
 10
-5.734
 11
-5.439
 20
9.047
 21
8.743
  0
LINE
  8
0
 10
-5.439
 11
-5.101
 20
8.743
 21
8.46
  0
LINE
  8
0
 10
-5.101
 11
-4.725
 20
8.46
 21
8.2
  0
LINE
  8
0
 10
-4.725
 11
-4.314
 20
8.2
 21
7.961
  0
LINE
  8
0
 10
-4.314
 11
-3.905
 20
7.961
 21
8.169
  0
LINE
  8
0
 10
-3.905
 11
-3.857
 20
8.169
 21
8.642
  0
LINE
  8
0
 10
-3.857
 11
-3.846
 20
8.642
 21
9.1
  0
LINE
  8
0
 10
-3.846
 11
-3.876
 20
9.1
 21
9.539
  0
LINE
  8
0
 10
-3.876
 11
-3.949
 20
9.539
 21
9.957
  0
LINE
  8
0
 10
-3.949
 11
-4.035
 20
9.957
 21
10.23
  0
LINE
  8
0
 10
-4.035
 11
-3.706
 20
10.23
 21
10.357
  0
LINE
  8
0
 10
-3.706
 11
-3.193
 20
10.357
 21
10.526
  0
LINE
  8
0
 10
-3.193
 11
-2.749
 20
10.526
 21
10.649
  0
LINE
  8
0
 10
-2.749
 11
-2.658
 20
10.649
 21
10.376
  0
LINE
  8
0
 10
-2.658
 11
-2.471
 20
10.376
 21
9.996
  0
LINE
  8
0
 10
-2.471
 11
-2.237
 20
9.996
 21
9.623
  0
LINE
  8
0
 10
-2.237
 11
-1.959
 20
9.623
 21
9.258
  0
LINE
  8
0
 10
-1.959
 11
-1.642
 20
9.258
 21
8.905
  0
LINE
  8
0
 10
-1.642
 11
-1.19
 20
8.905
 21
8.976
  0
LINE
  8
0
 10
-1.19
 11
-0.997
 20
8.976
 21
9.411
  0
LINE
  8
0
 10
-0.997
 11
-0.846
 20
9.411
 21
9.843
  0
LINE
  8
0
 10
-0.846
 11
-0.739
 20
9.843
 21
10.27
  0
LINE
  8
0
 10
-0.739
 11
-0.679
 20
10.27
 21
10.689
  0
LINE
  8
0
 10
-0.679
 11
-0.676
 20
10.689
 21
10.977
  0
LINE
  8
0
 10
-0.676
 11
-0.54
 20
10.977
 21
10.987
  0
LINE
  8
0
 10
-0.54
 11
0
 20
10.987
 21
11
  0
LINE
  8
0
 10
0
 11
0.54
 20
11
 21
10.987
  0
LINE
  8
0
 10
0.54
 11
0.676
 20
10.987
 21
10.977
  0
LINE
  8
0
 10
0.676
 11
0.679
 20
10.977
 21
10.689
  0
LINE
  8
0
 10
0.679
 11
0.739
 20
10.689
 21
10.27
  0
LINE
  8
0
 10
0.739
 11
0.846
 20
10.27
 21
9.843
  0
LINE
  8
0
 10
0.846
 11
0.997
 20
9.843
 21
9.411
  0
LINE
  8
0
 10
0.997
 11
1.19
 20
9.411
 21
8.976
  0
LINE
  8
0
 10
1.19
 11
1.642
 20
8.976
 21
8.905
  0
LINE
  8
0
 10
1.642
 11
1.959
 20
8.905
 21
9.258
  0
LINE
  8
0
 10
1.959
 11
2.237
 20
9.258
 21
9.623
  0
LINE
  8
0
 10
2.237
 11
2.471
 20
9.623
 21
9.996
  0
LINE
  8
0
 10
2.471
 11
2.658
 20
9.996
 21
10.376
  0
LINE
  8
0
 10
2.658
 11
2.749
 20
10.376
 21
10.649
  0
LINE
  8
0
 10
2.749
 11
3.193
 20
10.649
 21
10.526
  0
LINE
  8
0
 10
3.193
 11
3.706
 20
10.526
 21
10.357
  0
LINE
  8
0
 10
3.706
 11
4.035
 20
10.357
 21
10.23
  0
LINE
  8
0
 10
4.035
 11
3.949
 20
10.23
 21
9.957
  0
LINE
  8
0
 10
3.949
 11
3.876
 20
9.957
 21
9.539
  0
LINE
  8
0
 10
3.876
 11
3.846
 20
9.539
 21
9.1
  0
LINE
  8
0
 10
3.846
 11
3.857
 20
9.1
 21
8.642
  0
LINE
  8
0
 10
3.857
 11
3.905
 20
8.642
 21
8.169
  0
LINE
  8
0
 10
3.905
 11
4.314
 20
8.169
 21
7.961
  0
LINE
  8
0
 10
4.314
 11
4.725
 20
7.961
 21
8.2
  0
LINE
  8
0
 10
4.725
 11
5.101
 20
8.2
 21
8.46
  0
LINE
  8
0
 10
5.101
 11
5.439
 20
8.46
 21
8.743
  0
LINE
  8
0
 10
5.439
 11
5.734
 20
8.743
 21
9.047
  0
LINE
  8
0
 10
5.734
 11
5.905
 20
9.047
 21
9.277
  0
LINE
  8
0
 10
5.905
 11
6.111
 20
9.277
 21
9.146
  0
LINE
  8
0
 10
6.111
 11
6.553
 20
9.146
 21
8.835
  0
LINE
  8
0
 10
6.553
 11
6.978
 20
8.835
 21
8.503
  0
LINE
  8
0
 10
6.978
 11
7
 20
8.503
 21
8.484
  0
LINE
  8
0
 10
7
 11
6.832
 20
8.484
 21
8.249
  0
LINE
  8
0
 10
6.832
 11
6.634
 20
8.249
 21
7.874
  0
LINE
  8
0
 10
6.634
 11
6.47
 20
7.874
 21
7.466
  0
LINE
  8
0
 10
6.47
 11
6.339
 20
7.466
 21
7.027
  0
LINE
  8
0
 10
6.339
 11
6.239
 20
7.027
 21
6.563
  0
LINE
  8
0
 10
6.239
 11
6.563
 20
6.563
 21
6.239
  0
LINE
  8
0
 10
6.563
 11
7.027
 20
6.239
 21
6.339
  0
LINE
  8
0
 10
7.027
 11
7.466
 20
6.339
 21
6.47
  0
LINE
  8
0
 10
7.466
 11
7.874
 20
6.47
 21
6.634
  0
LINE
  8
0
 10
7.874
 11
8.249
 20
6.634
 21
6.832
  0
LINE
  8
0
 10
8.249
 11
8.484
 20
6.832
 21
7
  0
LINE
  8
0
 10
8.484
 11
8.503
 20
7
 21
6.978
  0
LINE
  8
0
 10
8.503
 11
8.835
 20
6.978
 21
6.553
  0
LINE
  8
0
 10
8.835
 11
9.146
 20
6.553
 21
6.111
  0
LINE
  8
0
 10
9.146
 11
9.277
 20
6.111
 21
5.905
  0
LINE
  8
0
 10
9.277
 11
9.047
 20
5.905
 21
5.734
  0
LINE
  8
0
 10
9.047
 11
8.743
 20
5.734
 21
5.439
  0
LINE
  8
0
 10
8.743
 11
8.46
 20
5.439
 21
5.101
  0
LINE
  8
0
 10
8.46
 11
8.2
 20
5.101
 21
4.725
  0
LINE
  8
0
 10
8.2
 11
7.961
 20
4.725
 21
4.314
  0
LINE
  8
0
 10
7.961
 11
8.169
 20
4.314
 21
3.905
  0
LINE
  8
0
 10
8.169
 11
8.642
 20
3.905
 21
3.857
  0
LINE
  8
0
 10
8.642
 11
9.1
 20
3.857
 21
3.846
  0
LINE
  8
0
 10
9.1
 11
9.539
 20
3.846
 21
3.876
  0
LINE
  8
0
 10
9.539
 11
9.957
 20
3.876
 21
3.949
  0
LINE
  8
0
 10
9.957
 11
10.23
 20
3.949
 21
4.035
  0
LINE
  8
0
 10
10.23
 11
10.357
 20
4.035
 21
3.706
  0
LINE
  8
0
 10
10.357
 11
10.526
 20
3.706
 21
3.193
  0
LINE
  8
0
 10
10.526
 11
10.649
 20
3.193
 21
2.749
  0
LINE
  8
0
 10
10.649
 11
10.376
 20
2.749
 21
2.658
  0
LINE
  8
0
 10
10.376
 11
9.996
 20
2.658
 21
2.471
  0
LINE
  8
0
 10
9.996
 11
9.623
 20
2.471
 21
2.237
  0
LINE
  8
0
 10
9.623
 11
9.258
 20
2.237
 21
1.959
  0
LINE
  8
0
 10
9.258
 11
8.905
 20
1.959
 21
1.642
  0
LINE
  8
0
 10
8.905
 11
8.976
 20
1.642
 21
1.19
  0
LINE
  8
0
 10
8.976
 11
9.411
 20
1.19
 21
0.997
  0
LINE
  8
0
 10
9.411
 11
9.843
 20
0.997
 21
0.846
  0
LINE
  8
0
 10
9.843
 11
10.27
 20
0.846
 21
0.739
  0
LINE
  8
0
 10
10.27
 11
10.689
 20
0.739
 21
0.679
  0
LINE
  8
0
 10
10.689
 11
10.977
 20
0.679
 21
0.676
  0
LINE
  8
0
 10
10.977
 11
10.987
 20
0.676
 21
0.54
  0
LINE
  8
0
 10
10.987
 11
11
 20
0.54
 21
0
  0
LINE
  8
0
 10
11
 11
10.987
 20
0
 21
-0.54
  0
LINE
  8
0
 10
10.987
 11
10.977
 20
-0.54
 21
-0.676
  0
LINE
  8
0
 10
10.977
 11
10.689
 20
-0.676
 21
-0.679
  0
LINE
  8
0
 10
10.689
 11
10.27
 20
-0.679
 21
-0.739
  0
LINE
  8
0
 10
10.27
 11
9.843
 20
-0.739
 21
-0.846
  0
LINE
  8
0
 10
9.843
 11
9.411
 20
-0.846
 21
-0.997
  0
LINE
  8
0
 10
9.411
 11
8.976
 20
-0.997
 21
-1.19
  0
LINE
  8
0
 10
8.976
 11
8.905
 20
-1.19
 21
-1.642
  0
LINE
  8
0
 10
8.905
 11
9.258
 20
-1.642
 21
-1.959
  0
LINE
  8
0
 10
9.258
 11
9.623
 20
-1.959
 21
-2.237
  0
LINE
  8
0
 10
9.623
 11
9.996
 20
-2.237
 21
-2.471
  0
LINE
  8
0
 10
9.996
 11
10.376
 20
-2.471
 21
-2.658
  0
LINE
  8
0
 10
10.376
 11
10.649
 20
-2.658
 21
-2.749
  0
LINE
  8
0
 10
10.649
 11
10.526
 20
-2.749
 21
-3.193
  0
LINE
  8
0
 10
10.526
 11
10.357
 20
-3.193
 21
-3.706
  0
LINE
  8
0
 10
10.357
 11
10.23
 20
-3.706
 21
-4.035
  0
LINE
  8
0
 10
10.23
 11
9.957
 20
-4.035
 21
-3.949
  0
LINE
  8
0
 10
9.957
 11
9.539
 20
-3.949
 21
-3.876
  0
LINE
  8
0
 10
9.539
 11
9.1
 20
-3.876
 21
-3.846
  0
LINE
  8
0
 10
9.1
 11
8.642
 20
-3.846
 21
-3.857
  0
LINE
  8
0
 10
8.642
 11
8.169
 20
-3.857
 21
-3.905
  0
LINE
  8
0
 10
8.169
 11
7.961
 20
-3.905
 21
-4.314
  0
LINE
  8
0
 10
7.961
 11
8.2
 20
-4.314
 21
-4.725
  0
LINE
  8
0
 10
8.2
 11
8.46
 20
-4.725
 21
-5.101
  0
LINE
  8
0
 10
8.46
 11
8.743
 20
-5.101
 21
-5.439
  0
LINE
  8
0
 10
8.743
 11
9.047
 20
-5.439
 21
-5.734
  0
LINE
  8
0
 10
9.047
 11
9.277
 20
-5.734
 21
-5.905
  0
LINE
  8
0
 10
9.277
 11
9.146
 20
-5.905
 21
-6.111
  0
LINE
  8
0
 10
9.146
 11
8.835
 20
-6.111
 21
-6.553
  0
LINE
  8
0
 10
8.835
 11
8.503
 20
-6.553
 21
-6.978
  0
LINE
  8
0
 10
8.503
 11
8.484
 20
-6.978
 21
-7
  0
LINE
  8
0
 10
8.484
 11
8.249
 20
-7
 21
-6.832
  0
LINE
  8
0
 10
8.249
 11
7.874
 20
-6.832
 21
-6.634
  0
LINE
  8
0
 10
7.874
 11
7.466
 20
-6.634
 21
-6.47
  0
LINE
  8
0
 10
7.466
 11
7.027
 20
-6.47
 21
-6.339
  0
LINE
  8
0
 10
7.027
 11
6.563
 20
-6.339
 21
-6.239
  0
LINE
  8
0
 10
6.563
 11
6.239
 20
-6.239
 21
-6.563
  0
LINE
  8
0
 10
6.239
 11
6.339
 20
-6.563
 21
-7.027
  0
LINE
  8
0
 10
6.339
 11
6.47
 20
-7.027
 21
-7.466
  0
LINE
  8
0
 10
6.47
 11
6.634
 20
-7.466
 21
-7.874
  0
LINE
  8
0
 10
6.634
 11
6.832
 20
-7.874
 21
-8.249
  0
LINE
  8
0
 10
6.832
 11
7
 20
-8.249
 21
-8.484
  0
LINE
  8
0
 10
7
 11
6.978
 20
-8.484
 21
-8.503
  0
LINE
  8
0
 10
6.978
 11
6.553
 20
-8.503
 21
-8.835
  0
LINE
  8
0
 10
6.553
 11
6.111
 20
-8.835
 21
-9.146
  0
LINE
  8
0
 10
6.111
 11
5.905
 20
-9.146
 21
-9.277
  0
LINE
  8
0
 10
5.905
 11
5.734
 20
-9.277
 21
-9.047
  0
LINE
  8
0
 10
5.734
 11
5.439
 20
-9.047
 21
-8.743
  0
LINE
  8
0
 10
5.439
 11
5.101
 20
-8.743
 21
-8.46
  0
LINE
  8
0
 10
5.101
 11
4.725
 20
-8.46
 21
-8.2
  0
LINE
  8
0
 10
4.725
 11
4.314
 20
-8.2
 21
-7.961
  0
LINE
  8
0
 10
4.314
 11
3.905
 20
-7.961
 21
-8.169
  0
LINE
  8
0
 10
3.905
 11
3.857
 20
-8.169
 21
-8.642
  0
LINE
  8
0
 10
3.857
 11
3.846
 20
-8.642
 21
-9.1
  0
LINE
  8
0
 10
3.846
 11
3.876
 20
-9.1
 21
-9.539
  0
LINE
  8
0
 10
3.876
 11
3.949
 20
-9.539
 21
-9.957
  0
LINE
  8
0
 10
3.949
 11
4.035
 20
-9.957
 21
-10.23
  0
LINE
  8
0
 10
4.035
 11
3.706
 20
-10.23
 21
-10.357
  0
LINE
  8
0
 10
3.706
 11
3.193
 20
-10.357
 21
-10.526
  0
LINE
  8
0
 10
3.193
 11
2.749
 20
-10.526
 21
-10.649
  0
LINE
  8
0
 10
2.749
 11
2.658
 20
-10.649
 21
-10.376
  0
LINE
  8
0
 10
2.658
 11
2.471
 20
-10.376
 21
-9.996
  0
LINE
  8
0
 10
2.471
 11
2.237
 20
-9.996
 21
-9.623
  0
LINE
  8
0
 10
2.237
 11
1.959
 20
-9.623
 21
-9.258
  0
LINE
  8
0
 10
1.959
 11
1.642
 20
-9.258
 21
-8.905
  0
LINE
  8
0
 10
1.642
 11
1.19
 20
-8.905
 21
-8.976
  0
LINE
  8
0
 10
1.19
 11
0.997
 20
-8.976
 21
-9.411
  0
LINE
  8
0
 10
0.997
 11
0.846
 20
-9.411
 21
-9.843
  0
LINE
  8
0
 10
0.846
 11
0.739
 20
-9.843
 21
-10.27
  0
LINE
  8
0
 10
0.739
 11
0.679
 20
-10.27
 21
-10.689
  0
LINE
  8
0
 10
0.679
 11
0.676
 20
-10.689
 21
-10.977
  0
LINE
  8
0
 10
0.676
 11
0.54
 20
-10.977
 21
-10.987
  0
LINE
  8
0
 10
0.54
 11
0
 20
-10.987
 21
-11
  0
LINE
  8
0
 10
0
 11
-0.54
 20
-11
 21
-10.987
  0
LINE
  8
0
 10
-0.54
 11
-0.676
 20
-10.987
 21
-10.977
  0
LINE
  8
0
 10
-0.676
 11
-0.679
 20
-10.977
 21
-10.689
  0
LINE
  8
0
 10
-0.679
 11
-0.739
 20
-10.689
 21
-10.27
  0
LINE
  8
0
 10
-0.739
 11
-0.846
 20
-10.27
 21
-9.843
  0
LINE
  8
0
 10
-0.846
 11
-0.997
 20
-9.843
 21
-9.411
  0
LINE
  8
0
 10
-0.997
 11
-1.19
 20
-9.411
 21
-8.976
  0
LINE
  8
0
 10
-1.19
 11
-1.642
 20
-8.976
 21
-8.905
  0
LINE
  8
0
 10
-1.642
 11
-1.959
 20
-8.905
 21
-9.258
  0
LINE
  8
0
 10
-1.959
 11
-2.237
 20
-9.258
 21
-9.623
  0
LINE
  8
0
 10
-2.237
 11
-2.471
 20
-9.623
 21
-9.996
  0
LINE
  8
0
 10
-2.471
 11
-2.658
 20
-9.996
 21
-10.376
  0
LINE
  8
0
 10
-2.658
 11
-2.749
 20
-10.376
 21
-10.649
  0
LINE
  8
0
 10
-2.749
 11
-3.193
 20
-10.649
 21
-10.526
  0
LINE
  8
0
 10
-3.193
 11
-3.706
 20
-10.526
 21
-10.357
  0
LINE
  8
0
 10
-3.706
 11
-4.035
 20
-10.357
 21
-10.23
  0
LINE
  8
0
 10
-4.035
 11
-3.949
 20
-10.23
 21
-9.957
  0
LINE
  8
0
 10
-3.949
 11
-3.876
 20
-9.957
 21
-9.539
  0
LINE
  8
0
 10
-3.876
 11
-3.846
 20
-9.539
 21
-9.1
  0
LINE
  8
0
 10
-3.846
 11
-3.857
 20
-9.1
 21
-8.642
  0
LINE
  8
0
 10
-3.857
 11
-3.905
 20
-8.642
 21
-8.169
  0
LINE
  8
0
 10
-3.905
 11
-4.314
 20
-8.169
 21
-7.961
  0
LINE
  8
0
 10
-4.314
 11
-4.725
 20
-7.961
 21
-8.2
  0
LINE
  8
0
 10
-4.725
 11
-5.101
 20
-8.2
 21
-8.46
  0
LINE
  8
0
 10
-5.101
 11
-5.439
 20
-8.46
 21
-8.743
  0
LINE
  8
0
 10
-5.439
 11
-5.734
 20
-8.743
 21
-9.047
  0
LINE
  8
0
 10
-5.734
 11
-5.905
 20
-9.047
 21
-9.277
  0
LINE
  8
0
 10
-5.905
 11
-6.111
 20
-9.277
 21
-9.146
  0
LINE
  8
0
 10
-6.111
 11
-6.553
 20
-9.146
 21
-8.835
  0
LINE
  8
0
 10
-6.553
 11
-6.978
 20
-8.835
 21
-8.503
  0
LINE
  8
0
 10
-6.978
 11
-7
 20
-8.503
 21
-8.484
  0
LINE
  8
0
 10
-7
 11
-6.832
 20
-8.484
 21
-8.249
  0
LINE
  8
0
 10
-6.832
 11
-6.634
 20
-8.249
 21
-7.874
  0
LINE
  8
0
 10
-6.634
 11
-6.47
 20
-7.874
 21
-7.466
  0
LINE
  8
0
 10
-6.47
 11
-6.339
 20
-7.466
 21
-7.027
  0
LINE
  8
0
 10
-6.339
 11
-6.239
 20
-7.027
 21
-6.563
  0
LINE
  8
0
 10
-6.239
 11
-6.563
 20
-6.563
 21
-6.239
  0
LINE
  8
0
 10
-6.563
 11
-7.027
 20
-6.239
 21
-6.339
  0
LINE
  8
0
 10
-7.027
 11
-7.466
 20
-6.339
 21
-6.47
  0
LINE
  8
0
 10
-7.466
 11
-7.874
 20
-6.47
 21
-6.634
  0
LINE
  8
0
 10
-7.874
 11
-8.249
 20
-6.634
 21
-6.832
  0
LINE
  8
0
 10
-8.249
 11
-8.484
 20
-6.832
 21
-7
  0
LINE
  8
0
 10
-8.484
 11
-8.503
 20
-7
 21
-6.978
  0
LINE
  8
0
 10
-8.503
 11
-8.835
 20
-6.978
 21
-6.553
  0
LINE
  8
0
 10
-8.835
 11
-9.146
 20
-6.553
 21
-6.111
  0
LINE
  8
0
 10
-9.146
 11
-9.277
 20
-6.111
 21
-5.905
  0
LINE
  8
0
 10
-9.277
 11
-9.047
 20
-5.905
 21
-5.734
  0
LINE
  8
0
 10
-9.047
 11
-8.743
 20
-5.734
 21
-5.439
  0
LINE
  8
0
 10
-8.743
 11
-8.46
 20
-5.439
 21
-5.101
  0
LINE
  8
0
 10
-8.46
 11
-8.2
 20
-5.101
 21
-4.725
  0
LINE
  8
0
 10
-8.2
 11
-7.961
 20
-4.725
 21
-4.314
  0
LINE
  8
0
 10
-7.961
 11
-8.169
 20
-4.314
 21
-3.905
  0
LINE
  8
0
 10
-8.169
 11
-8.642
 20
-3.905
 21
-3.857
  0
LINE
  8
0
 10
-8.642
 11
-9.1
 20
-3.857
 21
-3.846
  0
LINE
  8
0
 10
-9.1
 11
-9.539
 20
-3.846
 21
-3.876
  0
LINE
  8
0
 10
-9.539
 11
-9.957
 20
-3.876
 21
-3.949
  0
LINE
  8
0
 10
-9.957
 11
-10.23
 20
-3.949
 21
-4.035
  0
LINE
  8
0
 10
-10.23
 11
-10.357
 20
-4.035
 21
-3.706
  0
LINE
  8
0
 10
-10.357
 11
-10.526
 20
-3.706
 21
-3.193
  0
LINE
  8
0
 10
-10.526
 11
-10.649
 20
-3.193
 21
-2.749
  0
LINE
  8
0
 10
-10.649
 11
-10.376
 20
-2.749
 21
-2.658
  0
LINE
  8
0
 10
-10.376
 11
-9.996
 20
-2.658
 21
-2.471
  0
LINE
  8
0
 10
-9.996
 11
-9.623
 20
-2.471
 21
-2.237
  0
LINE
  8
0
 10
-9.623
 11
-9.258
 20
-2.237
 21
-1.959
  0
LINE
  8
0
 10
-9.258
 11
-8.905
 20
-1.959
 21
-1.642
  0
LINE
  8
0
 10
-8.905
 11
-8.976
 20
-1.642
 21
-1.19
  0
LINE
  8
0
 10
-8.976
 11
-9.411
 20
-1.19
 21
-0.997
  0
LINE
  8
0
 10
-9.411
 11
-9.843
 20
-0.997
 21
-0.846
  0
LINE
  8
0
 10
-9.843
 11
-10.27
 20
-0.846
 21
-0.739
  0
LINE
  8
0
 10
-10.27
 11
-10.689
 20
-0.739
 21
-0.679
  0
LINE
  8
0
 10
-10.689
 11
-10.977
 20
-0.679
 21
-0.676
  0
LINE
  8
0
 10
-10.977
 11
-10.987
 20
-0.676
 21
-0.54
  0
LINE
  8
0
 10
-10.987
 11
-11
 20
-0.54
 21
0
  0
LINE
  8
0
 10
-13
 11
-12.984
 20
0
 21
0.638
  0
LINE
  8
0
 10
-12.984
 11
-12.937
 20
0.638
 21
1.274
  0
LINE
  8
0
 10
-12.937
 11
-12.859
 20
1.274
 21
1.907
  0
LINE
  8
0
 10
-12.859
 11
-12.75
 20
1.907
 21
2.536
  0
LINE
  8
0
 10
-12.75
 11
-12.61
 20
2.536
 21
3.159
  0
LINE
  8
0
 10
-12.61
 11
-12.44
 20
3.159
 21
3.774
  0
LINE
  8
0
 10
-12.44
 11
-12.24
 20
3.774
 21
4.38
  0
LINE
  8
0
 10
-12.24
 11
-12.01
 20
4.38
 21
4.975
  0
LINE
  8
0
 10
-12.01
 11
-11.752
 20
4.975
 21
5.558
  0
LINE
  8
0
 10
-11.752
 11
-11.465
 20
5.558
 21
6.128
  0
LINE
  8
0
 10
-11.465
 11
-11.15
 20
6.128
 21
6.683
  0
LINE
  8
0
 10
-11.15
 11
-10.809
 20
6.683
 21
7.222
  0
LINE
  8
0
 10
-10.809
 11
-10.442
 20
7.222
 21
7.744
  0
LINE
  8
0
 10
-10.442
 11
-10.049
 20
7.744
 21
8.247
  0
LINE
  8
0
 10
-10.049
 11
-9.632
 20
8.247
 21
8.73
  0
LINE
  8
0
 10
-9.632
 11
-9.192
 20
8.73
 21
9.192
  0
LINE
  8
0
 10
-9.192
 11
-8.73
 20
9.192
 21
9.632
  0
LINE
  8
0
 10
-8.73
 11
-8.247
 20
9.632
 21
10.049
  0
LINE
  8
0
 10
-8.247
 11
-7.744
 20
10.049
 21
10.442
  0
LINE
  8
0
 10
-7.744
 11
-7.222
 20
10.442
 21
10.809
  0
LINE
  8
0
 10
-7.222
 11
-6.683
 20
10.809
 21
11.15
  0
LINE
  8
0
 10
-6.683
 11
-6.128
 20
11.15
 21
11.465
  0
LINE
  8
0
 10
-6.128
 11
-5.558
 20
11.465
 21
11.752
  0
LINE
  8
0
 10
-5.558
 11
-4.975
 20
11.752
 21
12.01
  0
LINE
  8
0
 10
-4.975
 11
-4.38
 20
12.01
 21
12.24
  0
LINE
  8
0
 10
-4.38
 11
-3.774
 20
12.24
 21
12.44
  0
LINE
  8
0
 10
-3.774
 11
-3.159
 20
12.44
 21
12.61
  0
LINE
  8
0
 10
-3.159
 11
-2.536
 20
12.61
 21
12.75
  0
LINE
  8
0
 10
-2.536
 11
-1.907
 20
12.75
 21
12.859
  0
LINE
  8
0
 10
-1.907
 11
-1.274
 20
12.859
 21
12.937
  0
LINE
  8
0
 10
-1.274
 11
-0.638
 20
12.937
 21
12.984
  0
LINE
  8
0
 10
-0.638
 11
0
 20
12.984
 21
13
  0
LINE
  8
0
 10
0
 11
0.638
 20
13
 21
12.984
  0
LINE
  8
0
 10
0.638
 11
1.274
 20
12.984
 21
12.937
  0
LINE
  8
0
 10
1.274
 11
1.907
 20
12.937
 21
12.859
  0
LINE
  8
0
 10
1.907
 11
2.536
 20
12.859
 21
12.75
  0
LINE
  8
0
 10
2.536
 11
3.159
 20
12.75
 21
12.61
  0
LINE
  8
0
 10
3.159
 11
3.774
 20
12.61
 21
12.44
  0
LINE
  8
0
 10
3.774
 11
4.38
 20
12.44
 21
12.24
  0
LINE
  8
0
 10
4.38
 11
4.975
 20
12.24
 21
12.01
  0
LINE
  8
0
 10
4.975
 11
5.558
 20
12.01
 21
11.752
  0
LINE
  8
0
 10
5.558
 11
6.128
 20
11.752
 21
11.465
  0
LINE
  8
0
 10
6.128
 11
6.683
 20
11.465
 21
11.15
  0
LINE
  8
0
 10
6.683
 11
7.222
 20
11.15
 21
10.809
  0
LINE
  8
0
 10
7.222
 11
7.744
 20
10.809
 21
10.442
  0
LINE
  8
0
 10
7.744
 11
8.247
 20
10.442
 21
10.049
  0
LINE
  8
0
 10
8.247
 11
8.73
 20
10.049
 21
9.632
  0
LINE
  8
0
 10
8.73
 11
9.192
 20
9.632
 21
9.192
  0
LINE
  8
0
 10
9.192
 11
9.632
 20
9.192
 21
8.73
  0
LINE
  8
0
 10
9.632
 11
10.049
 20
8.73
 21
8.247
  0
LINE
  8
0
 10
10.049
 11
10.442
 20
8.247
 21
7.744
  0
LINE
  8
0
 10
10.442
 11
10.809
 20
7.744
 21
7.222
  0
LINE
  8
0
 10
10.809
 11
11.15
 20
7.222
 21
6.683
  0
LINE
  8
0
 10
11.15
 11
11.465
 20
6.683
 21
6.128
  0
LINE
  8
0
 10
11.465
 11
11.752
 20
6.128
 21
5.558
  0
LINE
  8
0
 10
11.752
 11
12.01
 20
5.558
 21
4.975
  0
LINE
  8
0
 10
12.01
 11
12.24
 20
4.975
 21
4.38
  0
LINE
  8
0
 10
12.24
 11
12.44
 20
4.38
 21
3.774
  0
LINE
  8
0
 10
12.44
 11
12.61
 20
3.774
 21
3.159
  0
LINE
  8
0
 10
12.61
 11
12.75
 20
3.159
 21
2.536
  0
LINE
  8
0
 10
12.75
 11
12.859
 20
2.536
 21
1.907
  0
LINE
  8
0
 10
12.859
 11
12.937
 20
1.907
 21
1.274
  0
LINE
  8
0
 10
12.937
 11
12.984
 20
1.274
 21
0.638
  0
LINE
  8
0
 10
12.984
 11
13
 20
0.638
 21
0
  0
LINE
  8
0
 10
13
 11
12.984
 20
0
 21
-0.638
  0
LINE
  8
0
 10
12.984
 11
12.937
 20
-0.638
 21
-1.274
  0
LINE
  8
0
 10
12.937
 11
12.859
 20
-1.274
 21
-1.907
  0
LINE
  8
0
 10
12.859
 11
12.75
 20
-1.907
 21
-2.536
  0
LINE
  8
0
 10
12.75
 11
12.61
 20
-2.536
 21
-3.159
  0
LINE
  8
0
 10
12.61
 11
12.44
 20
-3.159
 21
-3.774
  0
LINE
  8
0
 10
12.44
 11
12.24
 20
-3.774
 21
-4.38
  0
LINE
  8
0
 10
12.24
 11
12.01
 20
-4.38
 21
-4.975
  0
LINE
  8
0
 10
12.01
 11
11.752
 20
-4.975
 21
-5.558
  0
LINE
  8
0
 10
11.752
 11
11.465
 20
-5.558
 21
-6.128
  0
LINE
  8
0
 10
11.465
 11
11.15
 20
-6.128
 21
-6.683
  0
LINE
  8
0
 10
11.15
 11
10.809
 20
-6.683
 21
-7.222
  0
LINE
  8
0
 10
10.809
 11
10.442
 20
-7.222
 21
-7.744
  0
LINE
  8
0
 10
10.442
 11
10.049
 20
-7.744
 21
-8.247
  0
LINE
  8
0
 10
10.049
 11
9.632
 20
-8.247
 21
-8.73
  0
LINE
  8
0
 10
9.632
 11
9.192
 20
-8.73
 21
-9.192
  0
LINE
  8
0
 10
9.192
 11
8.73
 20
-9.192
 21
-9.632
  0
LINE
  8
0
 10
8.73
 11
8.247
 20
-9.632
 21
-10.049
  0
LINE
  8
0
 10
8.247
 11
7.744
 20
-10.049
 21
-10.442
  0
LINE
  8
0
 10
7.744
 11
7.222
 20
-10.442
 21
-10.809
  0
LINE
  8
0
 10
7.222
 11
6.683
 20
-10.809
 21
-11.15
  0
LINE
  8
0
 10
6.683
 11
6.128
 20
-11.15
 21
-11.465
  0
LINE
  8
0
 10
6.128
 11
5.558
 20
-11.465
 21
-11.752
  0
LINE
  8
0
 10
5.558
 11
4.975
 20
-11.752
 21
-12.01
  0
LINE
  8
0
 10
4.975
 11
4.38
 20
-12.01
 21
-12.24
  0
LINE
  8
0
 10
4.38
 11
3.774
 20
-12.24
 21
-12.44
  0
LINE
  8
0
 10
3.774
 11
3.159
 20
-12.44
 21
-12.61
  0
LINE
  8
0
 10
3.159
 11
2.536
 20
-12.61
 21
-12.75
  0
LINE
  8
0
 10
2.536
 11
1.907
 20
-12.75
 21
-12.859
  0
LINE
  8
0
 10
1.907
 11
1.274
 20
-12.859
 21
-12.937
  0
LINE
  8
0
 10
1.274
 11
0.638
 20
-12.937
 21
-12.984
  0
LINE
  8
0
 10
0.638
 11
0
 20
-12.984
 21
-13
  0
LINE
  8
0
 10
0
 11
-0.638
 20
-13
 21
-12.984
  0
LINE
  8
0
 10
-0.638
 11
-1.274
 20
-12.984
 21
-12.937
  0
LINE
  8
0
 10
-1.274
 11
-1.907
 20
-12.937
 21
-12.859
  0
LINE
  8
0
 10
-1.907
 11
-2.536
 20
-12.859
 21
-12.75
  0
LINE
  8
0
 10
-2.536
 11
-3.159
 20
-12.75
 21
-12.61
  0
LINE
  8
0
 10
-3.159
 11
-3.774
 20
-12.61
 21
-12.44
  0
LINE
  8
0
 10
-3.774
 11
-4.38
 20
-12.44
 21
-12.24
  0
LINE
  8
0
 10
-4.38
 11
-4.975
 20
-12.24
 21
-12.01
  0
LINE
  8
0
 10
-4.975
 11
-5.558
 20
-12.01
 21
-11.752
  0
LINE
  8
0
 10
-5.558
 11
-6.128
 20
-11.752
 21
-11.465
  0
LINE
  8
0
 10
-6.128
 11
-6.683
 20
-11.465
 21
-11.15
  0
LINE
  8
0
 10
-6.683
 11
-7.222
 20
-11.15
 21
-10.809
  0
LINE
  8
0
 10
-7.222
 11
-7.744
 20
-10.809
 21
-10.442
  0
LINE
  8
0
 10
-7.744
 11
-8.247
 20
-10.442
 21
-10.049
  0
LINE
  8
0
 10
-8.247
 11
-8.73
 20
-10.049
 21
-9.632
  0
LINE
  8
0
 10
-8.73
 11
-9.192
 20
-9.632
 21
-9.192
  0
LINE
  8
0
 10
-9.192
 11
-9.632
 20
-9.192
 21
-8.73
  0
LINE
  8
0
 10
-9.632
 11
-10.049
 20
-8.73
 21
-8.247
  0
LINE
  8
0
 10
-10.049
 11
-10.442
 20
-8.247
 21
-7.744
  0
LINE
  8
0
 10
-10.442
 11
-10.809
 20
-7.744
 21
-7.222
  0
LINE
  8
0
 10
-10.809
 11
-11.15
 20
-7.222
 21
-6.683
  0
LINE
  8
0
 10
-11.15
 11
-11.465
 20
-6.683
 21
-6.128
  0
LINE
  8
0
 10
-11.465
 11
-11.752
 20
-6.128
 21
-5.558
  0
LINE
  8
0
 10
-11.752
 11
-12.01
 20
-5.558
 21
-4.975
  0
LINE
  8
0
 10
-12.01
 11
-12.24
 20
-4.975
 21
-4.38
  0
LINE
  8
0
 10
-12.24
 11
-12.44
 20
-4.38
 21
-3.774
  0
LINE
  8
0
 10
-12.44
 11
-12.61
 20
-3.774
 21
-3.159
  0
LINE
  8
0
 10
-12.61
 11
-12.75
 20
-3.159
 21
-2.536
  0
LINE
  8
0
 10
-12.75
 11
-12.859
 20
-2.536
 21
-1.907
  0
LINE
  8
0
 10
-12.859
 11
-12.937
 20
-1.907
 21
-1.274
  0
LINE
  8
0
 10
-12.937
 11
-12.984
 20
-1.274
 21
-0.638
  0
LINE
  8
0
 10
-12.984
 11
-13
 20
-0.638
 21
0
  0
LINE
  8
0
 10
-0.947
 11
-0.947
 20
-0.186
 21
0.186
  0
LINE
  8
0
 10
-0.947
 11
-0.627
 20
0.186
 21
0.43
  0
LINE
  8
0
 10
-0.627
 11
-0.299
 20
0.43
 21
0.626
  0
LINE
  8
0
 10
-0.299
 11
0.031
 20
0.626
 21
0.771
  0
LINE
  8
0
 10
0.031
 11
0.357
 20
0.771
 21
0.861
  0
LINE
  8
0
 10
0.357
 11
0.673
 20
0.861
 21
0.877
  0
LINE
  8
0
 10
0.673
 11
1.08
 20
0.877
 21
0.795
  0
LINE
  8
0
 10
1.08
 11
1.194
 20
0.795
 21
1.229
  0
LINE
  8
0
 10
1.194
 11
1.196
 20
1.229
 21
1.236
  0
LINE
  8
0
 10
1.196
 11
1.199
 20
1.236
 21
1.243
  0
LINE
  8
0
 10
1.199
 11
1.361
 20
1.243
 21
1.661
  0
LINE
  8
0
 10
1.361
 11
0.984
 20
1.661
 21
1.834
  0
LINE
  8
0
 10
0.984
 11
0.738
 20
1.834
 21
2.033
  0
LINE
  8
0
 10
0.738
 11
0.527
 20
2.033
 21
2.297
  0
LINE
  8
0
 10
0.527
 11
0.345
 20
2.297
 21
2.608
  0
LINE
  8
0
 10
0.345
 11
0.195
 20
2.608
 21
2.96
  0
LINE
  8
0
 10
0.195
 11
0.079
 20
2.96
 21
3.345
  0
LINE
  8
0
 10
0.079
 11
0.298
 20
3.345
 21
3.646
  0
LINE
  8
0
 10
0.298
 11
0.7
 20
3.646
 21
3.655
  0
LINE
  8
0
 10
0.7
 11
1.081
 20
3.655
 21
3.621
  0
LINE
  8
0
 10
1.081
 11
1.433
 20
3.621
 21
3.544
  0
LINE
  8
0
 10
1.433
 11
1.75
 20
3.544
 21
3.426
  0
LINE
  8
0
 10
1.75
 11
2.015
 20
3.426
 21
3.253
  0
LINE
  8
0
 10
2.015
 11
2.296
 20
3.253
 21
2.947
  0
LINE
  8
0
 10
2.296
 11
2.643
 20
2.947
 21
3.232
  0
LINE
  8
0
 10
2.643
 11
2.649
 20
3.232
 21
3.236
  0
LINE
  8
0
 10
2.649
 11
2.655
 20
3.236
 21
3.24
  0
LINE
  8
0
 10
2.655
 11
3.033
 20
3.24
 21
3.482
  0
LINE
  8
0
 10
3.033
 11
2.829
 20
3.482
 21
3.844
  0
LINE
  8
0
 10
2.829
 11
2.746
 20
3.844
 21
4.15
  0
LINE
  8
0
 10
2.746
 11
2.731
 20
4.15
 21
4.488
  0
LINE
  8
0
 10
2.731
 11
2.767
 20
4.488
 21
4.846
  0
LINE
  8
0
 10
2.767
 11
2.852
 20
4.846
 21
5.219
  0
LINE
  8
0
 10
2.852
 11
2.985
 20
5.219
 21
5.598
  0
LINE
  8
0
 10
2.985
 11
3.339
 20
5.598
 21
5.713
  0
LINE
  8
0
 10
3.339
 11
3.67
 20
5.713
 21
5.484
  0
LINE
  8
0
 10
3.67
 11
3.958
 20
5.484
 21
5.233
  0
LINE
  8
0
 10
3.958
 11
4.198
 20
5.233
 21
4.964
  0
LINE
  8
0
 10
4.198
 11
4.384
 20
4.964
 21
4.682
  0
LINE
  8
0
 10
4.384
 11
4.497
 20
4.682
 21
4.386
  0
LINE
  8
0
 10
4.497
 11
4.545
 20
4.386
 21
3.974
  0
LINE
  8
0
 10
4.545
 11
4.993
 20
3.974
 21
4
  0
LINE
  8
0
 10
4.993
 11
5
 20
4
 21
4
  0
LINE
  8
0
 10
5
 11
5.007
 20
4
 21
3.999
  0
LINE
  8
0
 10
5.007
 11
5.455
 20
3.999
 21
3.974
  0
LINE
  8
0
 10
5.455
 11
5.503
 20
3.974
 21
4.386
  0
LINE
  8
0
 10
5.503
 11
5.616
 20
4.386
 21
4.682
  0
LINE
  8
0
 10
5.616
 11
5.802
 20
4.682
 21
4.964
  0
LINE
  8
0
 10
5.802
 11
6.042
 20
4.964
 21
5.233
  0
LINE
  8
0
 10
6.042
 11
6.33
 20
5.233
 21
5.484
  0
LINE
  8
0
 10
6.33
 11
6.661
 20
5.484
 21
5.713
  0
LINE
  8
0
 10
6.661
 11
7.015
 20
5.713
 21
5.598
  0
LINE
  8
0
 10
7.015
 11
7.148
 20
5.598
 21
5.219
  0
LINE
  8
0
 10
7.148
 11
7.233
 20
5.219
 21
4.846
  0
LINE
  8
0
 10
7.233
 11
7.269
 20
4.846
 21
4.488
  0
LINE
  8
0
 10
7.269
 11
7.254
 20
4.488
 21
4.15
  0
LINE
  8
0
 10
7.254
 11
7.171
 20
4.15
 21
3.844
  0
LINE
  8
0
 10
7.171
 11
6.967
 20
3.844
 21
3.482
  0
LINE
  8
0
 10
6.967
 11
7.345
 20
3.482
 21
3.24
  0
LINE
  8
0
 10
7.345
 11
7.351
 20
3.24
 21
3.236
  0
LINE
  8
0
 10
7.351
 11
7.357
 20
3.236
 21
3.231
  0
LINE
  8
0
 10
7.357
 11
7.704
 20
3.231
 21
2.947
  0
LINE
  8
0
 10
7.704
 11
7.985
 20
2.947
 21
3.253
  0
LINE
  8
0
 10
7.985
 11
8.25
 20
3.253
 21
3.426
  0
LINE
  8
0
 10
8.25
 11
8.567
 20
3.426
 21
3.544
  0
LINE
  8
0
 10
8.567
 11
8.919
 20
3.544
 21
3.621
  0
LINE
  8
0
 10
8.919
 11
9.3
 20
3.621
 21
3.655
  0
LINE
  8
0
 10
9.3
 11
9.702
 20
3.655
 21
3.646
  0
LINE
  8
0
 10
9.702
 11
9.921
 20
3.646
 21
3.345
  0
LINE
  8
0
 10
9.921
 11
9.805
 20
3.345
 21
2.96
  0
LINE
  8
0
 10
9.805
 11
9.655
 20
2.96
 21
2.608
  0
LINE
  8
0
 10
9.655
 11
9.473
 20
2.608
 21
2.297
  0
LINE
  8
0
 10
9.473
 11
9.262
 20
2.297
 21
2.033
  0
LINE
  8
0
 10
9.262
 11
9.016
 20
2.033
 21
1.834
  0
LINE
  8
0
 10
9.016
 11
8.639
 20
1.834
 21
1.661
  0
LINE
  8
0
 10
8.639
 11
8.802
 20
1.661
 21
1.243
  0
LINE
  8
0
 10
8.802
 11
8.804
 20
1.243
 21
1.236
  0
LINE
  8
0
 10
8.804
 11
8.806
 20
1.236
 21
1.229
  0
LINE
  8
0
 10
8.806
 11
8.92
 20
1.229
 21
0.795
  0
LINE
  8
0
 10
8.92
 11
9.327
 20
0.795
 21
0.877
  0
LINE
  8
0
 10
9.327
 11
9.643
 20
0.877
 21
0.861
  0
LINE
  8
0
 10
9.643
 11
9.969
 20
0.861
 21
0.771
  0
LINE
  8
0
 10
9.969
 11
10.299
 20
0.771
 21
0.626
  0
LINE
  8
0
 10
10.299
 11
10.627
 20
0.626
 21
0.43
  0
LINE
  8
0
 10
10.627
 11
10.947
 20
0.43
 21
0.186
  0
LINE
  8
0
 10
10.947
 11
10.947
 20
0.186
 21
-0.186
  0
LINE
  8
0
 10
10.947
 11
10.627
 20
-0.186
 21
-0.43
  0
LINE
  8
0
 10
10.627
 11
10.299
 20
-0.43
 21
-0.626
  0
LINE
  8
0
 10
10.299
 11
9.969
 20
-0.626
 21
-0.771
  0
LINE
  8
0
 10
9.969
 11
9.643
 20
-0.771
 21
-0.861
  0
LINE
  8
0
 10
9.643
 11
9.327
 20
-0.861
 21
-0.877
  0
LINE
  8
0
 10
9.327
 11
8.92
 20
-0.877
 21
-0.795
  0
LINE
  8
0
 10
8.92
 11
8.807
 20
-0.795
 21
-1.229
  0
LINE
  8
0
 10
8.807
 11
8.804
 20
-1.229
 21
-1.236
  0
LINE
  8
0
 10
8.804
 11
8.801
 20
-1.236
 21
-1.243
  0
LINE
  8
0
 10
8.801
 11
8.639
 20
-1.243
 21
-1.661
  0
LINE
  8
0
 10
8.639
 11
9.016
 20
-1.661
 21
-1.834
  0
LINE
  8
0
 10
9.016
 11
9.262
 20
-1.834
 21
-2.033
  0
LINE
  8
0
 10
9.262
 11
9.473
 20
-2.033
 21
-2.297
  0
LINE
  8
0
 10
9.473
 11
9.655
 20
-2.297
 21
-2.608
  0
LINE
  8
0
 10
9.655
 11
9.805
 20
-2.608
 21
-2.96
  0
LINE
  8
0
 10
9.805
 11
9.921
 20
-2.96
 21
-3.345
  0
LINE
  8
0
 10
9.921
 11
9.702
 20
-3.345
 21
-3.646
  0
LINE
  8
0
 10
9.702
 11
9.3
 20
-3.646
 21
-3.655
  0
LINE
  8
0
 10
9.3
 11
8.919
 20
-3.655
 21
-3.621
  0
LINE
  8
0
 10
8.919
 11
8.567
 20
-3.621
 21
-3.544
  0
LINE
  8
0
 10
8.567
 11
8.25
 20
-3.544
 21
-3.426
  0
LINE
  8
0
 10
8.25
 11
7.985
 20
-3.426
 21
-3.253
  0
LINE
  8
0
 10
7.985
 11
7.704
 20
-3.253
 21
-2.947
  0
LINE
  8
0
 10
7.704
 11
7.357
 20
-2.947
 21
-3.232
  0
LINE
  8
0
 10
7.357
 11
7.345
 20
-3.232
 21
-3.24
  0
LINE
  8
0
 10
7.345
 11
6.967
 20
-3.24
 21
-3.482
  0
LINE
  8
0
 10
6.967
 11
7.171
 20
-3.482
 21
-3.844
  0
LINE
  8
0
 10
7.171
 11
7.254
 20
-3.844
 21
-4.15
  0
LINE
  8
0
 10
7.254
 11
7.269
 20
-4.15
 21
-4.488
  0
LINE
  8
0
 10
7.269
 11
7.233
 20
-4.488
 21
-4.846
  0
LINE
  8
0
 10
7.233
 11
7.148
 20
-4.846
 21
-5.219
  0
LINE
  8
0
 10
7.148
 11
7.015
 20
-5.219
 21
-5.598
  0
LINE
  8
0
 10
7.015
 11
6.661
 20
-5.598
 21
-5.713
  0
LINE
  8
0
 10
6.661
 11
6.33
 20
-5.713
 21
-5.484
  0
LINE
  8
0
 10
6.33
 11
6.042
 20
-5.484
 21
-5.233
  0
LINE
  8
0
 10
6.042
 11
5.802
 20
-5.233
 21
-4.964
  0
LINE
  8
0
 10
5.802
 11
5.616
 20
-4.964
 21
-4.682
  0
LINE
  8
0
 10
5.616
 11
5.503
 20
-4.682
 21
-4.386
  0
LINE
  8
0
 10
5.503
 11
5.455
 20
-4.386
 21
-3.974
  0
LINE
  8
0
 10
5.455
 11
5.007
 20
-3.974
 21
-4
  0
LINE
  8
0
 10
5.007
 11
5
 20
-4
 21
-4
  0
LINE
  8
0
 10
5
 11
4.993
 20
-4
 21
-3.999
  0
LINE
  8
0
 10
4.993
 11
4.545
 20
-3.999
 21
-3.974
  0
LINE
  8
0
 10
4.545
 11
4.497
 20
-3.974
 21
-4.386
  0
LINE
  8
0
 10
4.497
 11
4.384
 20
-4.386
 21
-4.682
  0
LINE
  8
0
 10
4.384
 11
4.198
 20
-4.682
 21
-4.964
  0
LINE
  8
0
 10
4.198
 11
3.958
 20
-4.964
 21
-5.233
  0
LINE
  8
0
 10
3.958
 11
3.67
 20
-5.233
 21
-5.484
  0
LINE
  8
0
 10
3.67
 11
3.339
 20
-5.484
 21
-5.713
  0
LINE
  8
0
 10
3.339
 11
2.985
 20
-5.713
 21
-5.598
  0
LINE
  8
0
 10
2.985
 11
2.852
 20
-5.598
 21
-5.219
  0
LINE
  8
0
 10
2.852
 11
2.767
 20
-5.219
 21
-4.846
  0
LINE
  8
0
 10
2.767
 11
2.731
 20
-4.846
 21
-4.488
  0
LINE
  8
0
 10
2.731
 11
2.746
 20
-4.488
 21
-4.15
  0
LINE
  8
0
 10
2.746
 11
2.829
 20
-4.15
 21
-3.844
  0
LINE
  8
0
 10
2.829
 11
3.033
 20
-3.844
 21
-3.482
  0
LINE
  8
0
 10
3.033
 11
2.655
 20
-3.482
 21
-3.24
  0
LINE
  8
0
 10
2.655
 11
2.649
 20
-3.24
 21
-3.236
  0
LINE
  8
0
 10
2.649
 11
2.643
 20
-3.236
 21
-3.231
  0
LINE
  8
0
 10
2.643
 11
2.296
 20
-3.231
 21
-2.947
  0
LINE
  8
0
 10
2.296
 11
2.015
 20
-2.947
 21
-3.253
  0
LINE
  8
0
 10
2.015
 11
1.75
 20
-3.253
 21
-3.426
  0
LINE
  8
0
 10
1.75
 11
1.433
 20
-3.426
 21
-3.544
  0
LINE
  8
0
 10
1.433
 11
1.081
 20
-3.544
 21
-3.621
  0
LINE
  8
0
 10
1.081
 11
0.7
 20
-3.621
 21
-3.655
  0
LINE
  8
0
 10
0.7
 11
0.298
 20
-3.655
 21
-3.646
  0
LINE
  8
0
 10
0.298
 11
0.079
 20
-3.646
 21
-3.345
  0
LINE
  8
0
 10
0.079
 11
0.195
 20
-3.345
 21
-2.96
  0
LINE
  8
0
 10
0.195
 11
0.345
 20
-2.96
 21
-2.608
  0
LINE
  8
0
 10
0.345
 11
0.527
 20
-2.608
 21
-2.297
  0
LINE
  8
0
 10
0.527
 11
0.738
 20
-2.297
 21
-2.033
  0
LINE
  8
0
 10
0.738
 11
0.984
 20
-2.033
 21
-1.834
  0
LINE
  8
0
 10
0.984
 11
1.361
 20
-1.834
 21
-1.661
  0
LINE
  8
0
 10
1.361
 11
1.198
 20
-1.661
 21
-1.243
  0
LINE
  8
0
 10
1.198
 11
1.196
 20
-1.243
 21
-1.236
  0
LINE
  8
0
 10
1.196
 11
1.194
 20
-1.236
 21
-1.229
  0
LINE
  8
0
 10
1.194
 11
1.08
 20
-1.229
 21
-0.795
  0
LINE
  8
0
 10
1.08
 11
0.673
 20
-0.795
 21
-0.877
  0
LINE
  8
0
 10
0.673
 11
0.357
 20
-0.877
 21
-0.861
  0
LINE
  8
0
 10
0.357
 11
0.031
 20
-0.861
 21
-0.771
  0
LINE
  8
0
 10
0.031
 11
-0.299
 20
-0.771
 21
-0.626
  0
LINE
  8
0
 10
-0.299
 11
-0.627
 20
-0.626
 21
-0.43
  0
LINE
  8
0
 10
-0.627
 11
-0.947
 20
-0.43
 21
-0.186
  0
ENDSEC
  0
SECTION
  2
OBJECTS
  0
DICTIONARY
  0
ENDSEC
  0
EOF
