solid OpenSCAD_Model
  facet normal 0 1 -0
    outer loop
      vertex 24.2271 19.375 38.572
      vertex 23.7219 19.375 39.7664
      vertex 24.6056 19.375 38.8835
    endloop
  endfacet
  facet normal 0 1 -0
    outer loop
      vertex 23.7952 19.375 38.3408
      vertex 23.316 19.375 39.4959
      vertex 24.2271 19.375 38.572
    endloop
  endfacet
  facet normal -2.88383e-15 1 -6.83087e-15
    outer loop
      vertex 23.7219 19.375 39.7664
      vertex 23.9926 19.375 40.1723
      vertex 24.9167 19.375 39.262
    endloop
  endfacet
  facet normal 0 1 0
    outer loop
      vertex 25.29 19.375 41.138
      vertex 23.9924 19.375 41.1289
      vertex 25.1481 19.375 41.6069
    endloop
  endfacet
  facet normal 0 1 0
    outer loop
      vertex 25.29 19.375 41.138
      vertex 25.3377 19.375 40.651
      vertex 24.0882 19.375 40.6506
    endloop
  endfacet
  facet normal 0 1 0
    outer loop
      vertex 24.9172 19.375 42.0397
      vertex 25.1481 19.375 41.6069
      vertex 23.9924 19.375 41.1289
    endloop
  endfacet
  facet normal 0 1 0
    outer loop
      vertex 24.6057 19.375 42.4182
      vertex 23.7219 19.375 41.5348
      vertex 24.2272 19.375 42.7293
    endloop
  endfacet
  facet normal 0 1 0
    outer loop
      vertex 22.8383 19.375 43.1503
      vertex 22.8377 19.375 41.9011
      vertex 22.3594 19.375 41.8054
    endloop
  endfacet
  facet normal 0 1 0
    outer loop
      vertex 9.60251 19.375 43.151
      vertex 22.8383 19.375 43.1503
      vertex 21.9544 19.375 41.5345
    endloop
  endfacet
  facet normal 0 1 0
    outer loop
      vertex 23.3259 19.375 43.1026
      vertex 23.7944 19.375 42.9603
      vertex 23.3161 19.375 41.8055
    endloop
  endfacet
  facet normal -5.1975e-17 1 -7.55243e-15
    outer loop
      vertex 23.9926 19.375 40.1723
      vertex 25.2901 19.375 40.1633
      vertex 25.1474 19.375 39.6939
    endloop
  endfacet
  facet normal 0 1 0
    outer loop
      vertex 9.60251 19.375 43.151
      vertex 21.9544 19.375 41.5345
      vertex 10.4858 19.375 41.5346
    endloop
  endfacet
  facet normal 0 1 0
    outer loop
      vertex 21.9539 19.375 39.7673
      vertex 22.3594 19.375 39.4958
      vertex 22.8381 19.375 38.1506
    endloop
  endfacet
  facet normal 0 1 0
    outer loop
      vertex 9.12365 19.375 41.8061
      vertex 8.71827 19.375 41.5343
      vertex 8.21344 19.375 42.7296
    endloop
  endfacet
  facet normal 0 1 0
    outer loop
      vertex 8.71827 19.375 41.5343
      vertex 7.52385 19.375 42.0396
      vertex 7.83405 19.375 42.4185
    endloop
  endfacet
  facet normal 0 1 0
    outer loop
      vertex 8.71827 19.375 41.5343
      vertex 8.44673 19.375 41.1288
      vertex 7.52385 19.375 42.0396
    endloop
  endfacet
  facet normal 0 1 0
    outer loop
      vertex 8.44673 19.375 41.1288
      vertex 7.15051 19.375 41.1382
      vertex 7.29188 19.375 41.6071
    endloop
  endfacet
  facet normal 0 1 0
    outer loop
      vertex 8.44673 19.375 41.1288
      vertex 8.3524 19.375 40.651
      vertex 7.15051 19.375 41.1382
    endloop
  endfacet
  facet normal 0 1 0
    outer loop
      vertex 8.3524 19.375 40.651
      vertex 8.44685 19.375 40.1721
      vertex 7.15022 19.375 40.1627
    endloop
  endfacet
  facet normal 0 1 0
    outer loop
      vertex 7.10195 19.375 40.651
      vertex 8.3524 19.375 40.651
      vertex 7.15022 19.375 40.1627
    endloop
  endfacet
  facet normal -2.51825e-15 1 -1.34815e-15
    outer loop
      vertex 8.44685 19.375 40.1721
      vertex 7.52335 19.375 39.2619
      vertex 7.29213 19.375 39.6938
    endloop
  endfacet
  facet normal 2.88452e-15 1 -6.82981e-15
    outer loop
      vertex 8.44685 19.375 40.1721
      vertex 8.71866 19.375 39.7667
      vertex 7.52335 19.375 39.2619
    endloop
  endfacet
  facet normal -0 1 0
    outer loop
      vertex 7.52335 19.375 39.2619
      vertex 8.71866 19.375 39.7667
      vertex 7.83446 19.375 38.8825
    endloop
  endfacet
  facet normal -0 1 0
    outer loop
      vertex 7.83446 19.375 38.8825
      vertex 8.71866 19.375 39.7667
      vertex 8.21334 19.375 38.5723
    endloop
  endfacet
  facet normal 0 1 0
    outer loop
      vertex 8.21334 19.375 38.5723
      vertex 8.71866 19.375 39.7667
      vertex 9.12322 19.375 39.4956
    endloop
  endfacet
  facet normal 0 1 -0
    outer loop
      vertex 8.64487 19.375 38.3407
      vertex 8.21334 19.375 38.5723
      vertex 9.12322 19.375 39.4956
    endloop
  endfacet
  facet normal 0 1 -0
    outer loop
      vertex 9.11467 19.375 38.199
      vertex 8.64487 19.375 38.3407
      vertex 9.12322 19.375 39.4956
    endloop
  endfacet
  facet normal 0 1 0
    outer loop
      vertex 21.9539 19.375 39.7673
      vertex 22.8381 19.375 38.1506
      vertex 10.4862 19.375 39.7671
    endloop
  endfacet
  facet normal 0 1 0
    outer loop
      vertex 23.316 19.375 39.4959
      vertex 23.3263 19.375 38.1989
      vertex 22.8381 19.375 39.4011
    endloop
  endfacet
  facet normal 1.98794e-19 1 -8.7736e-15
    outer loop
      vertex 21.683 19.375 40.1723
      vertex 10.4862 19.375 39.7671
      vertex 10.7564 19.375 40.1721
    endloop
  endfacet
  facet normal 2.51902e-15 1 -1.3455e-15
    outer loop
      vertex 24.9167 19.375 39.262
      vertex 23.9926 19.375 40.1723
      vertex 25.1474 19.375 39.6939
    endloop
  endfacet
  facet normal 0 1 -0
    outer loop
      vertex 21.5882 19.375 40.6503
      vertex 10.7576 19.375 41.1293
      vertex 21.6829 19.375 41.129
    endloop
  endfacet
  facet normal 0 1 0
    outer loop
      vertex 10.4858 19.375 41.5346
      vertex 10.0799 19.375 41.8053
      vertex 9.60251 19.375 43.151
    endloop
  endfacet
  facet normal 0 1 0
    outer loop
      vertex 9.60251 19.375 43.151
      vertex 10.0799 19.375 41.8053
      vertex 9.60249 19.375 41.9005
    endloop
  endfacet
  facet normal 0 1 0
    outer loop
      vertex 21.9544 19.375 41.5345
      vertex 22.8383 19.375 43.1503
      vertex 22.3594 19.375 41.8054
    endloop
  endfacet
  facet normal -0 1 0
    outer loop
      vertex 22.8377 19.375 41.9011
      vertex 23.3259 19.375 43.1026
      vertex 23.3161 19.375 41.8055
    endloop
  endfacet
  facet normal 0 1 0
    outer loop
      vertex 22.8383 19.375 43.1503
      vertex 23.3259 19.375 43.1026
      vertex 22.8377 19.375 41.9011
    endloop
  endfacet
  facet normal -0 1 0
    outer loop
      vertex 23.3161 19.375 41.8055
      vertex 24.2272 19.375 42.7293
      vertex 23.7219 19.375 41.5348
    endloop
  endfacet
  facet normal 0 1 0
    outer loop
      vertex 23.7944 19.375 42.9603
      vertex 24.2272 19.375 42.7293
      vertex 23.3161 19.375 41.8055
    endloop
  endfacet
  facet normal -0 1 0
    outer loop
      vertex 23.7219 19.375 41.5348
      vertex 24.9172 19.375 42.0397
      vertex 23.9924 19.375 41.1289
    endloop
  endfacet
  facet normal 0 1 0
    outer loop
      vertex 24.6057 19.375 42.4182
      vertex 24.9172 19.375 42.0397
      vertex 23.7219 19.375 41.5348
    endloop
  endfacet
  facet normal 0 1 0
    outer loop
      vertex 25.29 19.375 41.138
      vertex 24.0882 19.375 40.6506
      vertex 23.9924 19.375 41.1289
    endloop
  endfacet
  facet normal 0 1 0
    outer loop
      vertex 24.0882 19.375 40.6506
      vertex 25.2901 19.375 40.1633
      vertex 23.9926 19.375 40.1723
    endloop
  endfacet
  facet normal 0 1 0
    outer loop
      vertex 25.3377 19.375 40.651
      vertex 25.2901 19.375 40.1633
      vertex 24.0882 19.375 40.6506
    endloop
  endfacet
  facet normal 0 1 -0
    outer loop
      vertex 24.6056 19.375 38.8835
      vertex 23.7219 19.375 39.7664
      vertex 24.9167 19.375 39.262
    endloop
  endfacet
  facet normal 0 1 0
    outer loop
      vertex 24.2271 19.375 38.572
      vertex 23.316 19.375 39.4959
      vertex 23.7219 19.375 39.7664
    endloop
  endfacet
  facet normal 0 1 0
    outer loop
      vertex 23.7952 19.375 38.3408
      vertex 23.3263 19.375 38.1989
      vertex 23.316 19.375 39.4959
    endloop
  endfacet
  facet normal 0 1 0
    outer loop
      vertex 23.3263 19.375 38.1989
      vertex 22.8381 19.375 38.1506
      vertex 22.8381 19.375 39.4011
    endloop
  endfacet
  facet normal 0 1 0
    outer loop
      vertex 22.8381 19.375 39.4011
      vertex 22.8381 19.375 38.1506
      vertex 22.3594 19.375 39.4958
    endloop
  endfacet
  facet normal -0 1 0
    outer loop
      vertex 9.11467 19.375 38.199
      vertex 9.60194 19.375 39.4009
      vertex 9.60192 19.375 38.1504
    endloop
  endfacet
  facet normal 0 1 0
    outer loop
      vertex 8.64534 19.375 42.9608
      vertex 9.12365 19.375 41.8061
      vertex 8.21344 19.375 42.7296
    endloop
  endfacet
  facet normal 5.4797e-17 1 -7.56004e-15
    outer loop
      vertex 8.44685 19.375 40.1721
      vertex 7.29213 19.375 39.6938
      vertex 7.15022 19.375 40.1627
    endloop
  endfacet
  facet normal 0 1 0
    outer loop
      vertex 9.11425 19.375 43.1027
      vertex 9.12365 19.375 41.8061
      vertex 8.64534 19.375 42.9608
    endloop
  endfacet
  facet normal 0 1 0
    outer loop
      vertex 8.3524 19.375 40.651
      vertex 7.10195 19.375 40.651
      vertex 7.15051 19.375 41.1382
    endloop
  endfacet
  facet normal 0 1 0
    outer loop
      vertex 8.44673 19.375 41.1288
      vertex 7.29188 19.375 41.6071
      vertex 7.52385 19.375 42.0396
    endloop
  endfacet
  facet normal 0 1 0
    outer loop
      vertex 8.71827 19.375 41.5343
      vertex 7.83405 19.375 42.4185
      vertex 8.21344 19.375 42.7296
    endloop
  endfacet
  facet normal 0 1 0
    outer loop
      vertex 9.11425 19.375 43.1027
      vertex 9.60249 19.375 41.9005
      vertex 9.12365 19.375 41.8061
    endloop
  endfacet
  facet normal 0 1 0
    outer loop
      vertex 22.8381 19.375 38.1506
      vertex 9.60192 19.375 38.1504
      vertex 10.4862 19.375 39.7671
    endloop
  endfacet
  facet normal 0 1 0
    outer loop
      vertex 9.60251 19.375 43.151
      vertex 9.60249 19.375 41.9005
      vertex 9.11425 19.375 43.1027
    endloop
  endfacet
  facet normal 0 1 -0
    outer loop
      vertex 10.7576 19.375 41.1293
      vertex 10.4858 19.375 41.5346
      vertex 21.9544 19.375 41.5345
    endloop
  endfacet
  facet normal 0 1 -0
    outer loop
      vertex 21.6829 19.375 41.129
      vertex 10.7576 19.375 41.1293
      vertex 21.9544 19.375 41.5345
    endloop
  endfacet
  facet normal 0 1 0
    outer loop
      vertex 21.5882 19.375 40.6503
      vertex 10.852 19.375 40.6504
      vertex 10.7576 19.375 41.1293
    endloop
  endfacet
  facet normal 0 1 0
    outer loop
      vertex 21.5882 19.375 40.6503
      vertex 21.683 19.375 40.1723
      vertex 10.852 19.375 40.6504
    endloop
  endfacet
  facet normal 0 1 0
    outer loop
      vertex 10.852 19.375 40.6504
      vertex 21.683 19.375 40.1723
      vertex 10.7564 19.375 40.1721
    endloop
  endfacet
  facet normal 1.35998e-19 1 -8.77187e-15
    outer loop
      vertex 21.683 19.375 40.1723
      vertex 21.9539 19.375 39.7673
      vertex 10.4862 19.375 39.7671
    endloop
  endfacet
  facet normal 0 1 0
    outer loop
      vertex 10.4862 19.375 39.7671
      vertex 9.60192 19.375 38.1504
      vertex 10.0808 19.375 39.4953
    endloop
  endfacet
  facet normal 0 1 0
    outer loop
      vertex 10.0808 19.375 39.4953
      vertex 9.60192 19.375 38.1504
      vertex 9.60194 19.375 39.4009
    endloop
  endfacet
  facet normal 0 1 0
    outer loop
      vertex 9.60194 19.375 39.4009
      vertex 9.11467 19.375 38.199
      vertex 9.12322 19.375 39.4956
    endloop
  endfacet
  facet normal -0 -1 0
    outer loop
      vertex 24.6056 -19.375 38.8835
      vertex 23.7219 -19.375 39.7664
      vertex 24.2271 -19.375 38.572
    endloop
  endfacet
  facet normal -0 -1 0
    outer loop
      vertex 24.2271 -19.375 38.572
      vertex 23.316 -19.375 39.4959
      vertex 23.7952 -19.375 38.3408
    endloop
  endfacet
  facet normal 2.88383e-15 -1 6.83087e-15
    outer loop
      vertex 24.9167 -19.375 39.262
      vertex 23.9926 -19.375 40.1723
      vertex 23.7219 -19.375 39.7664
    endloop
  endfacet
  facet normal 0 -1 -0
    outer loop
      vertex 25.1481 -19.375 41.6069
      vertex 23.9924 -19.375 41.1289
      vertex 25.29 -19.375 41.138
    endloop
  endfacet
  facet normal 0 -1 0
    outer loop
      vertex 24.0882 -19.375 40.6506
      vertex 25.3377 -19.375 40.651
      vertex 25.29 -19.375 41.138
    endloop
  endfacet
  facet normal 0 -1 0
    outer loop
      vertex 23.9924 -19.375 41.1289
      vertex 25.1481 -19.375 41.6069
      vertex 24.9172 -19.375 42.0397
    endloop
  endfacet
  facet normal 0 -1 -0
    outer loop
      vertex 24.2272 -19.375 42.7293
      vertex 23.7219 -19.375 41.5348
      vertex 24.6057 -19.375 42.4182
    endloop
  endfacet
  facet normal 0 -1 0
    outer loop
      vertex 22.3594 -19.375 41.8054
      vertex 22.8377 -19.375 41.9011
      vertex 22.8383 -19.375 43.1503
    endloop
  endfacet
  facet normal 0 -1 0
    outer loop
      vertex 21.9544 -19.375 41.5345
      vertex 22.8383 -19.375 43.1503
      vertex 9.60251 -19.375 43.151
    endloop
  endfacet
  facet normal 0 -1 0
    outer loop
      vertex 23.3161 -19.375 41.8055
      vertex 23.7944 -19.375 42.9603
      vertex 23.3259 -19.375 43.1026
    endloop
  endfacet
  facet normal 5.1975e-17 -1 7.55243e-15
    outer loop
      vertex 25.1474 -19.375 39.6939
      vertex 25.2901 -19.375 40.1633
      vertex 23.9926 -19.375 40.1723
    endloop
  endfacet
  facet normal 0 -1 0
    outer loop
      vertex 10.4858 -19.375 41.5346
      vertex 21.9544 -19.375 41.5345
      vertex 9.60251 -19.375 43.151
    endloop
  endfacet
  facet normal 0 -1 0
    outer loop
      vertex 22.8381 -19.375 38.1506
      vertex 22.3594 -19.375 39.4958
      vertex 21.9539 -19.375 39.7673
    endloop
  endfacet
  facet normal 0 -1 0
    outer loop
      vertex 8.21344 -19.375 42.7296
      vertex 8.71827 -19.375 41.5343
      vertex 9.12365 -19.375 41.8061
    endloop
  endfacet
  facet normal 0 -1 -0
    outer loop
      vertex 7.83405 -19.375 42.4185
      vertex 7.52385 -19.375 42.0396
      vertex 8.71827 -19.375 41.5343
    endloop
  endfacet
  facet normal 0 -1 0
    outer loop
      vertex 7.52385 -19.375 42.0396
      vertex 8.44673 -19.375 41.1288
      vertex 8.71827 -19.375 41.5343
    endloop
  endfacet
  facet normal 0 -1 -0
    outer loop
      vertex 7.29188 -19.375 41.6071
      vertex 7.15051 -19.375 41.1382
      vertex 8.44673 -19.375 41.1288
    endloop
  endfacet
  facet normal 0 -1 0
    outer loop
      vertex 7.15051 -19.375 41.1382
      vertex 8.3524 -19.375 40.651
      vertex 8.44673 -19.375 41.1288
    endloop
  endfacet
  facet normal 0 -1 0
    outer loop
      vertex 7.15022 -19.375 40.1627
      vertex 8.44685 -19.375 40.1721
      vertex 8.3524 -19.375 40.651
    endloop
  endfacet
  facet normal 0 -1 0
    outer loop
      vertex 7.15022 -19.375 40.1627
      vertex 8.3524 -19.375 40.651
      vertex 7.10195 -19.375 40.651
    endloop
  endfacet
  facet normal 2.51825e-15 -1 1.34815e-15
    outer loop
      vertex 7.29213 -19.375 39.6938
      vertex 7.52335 -19.375 39.2619
      vertex 8.44685 -19.375 40.1721
    endloop
  endfacet
  facet normal -2.88452e-15 -1 6.82981e-15
    outer loop
      vertex 7.52335 -19.375 39.2619
      vertex 8.71866 -19.375 39.7667
      vertex 8.44685 -19.375 40.1721
    endloop
  endfacet
  facet normal 0 -1 0
    outer loop
      vertex 7.83446 -19.375 38.8825
      vertex 8.71866 -19.375 39.7667
      vertex 7.52335 -19.375 39.2619
    endloop
  endfacet
  facet normal 0 -1 0
    outer loop
      vertex 8.21334 -19.375 38.5723
      vertex 8.71866 -19.375 39.7667
      vertex 7.83446 -19.375 38.8825
    endloop
  endfacet
  facet normal -0 -1 0
    outer loop
      vertex 9.12322 -19.375 39.4956
      vertex 8.71866 -19.375 39.7667
      vertex 8.21334 -19.375 38.5723
    endloop
  endfacet
  facet normal 0 -1 0
    outer loop
      vertex 9.12322 -19.375 39.4956
      vertex 8.21334 -19.375 38.5723
      vertex 8.64487 -19.375 38.3407
    endloop
  endfacet
  facet normal 0 -1 0
    outer loop
      vertex 9.12322 -19.375 39.4956
      vertex 8.64487 -19.375 38.3407
      vertex 9.11467 -19.375 38.199
    endloop
  endfacet
  facet normal 0 -1 0
    outer loop
      vertex 10.4862 -19.375 39.7671
      vertex 22.8381 -19.375 38.1506
      vertex 21.9539 -19.375 39.7673
    endloop
  endfacet
  facet normal 0 -1 0
    outer loop
      vertex 22.8381 -19.375 39.4011
      vertex 23.3263 -19.375 38.1989
      vertex 23.316 -19.375 39.4959
    endloop
  endfacet
  facet normal -1.98794e-19 -1 8.7736e-15
    outer loop
      vertex 10.7564 -19.375 40.1721
      vertex 10.4862 -19.375 39.7671
      vertex 21.683 -19.375 40.1723
    endloop
  endfacet
  facet normal -2.51902e-15 -1 1.3455e-15
    outer loop
      vertex 25.1474 -19.375 39.6939
      vertex 23.9926 -19.375 40.1723
      vertex 24.9167 -19.375 39.262
    endloop
  endfacet
  facet normal -0 -1 0
    outer loop
      vertex 21.6829 -19.375 41.129
      vertex 10.7576 -19.375 41.1293
      vertex 21.5882 -19.375 40.6503
    endloop
  endfacet
  facet normal 0 -1 0
    outer loop
      vertex 9.60251 -19.375 43.151
      vertex 10.0799 -19.375 41.8053
      vertex 10.4858 -19.375 41.5346
    endloop
  endfacet
  facet normal 0 -1 0
    outer loop
      vertex 9.60249 -19.375 41.9005
      vertex 10.0799 -19.375 41.8053
      vertex 9.60251 -19.375 43.151
    endloop
  endfacet
  facet normal -0 -1 0
    outer loop
      vertex 22.3594 -19.375 41.8054
      vertex 22.8383 -19.375 43.1503
      vertex 21.9544 -19.375 41.5345
    endloop
  endfacet
  facet normal 0 -1 0
    outer loop
      vertex 23.3161 -19.375 41.8055
      vertex 23.3259 -19.375 43.1026
      vertex 22.8377 -19.375 41.9011
    endloop
  endfacet
  facet normal 0 -1 0
    outer loop
      vertex 22.8377 -19.375 41.9011
      vertex 23.3259 -19.375 43.1026
      vertex 22.8383 -19.375 43.1503
    endloop
  endfacet
  facet normal 0 -1 0
    outer loop
      vertex 23.7219 -19.375 41.5348
      vertex 24.2272 -19.375 42.7293
      vertex 23.3161 -19.375 41.8055
    endloop
  endfacet
  facet normal 0 -1 0
    outer loop
      vertex 23.3161 -19.375 41.8055
      vertex 24.2272 -19.375 42.7293
      vertex 23.7944 -19.375 42.9603
    endloop
  endfacet
  facet normal 0 -1 0
    outer loop
      vertex 23.9924 -19.375 41.1289
      vertex 24.9172 -19.375 42.0397
      vertex 23.7219 -19.375 41.5348
    endloop
  endfacet
  facet normal 0 -1 0
    outer loop
      vertex 23.7219 -19.375 41.5348
      vertex 24.9172 -19.375 42.0397
      vertex 24.6057 -19.375 42.4182
    endloop
  endfacet
  facet normal 0 -1 0
    outer loop
      vertex 23.9924 -19.375 41.1289
      vertex 24.0882 -19.375 40.6506
      vertex 25.29 -19.375 41.138
    endloop
  endfacet
  facet normal 0 -1 0
    outer loop
      vertex 23.9926 -19.375 40.1723
      vertex 25.2901 -19.375 40.1633
      vertex 24.0882 -19.375 40.6506
    endloop
  endfacet
  facet normal 0 -1 0
    outer loop
      vertex 24.0882 -19.375 40.6506
      vertex 25.2901 -19.375 40.1633
      vertex 25.3377 -19.375 40.651
    endloop
  endfacet
  facet normal -0 -1 0
    outer loop
      vertex 24.9167 -19.375 39.262
      vertex 23.7219 -19.375 39.7664
      vertex 24.6056 -19.375 38.8835
    endloop
  endfacet
  facet normal 0 -1 -0
    outer loop
      vertex 23.7219 -19.375 39.7664
      vertex 23.316 -19.375 39.4959
      vertex 24.2271 -19.375 38.572
    endloop
  endfacet
  facet normal 0 -1 0
    outer loop
      vertex 23.316 -19.375 39.4959
      vertex 23.3263 -19.375 38.1989
      vertex 23.7952 -19.375 38.3408
    endloop
  endfacet
  facet normal 0 -1 -0
    outer loop
      vertex 22.8381 -19.375 39.4011
      vertex 22.8381 -19.375 38.1506
      vertex 23.3263 -19.375 38.1989
    endloop
  endfacet
  facet normal 0 -1 0
    outer loop
      vertex 22.3594 -19.375 39.4958
      vertex 22.8381 -19.375 38.1506
      vertex 22.8381 -19.375 39.4011
    endloop
  endfacet
  facet normal 0 -1 0
    outer loop
      vertex 9.60192 -19.375 38.1504
      vertex 9.60194 -19.375 39.4009
      vertex 9.11467 -19.375 38.199
    endloop
  endfacet
  facet normal 0 -1 0
    outer loop
      vertex 8.21344 -19.375 42.7296
      vertex 9.12365 -19.375 41.8061
      vertex 8.64534 -19.375 42.9608
    endloop
  endfacet
  facet normal -5.4797e-17 -1 7.56004e-15
    outer loop
      vertex 7.15022 -19.375 40.1627
      vertex 7.29213 -19.375 39.6938
      vertex 8.44685 -19.375 40.1721
    endloop
  endfacet
  facet normal 0 -1 0
    outer loop
      vertex 8.64534 -19.375 42.9608
      vertex 9.12365 -19.375 41.8061
      vertex 9.11425 -19.375 43.1027
    endloop
  endfacet
  facet normal 0 -1 -0
    outer loop
      vertex 7.15051 -19.375 41.1382
      vertex 7.10195 -19.375 40.651
      vertex 8.3524 -19.375 40.651
    endloop
  endfacet
  facet normal 0 -1 -0
    outer loop
      vertex 7.52385 -19.375 42.0396
      vertex 7.29188 -19.375 41.6071
      vertex 8.44673 -19.375 41.1288
    endloop
  endfacet
  facet normal 0 -1 -0
    outer loop
      vertex 8.21344 -19.375 42.7296
      vertex 7.83405 -19.375 42.4185
      vertex 8.71827 -19.375 41.5343
    endloop
  endfacet
  facet normal 0 -1 0
    outer loop
      vertex 9.12365 -19.375 41.8061
      vertex 9.60249 -19.375 41.9005
      vertex 9.11425 -19.375 43.1027
    endloop
  endfacet
  facet normal 0 -1 -0
    outer loop
      vertex 10.4862 -19.375 39.7671
      vertex 9.60192 -19.375 38.1504
      vertex 22.8381 -19.375 38.1506
    endloop
  endfacet
  facet normal 0 -1 0
    outer loop
      vertex 9.11425 -19.375 43.1027
      vertex 9.60249 -19.375 41.9005
      vertex 9.60251 -19.375 43.151
    endloop
  endfacet
  facet normal -0 -1 0
    outer loop
      vertex 21.9544 -19.375 41.5345
      vertex 10.4858 -19.375 41.5346
      vertex 10.7576 -19.375 41.1293
    endloop
  endfacet
  facet normal 0 -1 0
    outer loop
      vertex 21.9544 -19.375 41.5345
      vertex 10.7576 -19.375 41.1293
      vertex 21.6829 -19.375 41.129
    endloop
  endfacet
  facet normal 0 -1 0
    outer loop
      vertex 10.7576 -19.375 41.1293
      vertex 10.852 -19.375 40.6504
      vertex 21.5882 -19.375 40.6503
    endloop
  endfacet
  facet normal 0 -1 0
    outer loop
      vertex 10.852 -19.375 40.6504
      vertex 21.683 -19.375 40.1723
      vertex 21.5882 -19.375 40.6503
    endloop
  endfacet
  facet normal 0 -1 0
    outer loop
      vertex 10.7564 -19.375 40.1721
      vertex 21.683 -19.375 40.1723
      vertex 10.852 -19.375 40.6504
    endloop
  endfacet
  facet normal -1.35998e-19 -1 8.77187e-15
    outer loop
      vertex 10.4862 -19.375 39.7671
      vertex 21.9539 -19.375 39.7673
      vertex 21.683 -19.375 40.1723
    endloop
  endfacet
  facet normal 0 -1 -0
    outer loop
      vertex 10.0808 -19.375 39.4953
      vertex 9.60192 -19.375 38.1504
      vertex 10.4862 -19.375 39.7671
    endloop
  endfacet
  facet normal 0 -1 -0
    outer loop
      vertex 9.60194 -19.375 39.4009
      vertex 9.60192 -19.375 38.1504
      vertex 10.0808 -19.375 39.4953
    endloop
  endfacet
  facet normal 0 -1 -0
    outer loop
      vertex 9.12322 -19.375 39.4956
      vertex 9.11467 -19.375 38.199
      vertex 9.60194 -19.375 39.4009
    endloop
  endfacet
  facet normal -0.0991688 -3.6496e-16 -0.995071
    outer loop
      vertex 9.60192 19.375 38.1504
      vertex 9.11467 -19.375 38.199
      vertex 9.11467 19.375 38.199
    endloop
  endfacet
  facet normal -0.0991688 -3.64924e-16 -0.995071
    outer loop
      vertex 9.60192 19.375 38.1504
      vertex 9.60192 -19.375 38.1504
      vertex 9.11467 -19.375 38.199
    endloop
  endfacet
  facet normal 1.48442e-05 -3.66732e-16 -1
    outer loop
      vertex 22.8381 19.375 38.1506
      vertex 9.60192 -19.375 38.1504
      vertex 9.60192 19.375 38.1504
    endloop
  endfacet
  facet normal 1.48442e-05 -3.66732e-16 -1
    outer loop
      vertex 22.8381 19.375 38.1506
      vertex 22.8381 -19.375 38.1506
      vertex 9.60192 -19.375 38.1504
    endloop
  endfacet
  facet normal 0.0983867 -3.64971e-16 -0.995148
    outer loop
      vertex 23.3263 19.375 38.1989
      vertex 22.8381 -19.375 38.1506
      vertex 22.8381 19.375 38.1506
    endloop
  endfacet
  facet normal 0.0983867 -3.64952e-16 -0.995148
    outer loop
      vertex 23.3263 19.375 38.1989
      vertex 23.3263 -19.375 38.1989
      vertex 22.8381 -19.375 38.1506
    endloop
  endfacet
  facet normal 0.28966 -3.50894e-16 -0.95713
    outer loop
      vertex 23.7952 19.375 38.3408
      vertex 23.3263 -19.375 38.1989
      vertex 23.3263 19.375 38.1989
    endloop
  endfacet
  facet normal 0.28966 -3.5101e-16 -0.95713
    outer loop
      vertex 23.7952 19.375 38.3408
      vertex 23.7952 -19.375 38.3408
      vertex 23.3263 -19.375 38.1989
    endloop
  endfacet
  facet normal 0.471972 -3.23115e-16 -0.881614
    outer loop
      vertex 24.2271 19.375 38.572
      vertex 23.7952 -19.375 38.3408
      vertex 23.7952 19.375 38.3408
    endloop
  endfacet
  facet normal 0.471972 -3.23316e-16 -0.881614
    outer loop
      vertex 24.2271 19.375 38.572
      vertex 24.2271 -19.375 38.572
      vertex 23.7952 -19.375 38.3408
    endloop
  endfacet
  facet normal 0.635464 -2.83483e-16 -0.772131
    outer loop
      vertex 24.6056 19.375 38.8835
      vertex 24.2271 -19.375 38.572
      vertex 24.2271 19.375 38.572
    endloop
  endfacet
  facet normal 0.635464 -2.83165e-16 -0.772131
    outer loop
      vertex 24.6056 19.375 38.8835
      vertex 24.6056 -19.375 38.8835
      vertex 24.2271 -19.375 38.572
    endloop
  endfacet
  facet normal 0.772534 -2.33176e-16 -0.634973
    outer loop
      vertex 24.9167 19.375 39.262
      vertex 24.6056 -19.375 38.8835
      vertex 24.6056 19.375 38.8835
    endloop
  endfacet
  facet normal 0.772534 -2.32865e-16 -0.634973
    outer loop
      vertex 24.9167 19.375 39.262
      vertex 24.9167 -19.375 39.262
      vertex 24.6056 -19.375 38.8835
    endloop
  endfacet
  facet normal 0.882059 -1.72614e-16 -0.471139
    outer loop
      vertex 25.1474 19.375 39.6939
      vertex 24.9167 -19.375 39.262
      vertex 24.9167 19.375 39.262
    endloop
  endfacet
  facet normal 0.882059 -1.72782e-16 -0.471139
    outer loop
      vertex 25.1474 19.375 39.6939
      vertex 25.1474 -19.375 39.6939
      vertex 24.9167 -19.375 39.262
    endloop
  endfacet
  facet normal 0.956799 -1.06575e-16 -0.29075
    outer loop
      vertex 25.2901 19.375 40.1633
      vertex 25.1474 -19.375 39.6939
      vertex 25.1474 19.375 39.6939
    endloop
  endfacet
  facet normal 0.956799 -1.06627e-16 -0.29075
    outer loop
      vertex 25.2901 19.375 40.1633
      vertex 25.2901 -19.375 40.1633
      vertex 25.1474 -19.375 39.6939
    endloop
  endfacet
  facet normal 0.995258 -3.5817e-17 -0.09727
    outer loop
      vertex 25.3377 19.375 40.651
      vertex 25.2901 -19.375 40.1633
      vertex 25.2901 19.375 40.1633
    endloop
  endfacet
  facet normal 0.995258 -3.5672e-17 -0.09727
    outer loop
      vertex 25.3377 19.375 40.651
      vertex 25.3377 -19.375 40.651
      vertex 25.2901 -19.375 40.1633
    endloop
  endfacet
  facet normal 0.995228 3.58638e-17 0.0975724
    outer loop
      vertex 25.29 19.375 41.138
      vertex 25.3377 -19.375 40.651
      vertex 25.3377 19.375 40.651
    endloop
  endfacet
  facet normal 0.995228 3.57829e-17 0.0975724
    outer loop
      vertex 25.29 19.375 41.138
      vertex 25.29 -19.375 41.138
      vertex 25.3377 -19.375 40.651
    endloop
  endfacet
  facet normal 0.95713 1.05999e-16 0.28966
    outer loop
      vertex 25.1481 19.375 41.6069
      vertex 25.29 -19.375 41.138
      vertex 25.29 19.375 41.138
    endloop
  endfacet
  facet normal 0.95713 1.06228e-16 0.28966
    outer loop
      vertex 25.1481 19.375 41.6069
      vertex 25.1481 -19.375 41.6069
      vertex 25.29 -19.375 41.138
    endloop
  endfacet
  facet normal 0.882339 1.72305e-16 0.470614
    outer loop
      vertex 24.9172 19.375 42.0397
      vertex 25.1481 -19.375 41.6069
      vertex 25.1481 19.375 41.6069
    endloop
  endfacet
  facet normal 0.882339 1.72589e-16 0.470614
    outer loop
      vertex 24.9172 19.375 42.0397
      vertex 24.9172 -19.375 42.0397
      vertex 25.1481 -19.375 41.6069
    endloop
  endfacet
  facet normal 0.772131 2.3307e-16 0.635464
    outer loop
      vertex 24.6057 19.375 42.4182
      vertex 24.9172 -19.375 42.0397
      vertex 24.9172 19.375 42.0397
    endloop
  endfacet
  facet normal 0.772131 2.33045e-16 0.635464
    outer loop
      vertex 24.6057 19.375 42.4182
      vertex 24.6057 -19.375 42.4182
      vertex 24.9172 -19.375 42.0397
    endloop
  endfacet
  facet normal 0.634973 2.83612e-16 0.772534
    outer loop
      vertex 24.2272 19.375 42.7293
      vertex 24.6057 -19.375 42.4182
      vertex 24.6057 19.375 42.4182
    endloop
  endfacet
  facet normal 0.634973 2.83313e-16 0.772534
    outer loop
      vertex 24.2272 19.375 42.7293
      vertex 24.2272 -19.375 42.7293
      vertex 24.6057 -19.375 42.4182
    endloop
  endfacet
  facet normal 0.470967 3.23375e-16 0.882151
    outer loop
      vertex 23.7944 19.375 42.9603
      vertex 24.2272 -19.375 42.7293
      vertex 24.2272 19.375 42.7293
    endloop
  endfacet
  facet normal 0.470967 3.23513e-16 0.882151
    outer loop
      vertex 23.7944 19.375 42.9603
      vertex 23.7944 -19.375 42.9603
      vertex 24.2272 -19.375 42.7293
    endloop
  endfacet
  facet normal 0.290564 3.51079e-16 0.956855
    outer loop
      vertex 23.3259 19.375 43.1026
      vertex 23.7944 -19.375 42.9603
      vertex 23.7944 19.375 42.9603
    endloop
  endfacet
  facet normal 0.290564 3.50909e-16 0.956855
    outer loop
      vertex 23.3259 19.375 43.1026
      vertex 23.3259 -19.375 43.1026
      vertex 23.7944 -19.375 42.9603
    endloop
  endfacet
  facet normal 0.09727 3.64931e-16 0.995258
    outer loop
      vertex 22.8383 19.375 43.1503
      vertex 23.3259 -19.375 43.1026
      vertex 23.3259 19.375 43.1026
    endloop
  endfacet
  facet normal 0.09727 3.64993e-16 0.995258
    outer loop
      vertex 22.8383 19.375 43.1503
      vertex 22.8383 -19.375 43.1503
      vertex 23.3259 -19.375 43.1026
    endloop
  endfacet
  facet normal 5.33212e-05 3.66734e-16 1
    outer loop
      vertex 9.60251 19.375 43.151
      vertex 22.8383 -19.375 43.1503
      vertex 22.8383 19.375 43.1503
    endloop
  endfacet
  facet normal 5.33212e-05 3.66732e-16 1
    outer loop
      vertex 9.60251 19.375 43.151
      vertex 9.60251 -19.375 43.151
      vertex 22.8383 -19.375 43.1503
    endloop
  endfacet
  facet normal -0.0983867 3.64971e-16 0.995148
    outer loop
      vertex 9.11425 19.375 43.1027
      vertex 9.60251 -19.375 43.151
      vertex 9.60251 19.375 43.151
    endloop
  endfacet
  facet normal -0.0983867 3.64952e-16 0.995148
    outer loop
      vertex 9.11425 19.375 43.1027
      vertex 9.11425 -19.375 43.1027
      vertex 9.60251 -19.375 43.151
    endloop
  endfacet
  facet normal -0.28966 3.50894e-16 0.95713
    outer loop
      vertex 8.64534 19.375 42.9608
      vertex 9.11425 -19.375 43.1027
      vertex 9.11425 19.375 43.1027
    endloop
  endfacet
  facet normal -0.28966 3.5101e-16 0.95713
    outer loop
      vertex 8.64534 19.375 42.9608
      vertex 8.64534 -19.375 42.9608
      vertex 9.11425 -19.375 43.1027
    endloop
  endfacet
  facet normal -0.471972 3.23846e-16 0.881614
    outer loop
      vertex 8.21344 19.375 42.7296
      vertex 8.64534 -19.375 42.9608
      vertex 8.64534 19.375 42.9608
    endloop
  endfacet
  facet normal -0.471972 3.23316e-16 0.881614
    outer loop
      vertex 8.21344 19.375 42.7296
      vertex 8.21344 -19.375 42.7296
      vertex 8.64534 -19.375 42.9608
    endloop
  endfacet
  facet normal -0.634106 2.83947e-16 0.773246
    outer loop
      vertex 7.83405 19.375 42.4185
      vertex 8.21344 -19.375 42.7296
      vertex 8.21344 19.375 42.7296
    endloop
  endfacet
  facet normal -0.634106 2.83574e-16 0.773246
    outer loop
      vertex 7.83405 19.375 42.4185
      vertex 7.83405 -19.375 42.4185
      vertex 8.21344 -19.375 42.7296
    endloop
  endfacet
  facet normal -0.773744 2.32579e-16 0.633498
    outer loop
      vertex 7.52385 19.375 42.0396
      vertex 7.83405 -19.375 42.4185
      vertex 7.83405 19.375 42.4185
    endloop
  endfacet
  facet normal -0.773744 2.32324e-16 0.633498
    outer loop
      vertex 7.52385 19.375 42.0396
      vertex 7.52385 -19.375 42.0396
      vertex 7.83405 -19.375 42.4185
    endloop
  endfacet
  facet normal -0.881216 1.73698e-16 0.472714
    outer loop
      vertex 7.29188 19.375 41.6071
      vertex 7.52385 -19.375 42.0396
      vertex 7.52385 19.375 42.0396
    endloop
  endfacet
  facet normal -0.881216 1.73359e-16 0.472714
    outer loop
      vertex 7.29188 19.375 41.6071
      vertex 7.29188 -19.375 41.6071
      vertex 7.52385 -19.375 42.0396
    endloop
  endfacet
  facet normal -0.95743 1.05303e-16 0.288665
    outer loop
      vertex 7.15051 19.375 41.1382
      vertex 7.29188 -19.375 41.6071
      vertex 7.29188 19.375 41.6071
    endloop
  endfacet
  facet normal -0.95743 1.05863e-16 0.288665
    outer loop
      vertex 7.15051 19.375 41.1382
      vertex 7.15051 -19.375 41.1382
      vertex 7.29188 -19.375 41.6071
    endloop
  endfacet
  facet normal -0.995071 3.63863e-17 0.0991688
    outer loop
      vertex 7.10195 19.375 40.651
      vertex 7.15051 -19.375 41.1382
      vertex 7.15051 19.375 41.1382
    endloop
  endfacet
  facet normal -0.995071 3.63683e-17 0.0991688
    outer loop
      vertex 7.10195 19.375 40.651
      vertex 7.10195 -19.375 40.651
      vertex 7.15051 -19.375 41.1382
    endloop
  endfacet
  facet normal -0.995148 -3.61321e-17 -0.0983867
    outer loop
      vertex 7.15022 19.375 40.1627
      vertex 7.10195 -19.375 40.651
      vertex 7.10195 19.375 40.651
    endloop
  endfacet
  facet normal -0.995148 -3.60815e-17 -0.0983867
    outer loop
      vertex 7.15022 19.375 40.1627
      vertex 7.15022 -19.375 40.1627
      vertex 7.10195 -19.375 40.651
    endloop
  endfacet
  facet normal -0.95713 -1.05999e-16 -0.28966
    outer loop
      vertex 7.29213 19.375 39.6938
      vertex 7.15022 -19.375 40.1627
      vertex 7.15022 19.375 40.1627
    endloop
  endfacet
  facet normal -0.95713 -1.06228e-16 -0.28966
    outer loop
      vertex 7.29213 19.375 39.6938
      vertex 7.29213 -19.375 39.6938
      vertex 7.15022 -19.375 40.1627
    endloop
  endfacet
  facet normal -0.881614 -1.73254e-16 -0.471972
    outer loop
      vertex 7.52335 19.375 39.2619
      vertex 7.29213 -19.375 39.6938
      vertex 7.29213 19.375 39.6938
    endloop
  endfacet
  facet normal -0.881614 -1.73087e-16 -0.471972
    outer loop
      vertex 7.52335 19.375 39.2619
      vertex 7.52335 -19.375 39.2619
      vertex 7.29213 -19.375 39.6938
    endloop
  endfacet
  facet normal -0.773246 -2.32122e-16 -0.634106
    outer loop
      vertex 7.83446 19.375 38.8825
      vertex 7.52335 -19.375 39.2619
      vertex 7.52335 19.375 39.2619
    endloop
  endfacet
  facet normal -0.773246 -2.32547e-16 -0.634106
    outer loop
      vertex 7.83446 19.375 38.8825
      vertex 7.83446 -19.375 38.8825
      vertex 7.52335 -19.375 39.2619
    endloop
  endfacet
  facet normal -0.633498 -2.83776e-16 -0.773744
    outer loop
      vertex 8.21334 19.375 38.5723
      vertex 7.83446 -19.375 38.8825
      vertex 7.83446 19.375 38.8825
    endloop
  endfacet
  facet normal -0.633498 -2.83757e-16 -0.773744
    outer loop
      vertex 8.21334 19.375 38.5723
      vertex 8.21334 -19.375 38.5723
      vertex 7.83446 -19.375 38.8825
    endloop
  endfacet
  facet normal -0.472889 -3.23222e-16 -0.881122
    outer loop
      vertex 8.64487 19.375 38.3407
      vertex 8.21334 -19.375 38.5723
      vertex 8.21334 19.375 38.5723
    endloop
  endfacet
  facet normal -0.472889 -3.23135e-16 -0.881122
    outer loop
      vertex 8.64487 19.375 38.3407
      vertex 8.64487 -19.375 38.3407
      vertex 8.21334 -19.375 38.5723
    endloop
  endfacet
  facet normal -0.288855 -3.51045e-16 -0.957373
    outer loop
      vertex 9.11467 19.375 38.199
      vertex 8.64487 -19.375 38.3407
      vertex 8.64487 19.375 38.3407
    endloop
  endfacet
  facet normal -0.288855 -3.51099e-16 -0.957373
    outer loop
      vertex 9.11467 19.375 38.199
      vertex 9.11467 -19.375 38.199
      vertex 8.64487 -19.375 38.3407
    endloop
  endfacet
  facet normal 0.831197 2.03895e-16 0.555978
    outer loop
      vertex 21.683 19.375 40.1723
      vertex 21.683 -19.375 40.1723
      vertex 21.9539 19.375 39.7673
    endloop
  endfacet
  facet normal 0.831197 2.03895e-16 0.555978
    outer loop
      vertex 21.9539 -19.375 39.7673
      vertex 21.9539 19.375 39.7673
      vertex 21.683 -19.375 40.1723
    endloop
  endfacet
  facet normal 0.980881 7.13695e-17 0.19461
    outer loop
      vertex 21.5882 19.375 40.6503
      vertex 21.5882 -19.375 40.6503
      vertex 21.683 19.375 40.1723
    endloop
  endfacet
  facet normal 0.980881 7.13695e-17 0.19461
    outer loop
      vertex 21.683 -19.375 40.1723
      vertex 21.683 19.375 40.1723
      vertex 21.5882 -19.375 40.6503
    endloop
  endfacet
  facet normal 0.980989 -7.11695e-17 -0.194064
    outer loop
      vertex 21.6829 19.375 41.129
      vertex 21.6829 -19.375 41.129
      vertex 21.5882 19.375 40.6503
    endloop
  endfacet
  facet normal 0.980989 -7.11695e-17 -0.194064
    outer loop
      vertex 21.5882 -19.375 40.6503
      vertex 21.5882 19.375 40.6503
      vertex 21.6829 -19.375 41.129
    endloop
  endfacet
  facet normal 0.830888 -2.04064e-16 -0.55644
    outer loop
      vertex 21.9544 19.375 41.5345
      vertex 21.9544 -19.375 41.5345
      vertex 21.6829 19.375 41.129
    endloop
  endfacet
  facet normal 0.830888 -2.04064e-16 -0.55644
    outer loop
      vertex 21.6829 -19.375 41.129
      vertex 21.6829 19.375 41.129
      vertex 21.9544 -19.375 41.5345
    endloop
  endfacet
  facet normal 0.555978 -3.04826e-16 -0.831197
    outer loop
      vertex 22.3594 19.375 41.8054
      vertex 22.3594 -19.375 41.8054
      vertex 21.9544 19.375 41.5345
    endloop
  endfacet
  facet normal 0.555978 -3.04826e-16 -0.831197
    outer loop
      vertex 21.9544 -19.375 41.5345
      vertex 21.9544 19.375 41.5345
      vertex 22.3594 -19.375 41.8054
    endloop
  endfacet
  facet normal 0.196243 -3.59601e-16 -0.980555
    outer loop
      vertex 22.8377 19.375 41.9011
      vertex 22.8377 -19.375 41.9011
      vertex 22.3594 19.375 41.8054
    endloop
  endfacet
  facet normal 0.196243 -3.59601e-16 -0.980555
    outer loop
      vertex 22.3594 -19.375 41.8054
      vertex 22.3594 19.375 41.8054
      vertex 22.8377 -19.375 41.9011
    endloop
  endfacet
  facet normal -0.19599 -3.59619e-16 -0.980606
    outer loop
      vertex 23.3161 19.375 41.8055
      vertex 23.3161 -19.375 41.8055
      vertex 22.8377 19.375 41.9011
    endloop
  endfacet
  facet normal -0.19599 -3.59619e-16 -0.980606
    outer loop
      vertex 22.8377 -19.375 41.9011
      vertex 22.8377 19.375 41.9011
      vertex 23.3161 -19.375 41.8055
    endloop
  endfacet
  facet normal -0.554807 -3.05113e-16 -0.831979
    outer loop
      vertex 23.7219 19.375 41.5348
      vertex 23.7219 -19.375 41.5348
      vertex 23.3161 19.375 41.8055
    endloop
  endfacet
  facet normal -0.554807 -3.05113e-16 -0.831979
    outer loop
      vertex 23.3161 -19.375 41.8055
      vertex 23.3161 19.375 41.8055
      vertex 23.7219 -19.375 41.5348
    endloop
  endfacet
  facet normal -0.832122 -2.03387e-16 -0.554593
    outer loop
      vertex 23.9924 19.375 41.1289
      vertex 23.9924 -19.375 41.1289
      vertex 23.7219 19.375 41.5348
    endloop
  endfacet
  facet normal -0.832122 -2.03387e-16 -0.554593
    outer loop
      vertex 23.7219 -19.375 41.5348
      vertex 23.7219 19.375 41.5348
      vertex 23.9924 -19.375 41.1289
    endloop
  endfacet
  facet normal -0.980555 -7.19684e-17 -0.196243
    outer loop
      vertex 24.0882 19.375 40.6506
      vertex 24.0882 -19.375 40.6506
      vertex 23.9924 19.375 41.1289
    endloop
  endfacet
  facet normal -0.980555 -7.19684e-17 -0.196243
    outer loop
      vertex 23.9924 -19.375 41.1289
      vertex 23.9924 19.375 41.1289
      vertex 24.0882 -19.375 40.6506
    endloop
  endfacet
  facet normal -0.980606 7.18756e-17 0.19599
    outer loop
      vertex 23.9926 19.375 40.1723
      vertex 23.9926 -19.375 40.1723
      vertex 24.0882 19.375 40.6506
    endloop
  endfacet
  facet normal -0.980606 7.18756e-17 0.19599
    outer loop
      vertex 24.0882 -19.375 40.6506
      vertex 24.0882 19.375 40.6506
      vertex 23.9926 -19.375 40.1723
    endloop
  endfacet
  facet normal -0.831979 2.03466e-16 0.554807
    outer loop
      vertex 23.7219 19.375 39.7664
      vertex 23.7219 -19.375 39.7664
      vertex 23.9926 19.375 40.1723
    endloop
  endfacet
  facet normal -0.831979 2.03466e-16 0.554807
    outer loop
      vertex 23.9926 -19.375 40.1723
      vertex 23.9926 19.375 40.1723
      vertex 23.7219 -19.375 39.7664
    endloop
  endfacet
  facet normal -0.554593 3.05165e-16 0.832122
    outer loop
      vertex 23.316 19.375 39.4959
      vertex 23.316 -19.375 39.4959
      vertex 23.7219 19.375 39.7664
    endloop
  endfacet
  facet normal -0.554593 3.05165e-16 0.832122
    outer loop
      vertex 23.7219 -19.375 39.7664
      vertex 23.7219 19.375 39.7664
      vertex 23.316 -19.375 39.4959
    endloop
  endfacet
  facet normal -0.19461 3.5972e-16 0.980881
    outer loop
      vertex 22.8381 19.375 39.4011
      vertex 22.8381 -19.375 39.4011
      vertex 23.316 19.375 39.4959
    endloop
  endfacet
  facet normal -0.19461 3.5972e-16 0.980881
    outer loop
      vertex 23.316 -19.375 39.4959
      vertex 23.316 19.375 39.4959
      vertex 22.8381 -19.375 39.4011
    endloop
  endfacet
  facet normal 0.194064 3.5976e-16 0.980989
    outer loop
      vertex 22.3594 19.375 39.4958
      vertex 22.3594 -19.375 39.4958
      vertex 22.8381 19.375 39.4011
    endloop
  endfacet
  facet normal 0.194064 3.5976e-16 0.980989
    outer loop
      vertex 22.8381 -19.375 39.4011
      vertex 22.8381 19.375 39.4011
      vertex 22.3594 -19.375 39.4958
    endloop
  endfacet
  facet normal 0.55644 3.04713e-16 0.830888
    outer loop
      vertex 21.9539 19.375 39.7673
      vertex 21.9539 -19.375 39.7673
      vertex 22.3594 19.375 39.4958
    endloop
  endfacet
  facet normal 0.55644 3.04713e-16 0.830888
    outer loop
      vertex 22.3594 -19.375 39.4958
      vertex 22.3594 19.375 39.4958
      vertex 21.9539 -19.375 39.7673
    endloop
  endfacet
  facet normal 0.830579 2.04233e-16 0.556901
    outer loop
      vertex 8.44685 19.375 40.1721
      vertex 8.44685 -19.375 40.1721
      vertex 8.71866 19.375 39.7667
    endloop
  endfacet
  facet normal 0.830579 2.04233e-16 0.556901
    outer loop
      vertex 8.71866 -19.375 39.7667
      vertex 8.71866 19.375 39.7667
      vertex 8.44685 -19.375 40.1721
    endloop
  endfacet
  facet normal 0.981096 7.09699e-17 0.19352
    outer loop
      vertex 8.3524 19.375 40.651
      vertex 8.3524 -19.375 40.651
      vertex 8.44685 19.375 40.1721
    endloop
  endfacet
  facet normal 0.981096 7.09699e-17 0.19352
    outer loop
      vertex 8.44685 -19.375 40.1721
      vertex 8.44685 19.375 40.1721
      vertex 8.3524 -19.375 40.651
    endloop
  endfacet
  facet normal 0.981065 -7.10281e-17 -0.193679
    outer loop
      vertex 8.44673 19.375 41.1288
      vertex 8.44673 -19.375 41.1288
      vertex 8.3524 19.375 40.651
    endloop
  endfacet
  facet normal 0.981065 -7.10281e-17 -0.193679
    outer loop
      vertex 8.3524 -19.375 40.651
      vertex 8.3524 19.375 40.651
      vertex 8.44673 -19.375 41.1288
    endloop
  endfacet
  facet normal 0.830888 -2.04064e-16 -0.55644
    outer loop
      vertex 8.71827 19.375 41.5343
      vertex 8.71827 -19.375 41.5343
      vertex 8.44673 19.375 41.1288
    endloop
  endfacet
  facet normal 0.830888 -2.04064e-16 -0.55644
    outer loop
      vertex 8.44673 -19.375 41.1288
      vertex 8.44673 19.375 41.1288
      vertex 8.71827 -19.375 41.5343
    endloop
  endfacet
  facet normal 0.556901 -3.046e-16 -0.830579
    outer loop
      vertex 9.12365 19.375 41.8061
      vertex 9.12365 -19.375 41.8061
      vertex 8.71827 19.375 41.5343
    endloop
  endfacet
  facet normal 0.556901 -3.046e-16 -0.830579
    outer loop
      vertex 8.71827 -19.375 41.5343
      vertex 8.71827 19.375 41.5343
      vertex 9.12365 -19.375 41.8061
    endloop
  endfacet
  facet normal 0.19352 -3.59799e-16 -0.981096
    outer loop
      vertex 9.60249 19.375 41.9005
      vertex 9.60249 -19.375 41.9005
      vertex 9.12365 19.375 41.8061
    endloop
  endfacet
  facet normal 0.19352 -3.59799e-16 -0.981096
    outer loop
      vertex 9.12365 -19.375 41.8061
      vertex 9.12365 19.375 41.8061
      vertex 9.60249 -19.375 41.9005
    endloop
  endfacet
  facet normal -0.195608 -3.59647e-16 -0.980682
    outer loop
      vertex 10.0799 19.375 41.8053
      vertex 10.0799 -19.375 41.8053
      vertex 9.60249 19.375 41.9005
    endloop
  endfacet
  facet normal -0.195608 -3.59647e-16 -0.980682
    outer loop
      vertex 9.60249 -19.375 41.9005
      vertex 9.60249 19.375 41.9005
      vertex 10.0799 -19.375 41.8053
    endloop
  endfacet
  facet normal -0.554807 -3.05113e-16 -0.831979
    outer loop
      vertex 10.4858 19.375 41.5346
      vertex 10.4858 -19.375 41.5346
      vertex 10.0799 19.375 41.8053
    endloop
  endfacet
  facet normal -0.554807 -3.05113e-16 -0.831979
    outer loop
      vertex 10.0799 -19.375 41.8053
      vertex 10.0799 19.375 41.8053
      vertex 10.4858 -19.375 41.5346
    endloop
  endfacet
  facet normal -0.830579 -2.04233e-16 -0.556901
    outer loop
      vertex 10.7576 19.375 41.1293
      vertex 10.7576 -19.375 41.1293
      vertex 10.4858 19.375 41.5346
    endloop
  endfacet
  facet normal -0.830579 -2.04233e-16 -0.556901
    outer loop
      vertex 10.4858 -19.375 41.5346
      vertex 10.4858 19.375 41.5346
      vertex 10.7576 -19.375 41.1293
    endloop
  endfacet
  facet normal -0.981096 -7.09699e-17 -0.19352
    outer loop
      vertex 10.852 19.375 40.6504
      vertex 10.852 -19.375 40.6504
      vertex 10.7576 19.375 41.1293
    endloop
  endfacet
  facet normal -0.981096 -7.09699e-17 -0.19352
    outer loop
      vertex 10.7576 -19.375 41.1293
      vertex 10.7576 19.375 41.1293
      vertex 10.852 -19.375 40.6504
    endloop
  endfacet
  facet normal -0.980606 7.18756e-17 0.19599
    outer loop
      vertex 10.7564 19.375 40.1721
      vertex 10.7564 -19.375 40.1721
      vertex 10.852 19.375 40.6504
    endloop
  endfacet
  facet normal -0.980606 7.18756e-17 0.19599
    outer loop
      vertex 10.852 -19.375 40.6504
      vertex 10.852 19.375 40.6504
      vertex 10.7564 -19.375 40.1721
    endloop
  endfacet
  facet normal -0.831763 2.03584e-16 0.555132
    outer loop
      vertex 10.4862 19.375 39.7671
      vertex 10.4862 -19.375 39.7671
      vertex 10.7564 19.375 40.1721
    endloop
  endfacet
  facet normal -0.831763 2.03584e-16 0.555132
    outer loop
      vertex 10.7564 -19.375 40.1721
      vertex 10.7564 19.375 40.1721
      vertex 10.4862 -19.375 39.7671
    endloop
  endfacet
  facet normal -0.556901 3.046e-16 0.830579
    outer loop
      vertex 10.0808 19.375 39.4953
      vertex 10.0808 -19.375 39.4953
      vertex 10.4862 19.375 39.7671
    endloop
  endfacet
  facet normal -0.556901 3.046e-16 0.830579
    outer loop
      vertex 10.4862 -19.375 39.7671
      vertex 10.4862 19.375 39.7671
      vertex 10.0808 -19.375 39.4953
    endloop
  endfacet
  facet normal -0.19352 3.59799e-16 0.981096
    outer loop
      vertex 9.60194 19.375 39.4009
      vertex 9.60194 -19.375 39.4009
      vertex 10.0808 19.375 39.4953
    endloop
  endfacet
  facet normal -0.19352 3.59799e-16 0.981096
    outer loop
      vertex 10.0808 -19.375 39.4953
      vertex 10.0808 19.375 39.4953
      vertex 9.60194 -19.375 39.4009
    endloop
  endfacet
  facet normal 0.194064 3.5976e-16 0.980989
    outer loop
      vertex 9.12322 19.375 39.4956
      vertex 9.12322 -19.375 39.4956
      vertex 9.60194 19.375 39.4009
    endloop
  endfacet
  facet normal 0.194064 3.5976e-16 0.980989
    outer loop
      vertex 9.60194 -19.375 39.4009
      vertex 9.60194 19.375 39.4009
      vertex 9.12322 -19.375 39.4956
    endloop
  endfacet
  facet normal 0.556766 3.04633e-16 0.830669
    outer loop
      vertex 8.71866 19.375 39.7667
      vertex 8.71866 -19.375 39.7667
      vertex 9.12322 19.375 39.4956
    endloop
  endfacet
  facet normal 0.556766 3.04633e-16 0.830669
    outer loop
      vertex 9.12322 -19.375 39.4956
      vertex 9.12322 19.375 39.4956
      vertex 8.71866 -19.375 39.7667
    endloop
  endfacet
endsolid OpenSCAD_Model
